<svg xmlns="http://www.w3.org/2000/svg" xmlns:xlink="http://www.w3.org/1999/xlink" width="40" zoomAndPan="magnify" viewBox="0 0 30 30.000001" height="40" preserveAspectRatio="xMidYMid meet" version="1.0"><defs><clipPath id="8c92dce7b0"><path d="M 12 28 L 18 28 L 18 29.03125 L 12 29.03125 Z M 12 28 " clip-rule="nonzero"/></clipPath><clipPath id="86e6f08f06"><path d="M 26 14 L 29.515625 14 L 29.515625 15 L 26 15 Z M 26 14 " clip-rule="nonzero"/></clipPath><clipPath id="03a83fa5e5"><path d="M 0.484375 14 L 4 14 L 4 15 L 0.484375 15 Z M 0.484375 14 " clip-rule="nonzero"/></clipPath></defs><path fill="#ffffff" d="M 5.324219 18.433594 C 5.339844 19.242188 5.535156 20.105469 5.972656 20.804688 C 6.332031 21.378906 7.023438 22.082031 7.679688 22.339844 C 8.824219 22.796875 9.308594 23.867188 10.117188 24.675781 C 10.605469 25.167969 11.324219 25.402344 12.035156 25.402344 C 12.425781 25.402344 12.816406 25.332031 13.167969 25.195312 C 13.402344 25.101562 14.5 24.589844 14.5 24.257812 C 14.5 24.234375 14.5 4.492188 14.5 4.492188 C 13.925781 3.839844 13.265625 3.628906 12.652344 3.628906 C 11.558594 3.628906 10.625 4.296875 10.625 4.296875 C 7.984375 4.476562 8 6.921875 8 6.921875 C 6.328125 7.488281 6.273438 10.058594 6.273438 10.058594 C 4.03125 11.417969 4.90625 14.488281 4.90625 14.488281 C 3.421875 16.867188 5.324219 18.433594 5.324219 18.433594 Z M 5.492188 15.304688 C 5.742188 15.726562 6.136719 16.242188 6.695312 16.488281 C 6.757812 16.511719 6.816406 16.523438 6.878906 16.523438 C 7.054688 16.523438 7.21875 16.425781 7.292969 16.253906 C 7.394531 16.023438 7.289062 15.757812 7.0625 15.65625 C 6.535156 15.425781 6.140625 14.640625 6.035156 14.355469 C 5.984375 14.21875 5.871094 14.125 5.742188 14.082031 C 5.632812 13.5625 5.382812 11.859375 6.546875 10.96875 C 6.652344 11.414062 6.839844 11.960938 7.179688 12.332031 C 7.269531 12.429688 7.390625 12.480469 7.515625 12.480469 C 7.625 12.480469 7.730469 12.441406 7.820312 12.363281 C 8.003906 12.195312 8.019531 11.910156 7.851562 11.722656 C 7.492188 11.328125 7.355469 10.4375 7.332031 10.128906 C 7.324219 10.015625 7.273438 9.914062 7.199219 9.839844 C 7.261719 9.238281 7.519531 8.140625 8.199219 7.820312 C 8.398438 8.140625 8.808594 8.65625 9.539062 9.011719 C 9.601562 9.042969 9.667969 9.058594 9.734375 9.058594 C 9.902344 9.058594 10.066406 8.964844 10.144531 8.804688 C 10.253906 8.578125 10.160156 8.308594 9.9375 8.199219 C 9.277344 7.875 8.992188 7.398438 8.910156 7.242188 L 8.910156 6.914062 C 8.90625 6.753906 8.949219 5.347656 10.640625 5.207031 C 10.488281 5.679688 10.542969 6.183594 10.8125 6.65625 C 10.898438 6.800781 11.050781 6.882812 11.207031 6.882812 C 11.285156 6.882812 11.359375 6.863281 11.433594 6.824219 C 11.648438 6.699219 11.726562 6.421875 11.601562 6.203125 C 11.390625 5.839844 11.417969 5.484375 11.679688 5.15625 C 11.777344 5.03125 11.800781 4.867188 11.753906 4.726562 C 12.011719 4.625 12.328125 4.535156 12.652344 4.535156 C 13.015625 4.535156 13.316406 4.644531 13.589844 4.871094 L 13.589844 7 C 13.558594 7.027344 13.523438 7.054688 13.5 7.09375 C 13.167969 7.539062 12.765625 8.03125 12.175781 8.164062 C 11.929688 8.21875 11.777344 8.460938 11.835938 8.707031 C 11.882812 8.917969 12.070312 9.058594 12.277344 9.058594 C 12.308594 9.058594 12.34375 9.054688 12.378906 9.046875 C 12.882812 8.933594 13.28125 8.664062 13.589844 8.375 L 13.589844 10.738281 C 13.492188 10.816406 13.421875 10.933594 13.410156 11.066406 C 13.40625 11.105469 13.328125 11.988281 12.089844 12.546875 C 11.863281 12.648438 11.761719 12.917969 11.863281 13.148438 C 11.9375 13.316406 12.105469 13.414062 12.277344 13.414062 C 12.339844 13.414062 12.402344 13.402344 12.460938 13.375 C 12.960938 13.148438 13.324219 12.875 13.589844 12.597656 L 13.589844 22.738281 C 13.4375 22.773438 13.296875 22.78125 13.167969 22.757812 L 12.714844 22.507812 C 12.625 22.421875 12.542969 22.3125 12.460938 22.175781 L 12.421875 22.109375 C 12.097656 21.566406 11.554688 20.65625 10.554688 20.964844 C 10.316406 21.039062 10.179688 21.292969 10.253906 21.535156 C 10.328125 21.773438 10.582031 21.90625 10.824219 21.832031 C 11.09375 21.75 11.296875 21.992188 11.640625 22.574219 L 11.683594 22.644531 C 12.09375 23.324219 12.664062 23.679688 13.332031 23.679688 C 13.417969 23.679688 13.503906 23.671875 13.589844 23.660156 L 13.589844 23.953125 C 13.382812 24.089844 13.027344 24.277344 12.835938 24.351562 C 12.59375 24.445312 12.316406 24.496094 12.035156 24.496094 C 11.515625 24.496094 11.050781 24.328125 10.757812 24.035156 C 10.539062 23.816406 10.339844 23.5625 10.128906 23.296875 C 9.609375 22.640625 9.023438 21.898438 8.015625 21.5 C 7.613281 21.339844 7.054688 20.820312 6.738281 20.320312 C 6.425781 19.820312 6.246094 19.140625 6.230469 18.414062 L 6.230469 18.003906 L 5.90625 17.738281 C 5.710938 17.570312 4.832031 16.699219 5.492188 15.304688 Z M 5.492188 15.304688 " fill-opacity="1" fill-rule="nonzero"/><path fill="#ffffff" d="M 9.113281 15.28125 C 9.128906 15.28125 9.144531 15.28125 9.160156 15.277344 C 9.410156 15.253906 9.589844 15.027344 9.5625 14.78125 C 9.515625 14.328125 9.675781 14.054688 10.054688 13.621094 C 10.808594 12.75 10.996094 11.953125 10.675781 10.957031 C 10.601562 10.71875 10.34375 10.585938 10.105469 10.664062 C 9.867188 10.738281 9.734375 10.992188 9.8125 11.234375 C 10.03125 11.925781 9.917969 12.394531 9.371094 13.023438 C 8.960938 13.496094 8.570312 14.027344 8.660156 14.875 C 8.6875 15.109375 8.882812 15.28125 9.113281 15.28125 Z M 9.113281 15.28125 " fill-opacity="1" fill-rule="nonzero"/><path fill="#ffffff" d="M 10.054688 19.636719 C 10.304688 19.636719 10.507812 19.433594 10.507812 19.183594 C 10.507812 18.933594 10.304688 18.730469 10.054688 18.730469 C 9.515625 18.730469 8.972656 18.195312 8.871094 18.042969 C 8.761719 17.832031 8.511719 17.738281 8.292969 17.832031 C 8.058594 17.925781 7.953125 18.191406 8.046875 18.425781 C 8.167969 18.707031 9.023438 19.636719 10.054688 19.636719 Z M 10.054688 19.636719 " fill-opacity="1" fill-rule="nonzero"/><path fill="#ffffff" d="M 11.957031 18.390625 C 12.070312 18.390625 12.179688 18.351562 12.269531 18.269531 C 12.453125 18.097656 12.460938 17.8125 12.289062 17.628906 C 11.402344 16.679688 11.917969 15.796875 11.980469 15.695312 C 12.117188 15.488281 12.058594 15.210938 11.851562 15.070312 C 11.640625 14.933594 11.359375 14.988281 11.222656 15.199219 C 10.871094 15.730469 10.503906 17.046875 11.628906 18.25 C 11.71875 18.34375 11.835938 18.390625 11.957031 18.390625 Z M 11.957031 18.390625 " fill-opacity="1" fill-rule="nonzero"/><path fill="#ffffff" d="M 22.320312 22.339844 C 22.976562 22.082031 23.667969 21.378906 24.027344 20.804688 C 24.464844 20.105469 24.660156 19.242188 24.675781 18.433594 C 24.675781 18.433594 26.578125 16.867188 25.09375 14.488281 C 25.09375 14.488281 25.96875 11.417969 23.726562 10.058594 C 23.726562 10.058594 23.671875 7.488281 22 6.921875 C 22 6.921875 22.015625 4.476562 19.375 4.296875 C 19.375 4.296875 18.441406 3.628906 17.347656 3.628906 C 16.734375 3.628906 16.074219 3.839844 15.5 4.492188 C 15.5 4.492188 15.5 24.234375 15.5 24.257812 C 15.5 24.589844 16.597656 25.101562 16.832031 25.195312 C 17.183594 25.332031 17.574219 25.402344 17.964844 25.402344 C 18.675781 25.402344 19.394531 25.167969 19.882812 24.675781 C 20.691406 23.867188 21.175781 22.796875 22.320312 22.339844 Z M 19.242188 24.035156 C 18.949219 24.328125 18.484375 24.496094 17.964844 24.496094 C 17.683594 24.496094 17.40625 24.445312 17.164062 24.351562 C 16.972656 24.277344 16.617188 24.089844 16.410156 23.953125 L 16.410156 23.660156 C 16.496094 23.671875 16.582031 23.679688 16.667969 23.679688 C 17.335938 23.679688 17.90625 23.324219 18.316406 22.644531 L 18.359375 22.574219 C 18.703125 21.992188 18.90625 21.75 19.175781 21.832031 C 19.417969 21.90625 19.671875 21.773438 19.746094 21.535156 C 19.820312 21.292969 19.683594 21.039062 19.445312 20.964844 C 18.445312 20.65625 17.902344 21.566406 17.578125 22.109375 L 17.539062 22.175781 C 17.457031 22.3125 17.375 22.421875 17.285156 22.507812 L 16.832031 22.757812 C 16.703125 22.78125 16.5625 22.773438 16.410156 22.738281 L 16.410156 12.597656 C 16.675781 12.875 17.039062 13.148438 17.539062 13.375 C 17.597656 13.402344 17.660156 13.414062 17.722656 13.414062 C 17.894531 13.414062 18.0625 13.316406 18.136719 13.148438 C 18.238281 12.917969 18.136719 12.648438 17.910156 12.546875 C 16.679688 11.992188 16.59375 11.117188 16.589844 11.070312 C 16.582031 10.929688 16.511719 10.808594 16.410156 10.730469 L 16.410156 8.375 C 16.71875 8.664062 17.117188 8.933594 17.621094 9.046875 C 17.65625 9.054688 17.691406 9.058594 17.722656 9.058594 C 17.929688 9.058594 18.117188 8.917969 18.164062 8.707031 C 18.222656 8.460938 18.066406 8.21875 17.824219 8.164062 C 17.234375 8.03125 16.832031 7.539062 16.5 7.09375 C 16.476562 7.054688 16.441406 7.027344 16.410156 7 L 16.410156 4.871094 C 16.683594 4.644531 16.988281 4.535156 17.347656 4.535156 C 17.671875 4.535156 17.988281 4.625 18.246094 4.726562 C 18.199219 4.867188 18.222656 5.027344 18.320312 5.15625 C 18.582031 5.484375 18.609375 5.839844 18.398438 6.203125 C 18.273438 6.421875 18.351562 6.699219 18.566406 6.824219 C 18.640625 6.863281 18.714844 6.882812 18.792969 6.882812 C 18.949219 6.882812 19.101562 6.800781 19.1875 6.65625 C 19.457031 6.179688 19.511719 5.679688 19.359375 5.207031 C 20.078125 5.265625 20.566406 5.539062 20.84375 6.042969 C 21.082031 6.472656 21.089844 6.914062 21.089844 6.914062 L 21.089844 7.242188 C 21.011719 7.394531 20.71875 7.878906 20.0625 8.199219 C 19.839844 8.308594 19.746094 8.578125 19.855469 8.804688 C 19.933594 8.964844 20.097656 9.058594 20.265625 9.058594 C 20.332031 9.058594 20.398438 9.042969 20.460938 9.011719 C 21.191406 8.65625 21.601562 8.144531 21.800781 7.824219 C 22.480469 8.140625 22.738281 9.238281 22.800781 9.839844 C 22.726562 9.914062 22.675781 10.015625 22.667969 10.128906 C 22.648438 10.417969 22.507812 11.328125 22.148438 11.722656 C 21.980469 11.910156 21.996094 12.195312 22.179688 12.363281 C 22.269531 12.441406 22.375 12.480469 22.484375 12.480469 C 22.609375 12.480469 22.730469 12.429688 22.820312 12.332031 C 23.160156 11.960938 23.347656 11.414062 23.453125 10.96875 C 24.621094 11.859375 24.371094 13.5625 24.257812 14.082031 C 24.128906 14.125 24.015625 14.21875 23.964844 14.359375 C 23.867188 14.621094 23.46875 15.425781 22.9375 15.65625 C 22.710938 15.757812 22.605469 16.023438 22.707031 16.253906 C 22.78125 16.425781 22.945312 16.523438 23.121094 16.523438 C 23.183594 16.523438 23.242188 16.511719 23.304688 16.488281 C 23.863281 16.242188 24.257812 15.726562 24.507812 15.304688 C 25.171875 16.699219 24.289062 17.566406 24.101562 17.730469 L 23.777344 17.996094 L 23.769531 18.414062 C 23.753906 19.144531 23.574219 19.820312 23.261719 20.320312 C 22.945312 20.820312 22.386719 21.339844 21.984375 21.5 C 20.976562 21.898438 20.390625 22.640625 19.871094 23.296875 C 19.660156 23.5625 19.460938 23.816406 19.242188 24.035156 Z M 19.242188 24.035156 " fill-opacity="1" fill-rule="nonzero"/><path fill="#ffffff" d="M 20.4375 14.78125 C 20.410156 15.027344 20.589844 15.253906 20.839844 15.277344 C 20.855469 15.28125 20.871094 15.28125 20.886719 15.28125 C 21.117188 15.28125 21.316406 15.109375 21.339844 14.875 C 21.429688 14.027344 21.039062 13.496094 20.628906 13.023438 C 20.082031 12.394531 19.96875 11.925781 20.1875 11.234375 C 20.265625 10.992188 20.132812 10.738281 19.894531 10.664062 C 19.65625 10.585938 19.398438 10.71875 19.324219 10.957031 C 19.003906 11.953125 19.191406 12.75 19.945312 13.621094 C 20.324219 14.054688 20.484375 14.328125 20.4375 14.78125 Z M 20.4375 14.78125 " fill-opacity="1" fill-rule="nonzero"/><path fill="#ffffff" d="M 21.953125 18.425781 C 22.046875 18.195312 21.941406 17.929688 21.710938 17.832031 C 21.488281 17.738281 21.238281 17.832031 21.128906 18.042969 C 21.027344 18.195312 20.484375 18.730469 19.945312 18.730469 C 19.695312 18.730469 19.492188 18.933594 19.492188 19.183594 C 19.492188 19.433594 19.695312 19.636719 19.945312 19.636719 C 20.976562 19.636719 21.832031 18.707031 21.953125 18.425781 Z M 21.953125 18.425781 " fill-opacity="1" fill-rule="nonzero"/><path fill="#ffffff" d="M 18.152344 15.070312 C 17.945312 15.207031 17.886719 15.488281 18.019531 15.695312 C 18.082031 15.792969 18.601562 16.675781 17.710938 17.628906 C 17.539062 17.8125 17.546875 18.097656 17.730469 18.269531 C 17.820312 18.351562 17.929688 18.390625 18.042969 18.390625 C 18.164062 18.390625 18.28125 18.34375 18.371094 18.25 C 19.496094 17.046875 19.128906 15.730469 18.777344 15.199219 C 18.640625 14.992188 18.363281 14.933594 18.152344 15.070312 Z M 18.152344 15.070312 " fill-opacity="1" fill-rule="nonzero"/><path fill="#ffffff" d="M 18.390625 26.773438 C 18.390625 26.523438 18.1875 26.320312 17.9375 26.320312 L 12.0625 26.320312 C 11.8125 26.320312 11.609375 26.523438 11.609375 26.773438 C 11.609375 27.023438 11.8125 27.226562 12.0625 27.226562 L 17.9375 27.226562 C 18.1875 27.226562 18.390625 27.023438 18.390625 26.773438 Z M 18.390625 26.773438 " fill-opacity="1" fill-rule="nonzero"/><g clip-path="url(#8c92dce7b0)"><path fill="#ffffff" d="M 13.277344 28.125 C 13.027344 28.125 12.824219 28.328125 12.824219 28.578125 C 12.824219 28.828125 13.027344 29.03125 13.277344 29.03125 L 16.722656 29.03125 C 16.972656 29.03125 17.175781 28.828125 17.175781 28.578125 C 17.175781 28.328125 16.972656 28.125 16.722656 28.125 Z M 13.277344 28.125 " fill-opacity="1" fill-rule="nonzero"/></g><path fill="#ffffff" d="M 15.453125 2.269531 L 15.453125 0.453125 C 15.453125 0.203125 15.25 0 15 0 C 14.75 0 14.546875 0.203125 14.546875 0.453125 L 14.546875 2.269531 C 14.546875 2.519531 14.75 2.722656 15 2.722656 C 15.25 2.722656 15.453125 2.519531 15.453125 2.269531 Z M 15.453125 2.269531 " fill-opacity="1" fill-rule="nonzero"/><g clip-path="url(#86e6f08f06)"><path fill="#ffffff" d="M 29.0625 14.0625 L 27.246094 14.0625 C 26.996094 14.0625 26.792969 14.265625 26.792969 14.515625 C 26.792969 14.765625 26.996094 14.96875 27.246094 14.96875 L 29.0625 14.96875 C 29.3125 14.96875 29.515625 14.765625 29.515625 14.515625 C 29.515625 14.265625 29.3125 14.0625 29.0625 14.0625 Z M 29.0625 14.0625 " fill-opacity="1" fill-rule="nonzero"/></g><g clip-path="url(#03a83fa5e5)"><path fill="#ffffff" d="M 0.9375 14.96875 L 2.753906 14.96875 C 3.003906 14.96875 3.207031 14.765625 3.207031 14.515625 C 3.207031 14.265625 3.003906 14.0625 2.753906 14.0625 L 0.9375 14.0625 C 0.6875 14.0625 0.484375 14.265625 0.484375 14.515625 C 0.484375 14.765625 0.6875 14.96875 0.9375 14.96875 Z M 0.9375 14.96875 " fill-opacity="1" fill-rule="nonzero"/></g><path fill="#ffffff" d="M 6.339844 6.308594 C 6.457031 6.308594 6.570312 6.265625 6.660156 6.175781 C 6.835938 6 6.835938 5.710938 6.660156 5.535156 L 5.378906 4.25 C 5.199219 4.074219 4.914062 4.074219 4.734375 4.25 C 4.558594 4.429688 4.558594 4.714844 4.734375 4.894531 L 6.019531 6.175781 C 6.105469 6.265625 6.222656 6.308594 6.339844 6.308594 Z M 6.339844 6.308594 " fill-opacity="1" fill-rule="nonzero"/><path fill="#ffffff" d="M 23.980469 6.175781 L 25.265625 4.894531 C 25.441406 4.714844 25.441406 4.429688 25.265625 4.25 C 25.085938 4.074219 24.800781 4.074219 24.621094 4.25 L 23.339844 5.535156 C 23.164062 5.710938 23.164062 6 23.339844 6.175781 C 23.429688 6.265625 23.542969 6.308594 23.660156 6.308594 C 23.777344 6.308594 23.894531 6.265625 23.980469 6.175781 Z M 23.980469 6.175781 " fill-opacity="1" fill-rule="nonzero"/><path fill="#ffffff" d="M 27.722656 8.507812 L 26.058594 9.230469 C 25.828125 9.328125 25.722656 9.597656 25.820312 9.828125 C 25.894531 9.996094 26.0625 10.101562 26.238281 10.101562 C 26.296875 10.101562 26.359375 10.089844 26.417969 10.0625 L 28.082031 9.339844 C 28.3125 9.242188 28.417969 8.972656 28.320312 8.746094 C 28.21875 8.515625 27.953125 8.410156 27.722656 8.507812 Z M 27.722656 8.507812 " fill-opacity="1" fill-rule="nonzero"/><path fill="#ffffff" d="M 1.816406 9.597656 L 3.496094 10.285156 C 3.554688 10.308594 3.613281 10.320312 3.667969 10.320312 C 3.847656 10.320312 4.015625 10.214844 4.089844 10.039062 C 4.183594 9.804688 4.074219 9.542969 3.839844 9.445312 L 2.164062 8.757812 C 1.929688 8.660156 1.664062 8.773438 1.570312 9.003906 C 1.476562 9.234375 1.585938 9.5 1.816406 9.597656 Z M 1.816406 9.597656 " fill-opacity="1" fill-rule="nonzero"/><path fill="#ffffff" d="M 10.441406 3.601562 C 10.496094 3.601562 10.554688 3.589844 10.609375 3.570312 C 10.839844 3.476562 10.953125 3.210938 10.859375 2.980469 L 10.183594 1.296875 C 10.09375 1.0625 9.828125 0.949219 9.59375 1.042969 C 9.363281 1.136719 9.25 1.402344 9.34375 1.632812 L 10.019531 3.316406 C 10.089844 3.496094 10.261719 3.601562 10.441406 3.601562 Z M 10.441406 3.601562 " fill-opacity="1" fill-rule="nonzero"/><path fill="#ffffff" d="M 20.035156 3.804688 C 20.207031 3.804688 20.375 3.707031 20.449219 3.539062 L 21.195312 1.882812 C 21.296875 1.65625 21.195312 1.386719 20.96875 1.285156 C 20.738281 1.179688 20.472656 1.28125 20.367188 1.511719 L 19.621094 3.164062 C 19.519531 3.394531 19.621094 3.660156 19.847656 3.765625 C 19.910156 3.792969 19.972656 3.804688 20.035156 3.804688 Z M 20.035156 3.804688 " fill-opacity="1" fill-rule="nonzero"/></svg>