<svg xmlns="http://www.w3.org/2000/svg" xmlns:xlink="http://www.w3.org/1999/xlink" width="40" zoomAndPan="magnify" viewBox="0 0 30 30.000001" height="40" preserveAspectRatio="xMidYMid meet" version="1.0"><defs><clipPath id="9021e2bac4"><path d="M 4 1 L 26.335938 1 L 26.335938 29.03125 L 4 29.03125 Z M 4 1 " clip-rule="nonzero"/></clipPath><clipPath id="a2dba228f1"><path d="M 22.496094 11.957031 C 22.011719 10.054688 21.558594 8.257812 20.773438 6.84375 C 18.542969 2.816406 13.820312 0.03125 8.304688 2.898438 C 5.550781 4.324219 3.847656 8.226562 4.15625 12.386719 C 4.519531 17.265625 6.890625 24.175781 12.457031 28.953125 C 12.496094 28.988281 12.546875 29.007812 12.601562 29.007812 L 26.121094 29.007812 C 26.238281 29.007812 26.335938 28.910156 26.335938 28.789062 L 26.335938 20.789062 C 26.335938 20.734375 26.316406 20.683594 26.28125 20.644531 C 24.066406 18.148438 23.234375 14.859375 22.496094 11.957031 Z M 25.902344 28.574219 L 12.679688 28.574219 C 7.257812 23.882812 4.945312 17.128906 4.589844 12.355469 C 4.242188 7.695312 6.375 4.382812 8.503906 3.28125 C 13.761719 0.550781 18.265625 3.210938 20.394531 7.054688 C 21.148438 8.417969 21.597656 10.1875 22.074219 12.0625 C 22.816406 14.988281 23.65625 18.304688 25.902344 20.867188 Z M 8.832031 20.890625 C 8.894531 20.996094 8.859375 21.128906 8.753906 21.1875 C 8.71875 21.207031 8.683594 21.21875 8.644531 21.21875 C 8.570312 21.21875 8.496094 21.179688 8.457031 21.109375 C 6.019531 16.960938 5.292969 12.542969 6.296875 7.980469 C 6.324219 7.863281 6.441406 7.789062 6.558594 7.816406 C 6.675781 7.839844 6.75 7.957031 6.722656 8.070312 C 5.742188 12.527344 6.453125 16.839844 8.832031 20.890625 Z M 7.585938 11.054688 C 7.589844 14.910156 8.742188 18.382812 11.011719 21.375 C 11.082031 21.472656 11.0625 21.605469 10.96875 21.679688 C 10.925781 21.707031 10.882812 21.722656 10.835938 21.722656 C 10.769531 21.722656 10.703125 21.691406 10.660156 21.636719 C 8.335938 18.566406 7.15625 15.003906 7.148438 11.054688 C 7.148438 10.933594 7.246094 10.839844 7.367188 10.835938 C 7.488281 10.835938 7.585938 10.933594 7.585938 11.054688 Z M 7.144531 10.1875 C 7.144531 10.136719 7.152344 9 7.769531 7.699219 C 7.820312 7.59375 7.949219 7.546875 8.058594 7.597656 C 8.167969 7.648438 8.214844 7.777344 8.164062 7.882812 C 7.589844 9.09375 7.582031 10.175781 7.582031 10.1875 C 7.582031 10.304688 7.484375 10.402344 7.363281 10.402344 C 7.242188 10.402344 7.144531 10.304688 7.144531 10.1875 Z M 8.652344 6.675781 C 8.558594 6.597656 8.546875 6.460938 8.625 6.367188 C 8.84375 6.109375 9.089844 5.871094 9.347656 5.652344 C 11.488281 3.871094 14 4.9375 14.109375 4.980469 C 14.21875 5.03125 14.269531 5.15625 14.21875 5.265625 C 14.171875 5.375 14.042969 5.425781 13.933594 5.378906 C 13.910156 5.367188 11.558594 4.378906 9.628906 5.984375 C 9.386719 6.1875 9.164062 6.410156 8.960938 6.648438 C 8.917969 6.699219 8.855469 6.726562 8.792969 6.726562 C 8.742188 6.726562 8.691406 6.707031 8.652344 6.675781 Z M 19.980469 15.289062 C 19.972656 15.289062 19.96875 15.289062 19.964844 15.289062 C 19.847656 15.289062 19.753906 15.203125 19.746094 15.089844 C 19.546875 12.320312 19.007812 10.191406 18.101562 8.589844 C 18.042969 8.484375 18.078125 8.351562 18.183594 8.292969 C 18.289062 8.234375 18.421875 8.273438 18.480469 8.375 C 19.421875 10.035156 19.976562 12.222656 20.179688 15.058594 C 20.191406 15.175781 20.097656 15.28125 19.980469 15.289062 Z M 15.679688 6.0625 C 15.574219 6 15.539062 5.867188 15.601562 5.765625 C 15.660156 5.664062 15.796875 5.628906 15.898438 5.6875 C 16.609375 6.101562 17.242188 6.652344 17.777344 7.324219 C 17.851562 7.417969 17.835938 7.554688 17.738281 7.628906 C 17.699219 7.660156 17.652344 7.675781 17.605469 7.675781 C 17.539062 7.675781 17.476562 7.648438 17.433594 7.59375 C 16.933594 6.960938 16.34375 6.449219 15.679688 6.0625 Z M 14.019531 3.785156 C 14.03125 3.664062 14.136719 3.578125 14.257812 3.589844 C 16.394531 3.796875 18.027344 4.832031 19.113281 6.664062 C 19.171875 6.765625 19.136719 6.898438 19.035156 6.960938 C 19 6.980469 18.960938 6.988281 18.921875 6.988281 C 18.847656 6.988281 18.777344 6.953125 18.734375 6.882812 C 17.722656 5.175781 16.203125 4.214844 14.21875 4.023438 C 14.097656 4.011719 14.007812 3.902344 14.019531 3.785156 Z M 18.796875 25.5 C 18.839844 25.613281 18.785156 25.738281 18.671875 25.78125 C 17.648438 26.171875 16.652344 26.363281 15.695312 26.363281 C 13.40625 26.363281 11.332031 25.261719 9.59375 23.085938 C 9.519531 22.992188 9.535156 22.855469 9.628906 22.78125 C 9.722656 22.707031 9.859375 22.722656 9.9375 22.816406 C 12.273438 25.738281 15.242188 26.625 18.515625 25.378906 C 18.628906 25.335938 18.753906 25.390625 18.796875 25.5 Z M 22.90625 19.816406 C 22.902344 19.695312 23 19.597656 23.121094 19.597656 C 23.238281 19.589844 23.339844 19.6875 23.34375 19.808594 C 23.375 21.835938 22.59375 23.515625 21.027344 24.804688 C 20.984375 24.835938 20.9375 24.851562 20.886719 24.851562 C 20.824219 24.851562 20.761719 24.828125 20.71875 24.773438 C 20.640625 24.683594 20.65625 24.546875 20.746094 24.46875 C 22.207031 23.269531 22.933594 21.707031 22.90625 19.816406 Z M 19.890625 8.246094 C 22.429688 13.328125 22.996094 18.050781 21.527344 21.898438 C 21.492188 21.984375 21.410156 22.039062 21.320312 22.039062 C 21.296875 22.039062 21.269531 22.035156 21.246094 22.027344 C 21.132812 21.984375 21.074219 21.859375 21.117188 21.746094 C 22.542969 18.011719 21.984375 13.410156 19.5 8.4375 C 19.445312 8.332031 19.488281 8.203125 19.597656 8.148438 C 19.707031 8.097656 19.835938 8.140625 19.890625 8.246094 Z M 20.738281 16.171875 C 20.824219 15.25 20.738281 14.3125 20.476562 13.390625 C 20.445312 13.277344 20.511719 13.15625 20.628906 13.125 C 20.742188 13.09375 20.863281 13.160156 20.898438 13.273438 C 21.171875 14.246094 21.265625 15.234375 21.171875 16.210938 C 21.164062 16.324219 21.066406 16.40625 20.957031 16.40625 C 20.949219 16.40625 20.941406 16.40625 20.9375 16.40625 C 20.816406 16.394531 20.726562 16.289062 20.738281 16.171875 Z M 20.894531 23.019531 C 20.625 23.808594 20.136719 24.335938 19.441406 24.585938 C 19.417969 24.597656 19.390625 24.601562 19.367188 24.601562 C 19.277344 24.601562 19.195312 24.546875 19.164062 24.460938 C 19.121094 24.347656 19.179688 24.222656 19.292969 24.179688 C 19.863281 23.972656 20.25 23.546875 20.480469 22.882812 C 20.519531 22.769531 20.644531 22.707031 20.757812 22.746094 C 20.871094 22.785156 20.933594 22.90625 20.894531 23.019531 Z M 18.015625 23.742188 C 18.121094 23.789062 18.171875 23.917969 18.125 24.023438 C 18.105469 24.066406 17.632812 25.085938 15.636719 25.085938 C 13.675781 25.085938 12.476562 23.582031 12.425781 23.515625 C 12.355469 23.421875 12.371094 23.285156 12.464844 23.214844 C 12.5625 23.140625 12.699219 23.15625 12.773438 23.25 C 12.78125 23.265625 13.894531 24.652344 15.636719 24.652344 C 17.324219 24.652344 17.710938 23.878906 17.726562 23.847656 C 17.777344 23.742188 17.90625 23.691406 18.015625 23.742188 Z M 10.851562 6.417969 C 9.207031 7.515625 8.71875 9.851562 8.609375 10.539062 C 8.585938 10.660156 8.664062 10.773438 8.785156 10.804688 C 8.90625 10.835938 9.027344 10.773438 9.070312 10.65625 C 9.410156 9.703125 10.765625 6.640625 13.722656 7.25 C 16.832031 7.894531 18.472656 13.4375 18.773438 14.542969 C 18.800781 14.648438 18.898438 14.71875 19.003906 14.71875 C 19.019531 14.71875 19.035156 14.71875 19.050781 14.714844 C 19.171875 14.691406 19.253906 14.578125 19.238281 14.453125 C 19.089844 13.207031 18.128906 6.945312 13.957031 5.972656 C 12.757812 5.695312 11.714844 5.84375 10.851562 6.417969 Z M 18.125 11.410156 C 17.242188 9.421875 15.832031 7.246094 13.808594 6.828125 C 13.523438 6.769531 13.25 6.738281 12.984375 6.738281 C 11.539062 6.738281 10.40625 7.566406 9.605469 8.679688 C 9.921875 7.972656 10.394531 7.246094 11.09375 6.78125 C 11.851562 6.273438 12.78125 6.144531 13.859375 6.394531 C 16.195312 6.9375 17.460938 9.332031 18.125 11.410156 Z M 19.824219 16.90625 C 19.792969 16.761719 19.660156 16.667969 19.515625 16.683594 C 19.367188 16.699219 19.257812 16.816406 19.257812 16.964844 C 19.242188 18.105469 18.980469 20.863281 16.855469 21.855469 C 14.785156 22.820312 12.289062 20.164062 11.3125 18.980469 C 11.214844 18.863281 11.050781 18.839844 10.925781 18.925781 C 10.800781 19.015625 10.765625 19.175781 10.84375 19.304688 C 11.695312 20.710938 13.75 23.601562 16.292969 23.601562 C 16.726562 23.601562 17.171875 23.515625 17.628906 23.328125 C 20.617188 22.09375 20.160156 18.425781 19.824219 16.90625 Z M 17.460938 22.929688 C 15.464844 23.75 13.648438 22.269531 12.417969 20.785156 C 13.746094 21.988281 15.453125 22.988281 17.039062 22.246094 C 18.769531 21.441406 19.382812 19.621094 19.59375 18.230469 C 19.746094 19.847656 19.535156 22.074219 17.460938 22.929688 Z M 9.726562 16.996094 C 8.832031 15.179688 8.417969 13.339844 8.5 11.519531 C 8.503906 11.402344 8.609375 11.308594 8.726562 11.3125 C 8.847656 11.320312 8.941406 11.421875 8.9375 11.539062 C 8.855469 13.285156 9.253906 15.054688 10.117188 16.804688 C 10.171875 16.910156 10.125 17.042969 10.019531 17.09375 C 9.988281 17.109375 9.953125 17.117188 9.921875 17.117188 C 9.84375 17.117188 9.765625 17.070312 9.726562 16.996094 Z M 14.105469 11.035156 C 14.042969 11.132812 13.90625 11.164062 13.804688 11.097656 C 13.792969 11.089844 13.257812 10.761719 12.742188 10.898438 C 12.457031 10.976562 12.222656 11.191406 12.042969 11.535156 C 11.496094 12.597656 12.566406 15.417969 13.027344 16.414062 C 13.078125 16.523438 13.03125 16.652344 12.917969 16.703125 C 12.890625 16.714844 12.859375 16.722656 12.828125 16.722656 C 12.746094 16.722656 12.667969 16.675781 12.628906 16.59375 C 12.558594 16.441406 10.898438 12.804688 11.65625 11.339844 C 11.890625 10.878906 12.222656 10.589844 12.632812 10.480469 C 13.339844 10.292969 14.011719 10.714844 14.042969 10.734375 C 14.140625 10.800781 14.171875 10.933594 14.105469 11.035156 Z M 14.238281 13.066406 C 14.246094 13.1875 14.160156 13.292969 14.039062 13.300781 C 13.914062 13.308594 13.8125 13.222656 13.804688 13.105469 C 13.777344 12.816406 13.664062 12.347656 13.492188 12.25 C 13.476562 12.238281 13.441406 12.21875 13.359375 12.257812 C 13.050781 12.398438 13.242188 13.296875 13.46875 13.855469 C 13.515625 13.964844 13.460938 14.09375 13.347656 14.136719 C 13.320312 14.148438 13.292969 14.152344 13.265625 14.152344 C 13.179688 14.152344 13.097656 14.101562 13.0625 14.015625 C 12.945312 13.722656 12.382812 12.230469 13.175781 11.867188 C 13.414062 11.753906 13.601562 11.808594 13.714844 11.875 C 14.136719 12.117188 14.222656 12.910156 14.238281 13.066406 Z M 15.242188 12.015625 C 15.257812 13.332031 14.804688 14.4375 13.886719 15.296875 C 13.84375 15.339844 13.792969 15.359375 13.738281 15.359375 C 13.679688 15.359375 13.621094 15.335938 13.578125 15.289062 C 13.496094 15.203125 13.5 15.066406 13.585938 14.984375 C 14.421875 14.199219 14.820312 13.230469 14.804688 12.019531 C 14.804688 11.902344 14.902344 11.804688 15.019531 11.800781 C 15.023438 11.800781 15.023438 11.800781 15.023438 11.800781 C 15.144531 11.800781 15.242188 11.898438 15.242188 12.015625 Z M 12.378906 19.164062 C 12.40625 19.164062 12.4375 19.160156 12.464844 19.144531 C 12.570312 19.101562 12.621094 18.984375 12.582031 18.878906 C 12.566406 18.824219 10.753906 13.589844 10.8125 11.683594 C 10.867188 9.8125 11.777344 8.625 11.785156 8.613281 C 11.839844 8.542969 11.847656 8.441406 11.796875 8.367188 C 11.746094 8.289062 11.652344 8.25 11.5625 8.269531 C 11.488281 8.289062 9.710938 8.722656 9.546875 11.398438 C 9.386719 13.960938 12.070312 18.84375 12.1875 19.050781 C 12.226562 19.125 12.300781 19.164062 12.378906 19.164062 Z M 9.984375 11.425781 C 10.066406 10.082031 10.589844 9.382812 11.03125 9.03125 C 10.746094 9.601562 10.410156 10.507812 10.375 11.667969 C 10.34375 12.695312 10.804688 14.570312 11.269531 16.167969 C 10.585938 14.597656 9.90625 12.683594 9.984375 11.425781 Z M 15.566406 20.261719 C 15.65625 20.261719 15.75 20.253906 15.84375 20.242188 C 16.304688 20.175781 16.652344 19.96875 16.875 19.621094 C 17.410156 18.796875 17.023438 17.480469 17.007812 17.425781 C 16.976562 17.328125 16.886719 17.265625 16.785156 17.269531 C 16.683594 17.277344 16.601562 17.347656 16.582031 17.449219 C 16.515625 17.820312 16.207031 18.832031 15.621094 19.042969 C 15.105469 19.222656 13.945312 18.402344 13.335938 17.84375 C 13.261719 17.773438 13.148438 17.765625 13.0625 17.824219 C 12.980469 17.882812 12.945312 17.992188 12.988281 18.085938 C 13.027344 18.179688 13.921875 20.261719 15.566406 20.261719 Z M 15.769531 19.449219 C 16.222656 19.285156 16.527344 18.84375 16.71875 18.425781 C 16.730469 18.753906 16.683594 19.117188 16.507812 19.390625 C 16.351562 19.628906 16.117188 19.765625 15.785156 19.8125 C 15.019531 19.921875 14.410156 19.421875 13.996094 18.910156 C 14.566406 19.289062 15.265625 19.628906 15.769531 19.449219 Z M 17.792969 16.742188 C 17.808594 16.742188 17.820312 16.738281 17.835938 16.738281 C 17.992188 16.71875 18.105469 16.582031 18.101562 16.425781 C 18.019531 14.234375 17.566406 10.359375 15.429688 9.015625 C 13.796875 7.992188 12.328125 9.035156 11.597656 9.75 C 11.484375 9.859375 11.472656 10.027344 11.570312 10.148438 C 11.664062 10.273438 11.832031 10.304688 11.964844 10.226562 C 12.617188 9.847656 13.644531 9.554688 14.855469 10.3125 C 16.152344 11.125 17.136719 14.914062 17.496094 16.503906 C 17.527344 16.644531 17.652344 16.742188 17.792969 16.742188 Z M 15.085938 9.945312 C 14.453125 9.546875 13.859375 9.402344 13.332031 9.402344 C 13.066406 9.402344 12.816406 9.4375 12.589844 9.5 C 13.3125 9.019531 14.226562 8.773438 15.195312 9.382812 C 16.761719 10.363281 17.339844 12.996094 17.554688 14.933594 C 17.015625 12.972656 16.175781 10.628906 15.085938 9.945312 Z M 14.988281 17.496094 C 15.703125 16.4375 16.011719 15.167969 15.902344 13.730469 C 15.894531 13.613281 15.984375 13.507812 16.105469 13.5 C 16.222656 13.492188 16.328125 13.578125 16.339844 13.699219 C 16.453125 15.234375 16.121094 16.59375 15.351562 17.738281 C 15.3125 17.800781 15.242188 17.835938 15.171875 17.835938 C 15.128906 17.835938 15.089844 17.824219 15.050781 17.796875 C 14.949219 17.730469 14.921875 17.597656 14.988281 17.496094 Z M 15.652344 14.132812 C 15.515625 15.226562 15.011719 16.167969 14.144531 16.933594 C 14.105469 16.96875 14.050781 16.988281 14 16.988281 C 13.941406 16.988281 13.882812 16.960938 13.839844 16.914062 C 13.757812 16.824219 13.765625 16.6875 13.855469 16.609375 C 14.636719 15.917969 15.097656 15.066406 15.21875 14.082031 C 15.234375 13.960938 15.339844 13.875 15.460938 13.894531 C 15.582031 13.90625 15.667969 14.015625 15.652344 14.132812 Z M 15.652344 14.132812 " clip-rule="nonzero"/></clipPath></defs><g clip-path="url(#9021e2bac4)"><g clip-path="url(#a2dba228f1)"><path fill="#000000" d="M 3.847656 0.03125 L 3.847656 29.007812 L 26.335938 29.007812 L 26.335938 0.03125 Z M 3.847656 0.03125 " fill-opacity="1" fill-rule="nonzero"/></g></g></svg>