<svg xmlns="http://www.w3.org/2000/svg" xmlns:xlink="http://www.w3.org/1999/xlink" width="40" zoomAndPan="magnify" viewBox="0 0 30 30.000001" height="40" preserveAspectRatio="xMidYMid meet" version="1.0"><defs><clipPath id="3460c32e6d"><path d="M 0.484375 0 L 29.515625 0 L 29.515625 29.03125 L 0.484375 29.03125 Z M 0.484375 0 " clip-rule="nonzero"/></clipPath><clipPath id="37deab0942"><path d="M 7.039062 5.152344 L 7.039062 5.621094 L 6.101562 5.621094 L 6.101562 5.152344 C 6.101562 4.890625 5.894531 4.683594 5.632812 4.683594 L 5.167969 4.683594 L 5.167969 5.152344 C 5.167969 5.410156 5.375 5.621094 5.632812 5.621094 C 6.410156 5.621094 7.039062 6.25 7.039062 7.023438 L 7.039062 8.429688 L 6.101562 8.429688 L 6.101562 9.367188 L 5.167969 9.367188 L 5.167969 8.34375 C 4.621094 8.148438 4.230469 7.632812 4.230469 7.023438 L 4.230469 6.554688 L 5.167969 6.554688 L 5.167969 7.023438 C 5.167969 7.28125 5.375 7.492188 5.632812 7.492188 L 6.101562 7.492188 L 6.101562 7.023438 C 6.101562 6.765625 5.894531 6.554688 5.632812 6.554688 C 4.859375 6.554688 4.230469 5.925781 4.230469 5.152344 L 4.230469 3.746094 L 5.167969 3.746094 L 5.167969 2.808594 L 6.101562 2.808594 L 6.101562 3.832031 C 6.648438 4.027344 7.039062 4.542969 7.039062 5.152344 Z M 27.484375 8.429688 L 29.515625 8.429688 L 29.515625 13.113281 L 27.484375 13.113281 L 29.242188 14.128906 L 26.902344 18.183594 L 24.992188 17.078125 L 25.914062 18.902344 L 24.640625 19.695312 C 25.285156 19.824219 25.769531 20.390625 25.769531 21.070312 C 25.769531 21.847656 25.140625 22.476562 24.367188 22.476562 L 22.875 22.476562 C 22.8125 22.652344 22.71875 22.808594 22.59375 22.945312 C 22.820312 23.195312 22.960938 23.519531 22.960938 23.882812 C 22.960938 24.242188 22.820312 24.570312 22.59375 24.816406 C 22.820312 25.066406 22.960938 25.394531 22.960938 25.753906 C 22.960938 26.527344 22.332031 27.160156 21.554688 27.160156 L 21.085938 27.160156 L 21.085938 27.628906 C 21.085938 28.402344 20.457031 29.03125 19.683594 29.03125 L 18.746094 29.03125 C 18.136719 29.03125 17.621094 28.640625 17.425781 28.097656 L 15.582031 28.097656 C 14.375 28.097656 13.234375 27.691406 12.304688 26.949219 C 12.144531 27.078125 11.945312 27.160156 11.722656 27.160156 L 2.355469 27.160156 L 2.355469 20.605469 L 11.722656 20.605469 C 11.890625 20.605469 12.046875 20.652344 12.183594 20.730469 C 12.429688 20.421875 12.714844 20.148438 13.023438 19.902344 L 11.332031 18.925781 L 12.347656 17.167969 L 10.589844 18.183594 L 8.246094 14.128906 L 10.007812 13.113281 L 7.976562 13.113281 L 7.976562 10.667969 C 7.273438 11.03125 6.476562 11.238281 5.632812 11.238281 C 2.792969 11.238281 0.484375 8.925781 0.484375 6.085938 C 0.484375 3.246094 2.792969 0.9375 5.632812 0.9375 C 7.6875 0.9375 9.457031 2.144531 10.285156 3.886719 L 10.589844 3.355469 L 12.351562 4.375 L 11.332031 2.613281 L 15.386719 0.273438 L 16.40625 2.03125 L 16.40625 0 L 21.085938 0 L 21.085938 2.03125 L 22.105469 0.273438 L 26.160156 2.613281 L 25.140625 4.375 L 26.902344 3.359375 L 29.242188 7.414062 Z M 11.722656 21.539062 L 3.292969 21.539062 L 3.292969 26.222656 L 11.722656 26.222656 Z M 5.632812 10.300781 C 7.957031 10.300781 9.847656 8.410156 9.847656 6.085938 C 9.847656 3.761719 7.957031 1.875 5.632812 1.875 C 3.3125 1.875 1.421875 3.761719 1.421875 6.085938 C 1.421875 8.410156 3.3125 10.300781 5.632812 10.300781 Z M 15.582031 27.160156 L 17.339844 27.160156 L 17.339844 26.363281 L 17.304688 26.308594 C 16.832031 25.601562 16.128906 25.0625 15.320312 24.792969 L 15.617188 23.90625 C 16.257812 24.121094 16.847656 24.472656 17.339844 24.925781 L 17.339844 22.816406 L 17.023438 22.921875 L 16.726562 22.035156 L 17.136719 21.894531 C 17.660156 21.722656 18.082031 21.355469 18.328125 20.863281 L 18.457031 20.605469 L 20.152344 20.605469 C 20.667969 20.605469 21.085938 20.183594 21.085938 19.667969 L 16.324219 19.667969 C 14.84375 19.667969 13.453125 20.441406 12.660156 21.683594 L 12.660156 26.015625 C 13.457031 26.75 14.488281 27.160156 15.582031 27.160156 Z M 22.023438 22.007812 C 22.023438 21.75 21.8125 21.539062 21.554688 21.539062 L 20.621094 21.539062 C 20.359375 21.539062 20.152344 21.75 20.152344 22.007812 C 20.152344 22.265625 20.359375 22.476562 20.621094 22.476562 L 21.554688 22.476562 C 21.8125 22.476562 22.023438 22.265625 22.023438 22.007812 Z M 21.554688 23.414062 L 20.621094 23.414062 C 20.359375 23.414062 20.152344 23.621094 20.152344 23.882812 C 20.152344 24.140625 20.359375 24.351562 20.621094 24.351562 L 21.554688 24.351562 C 21.8125 24.351562 22.023438 24.140625 22.023438 23.882812 C 22.023438 23.621094 21.8125 23.414062 21.554688 23.414062 Z M 20.152344 27.628906 L 20.152344 27.074219 C 19.605469 26.878906 19.214844 26.363281 19.214844 25.753906 C 19.214844 25.394531 19.355469 25.066406 19.578125 24.816406 C 19.355469 24.570312 19.214844 24.242188 19.214844 23.882812 C 19.214844 23.519531 19.355469 23.195312 19.578125 22.945312 C 19.355469 22.695312 19.214844 22.371094 19.214844 22.007812 C 19.214844 21.84375 19.25 21.6875 19.300781 21.539062 L 19.019531 21.539062 C 18.824219 21.851562 18.570312 22.121094 18.277344 22.335938 L 18.277344 27.628906 C 18.277344 27.886719 18.488281 28.097656 18.746094 28.097656 L 19.683594 28.097656 C 19.941406 28.097656 20.152344 27.886719 20.152344 27.628906 Z M 22.023438 25.753906 C 22.023438 25.496094 21.8125 25.285156 21.554688 25.285156 L 20.621094 25.285156 C 20.359375 25.285156 20.152344 25.496094 20.152344 25.753906 C 20.152344 26.011719 20.359375 26.222656 20.621094 26.222656 L 21.554688 26.222656 C 21.8125 26.222656 22.023438 26.011719 22.023438 25.753906 Z M 23.1875 20.605469 L 22.539062 21.007812 C 22.691406 21.15625 22.800781 21.339844 22.875 21.539062 L 24.367188 21.539062 C 24.625 21.539062 24.832031 21.332031 24.832031 21.070312 C 24.832031 20.8125 24.625 20.605469 24.367188 20.605469 Z M 27.484375 9.367188 C 27.054688 9.367188 26.691406 9.085938 26.578125 8.671875 C 26.46875 8.257812 26.644531 7.832031 27.015625 7.617188 L 27.964844 7.070312 L 26.558594 4.636719 L 25.609375 5.183594 C 25.238281 5.402344 24.785156 5.339844 24.480469 5.035156 C 24.175781 4.730469 24.117188 4.277344 24.332031 3.90625 L 24.878906 2.957031 L 22.445312 1.550781 L 21.898438 2.5 C 21.683594 2.875 21.261719 3.050781 20.84375 2.9375 C 20.429688 2.824219 20.152344 2.460938 20.152344 2.03125 L 20.152344 0.9375 L 17.339844 0.9375 L 17.339844 2.03125 C 17.339844 2.460938 17.0625 2.824219 16.648438 2.9375 C 16.234375 3.050781 15.808594 2.875 15.59375 2.5 L 15.046875 1.550781 L 12.613281 2.957031 L 13.160156 3.90625 C 13.375 4.277344 13.316406 4.730469 13.011719 5.035156 C 12.707031 5.339844 12.253906 5.398438 11.882812 5.183594 L 10.933594 4.636719 L 10.683594 5.066406 C 10.75 5.398438 10.785156 5.738281 10.785156 6.085938 C 10.785156 7.683594 10.054688 9.113281 8.914062 10.058594 L 8.914062 12.175781 L 10.007812 12.175781 C 10.4375 12.175781 10.800781 12.453125 10.914062 12.867188 C 11.023438 13.285156 10.847656 13.707031 10.476562 13.921875 L 9.527344 14.46875 L 10.933594 16.902344 L 11.882812 16.355469 C 12.253906 16.140625 12.707031 16.199219 13.011719 16.503906 C 13.316406 16.808594 13.375 17.261719 13.160156 17.632812 L 12.613281 18.582031 L 13.90625 19.328125 C 14.644531 18.949219 15.472656 18.730469 16.324219 18.730469 L 21.085938 18.730469 C 21.605469 18.730469 22.023438 19.152344 22.023438 19.667969 C 22.023438 19.890625 21.976562 20.101562 21.90625 20.300781 L 24.691406 18.558594 L 24.15625 17.5 C 23.964844 17.128906 24.042969 16.6875 24.347656 16.398438 C 24.648438 16.113281 25.097656 16.058594 25.460938 16.269531 L 26.558594 16.902344 L 27.964844 14.472656 L 27.015625 13.921875 C 26.644531 13.707031 26.46875 13.285156 26.578125 12.867188 C 26.691406 12.453125 27.054688 12.175781 27.484375 12.175781 L 28.578125 12.175781 L 28.578125 9.367188 Z M 26.238281 10.769531 C 26.238281 14.902344 22.878906 18.261719 18.746094 18.261719 C 14.613281 18.261719 11.253906 14.902344 11.253906 10.769531 C 11.253906 6.640625 14.613281 3.277344 18.746094 3.277344 C 22.878906 3.277344 26.238281 6.640625 26.238281 10.769531 Z M 15.46875 12.175781 L 14.53125 12.175781 L 14.53125 15.785156 C 14.824219 16.027344 15.136719 16.246094 15.46875 16.4375 Z M 18.746094 17.324219 C 18.90625 17.324219 19.058594 17.3125 19.214844 17.300781 L 19.214844 10.300781 L 18.277344 10.300781 L 18.277344 17.300781 C 18.433594 17.3125 18.585938 17.324219 18.746094 17.324219 Z M 22.960938 8.429688 L 22.023438 8.429688 L 22.023438 16.4375 C 22.355469 16.246094 22.667969 16.03125 22.960938 15.785156 Z M 25.300781 10.769531 C 25.300781 7.15625 22.359375 4.214844 18.746094 4.214844 C 15.132812 4.214844 12.191406 7.15625 12.191406 10.769531 C 12.191406 12.296875 12.71875 13.695312 13.59375 14.8125 L 13.59375 12.175781 C 13.59375 11.660156 14.015625 11.238281 14.53125 11.238281 L 15.46875 11.238281 C 15.984375 11.238281 16.40625 11.660156 16.40625 12.175781 L 16.40625 16.886719 C 16.707031 17.003906 17.019531 17.097656 17.339844 17.171875 L 17.339844 10.300781 C 17.339844 9.785156 17.761719 9.367188 18.277344 9.367188 L 19.214844 9.367188 C 19.730469 9.367188 20.152344 9.785156 20.152344 10.300781 L 20.152344 17.171875 C 20.472656 17.097656 20.785156 17.003906 21.085938 16.886719 L 21.085938 8.429688 C 21.085938 7.914062 21.507812 7.492188 22.023438 7.492188 L 22.960938 7.492188 C 23.476562 7.492188 23.898438 7.914062 23.898438 8.429688 L 23.898438 14.8125 C 24.773438 13.695312 25.300781 12.296875 25.300781 10.769531 Z M 1.421875 13.113281 L 1.421875 14.046875 L 3.292969 14.046875 L 3.292969 13.113281 Z M 7.039062 13.113281 L 4.230469 13.113281 L 4.230469 14.046875 L 7.039062 14.046875 Z M 1.421875 15.921875 L 7.039062 15.921875 L 7.039062 14.984375 L 1.421875 14.984375 Z M 1.421875 17.792969 L 7.039062 17.792969 L 7.039062 16.859375 L 1.421875 16.859375 Z M 1.421875 19.667969 L 2.355469 19.667969 L 2.355469 18.730469 L 1.421875 18.730469 Z M 4.230469 19.667969 L 4.230469 18.730469 L 3.292969 18.730469 L 3.292969 19.667969 Z M 6.101562 19.667969 L 6.101562 18.730469 L 5.167969 18.730469 L 5.167969 19.667969 Z M 6.101562 19.667969 " clip-rule="nonzero"/></clipPath><linearGradient x1="31" gradientTransform="matrix(0.468262, 0, 0, 0.468262, 0.48387, 0.00000193548)" y1="61.999999" x2="31" gradientUnits="userSpaceOnUse" y2="0" id="6c1e7d17dd"><stop stop-opacity="1" stop-color="rgb(0%, 74.899292%, 16.499329%)" offset="0"/><stop stop-opacity="1" stop-color="rgb(0%, 74.633789%, 16.712952%)" offset="0.00390625"/><stop stop-opacity="1" stop-color="rgb(0%, 74.369812%, 16.928101%)" offset="0.0078125"/><stop stop-opacity="1" stop-color="rgb(0%, 74.104309%, 17.141724%)" offset="0.0117188"/><stop stop-opacity="1" stop-color="rgb(0%, 73.840332%, 17.356873%)" offset="0.015625"/><stop stop-opacity="1" stop-color="rgb(0%, 73.574829%, 17.570496%)" offset="0.0195312"/><stop stop-opacity="1" stop-color="rgb(0%, 73.310852%, 17.785645%)" offset="0.0234375"/><stop stop-opacity="1" stop-color="rgb(0%, 73.045349%, 17.999268%)" offset="0.0273438"/><stop stop-opacity="1" stop-color="rgb(0%, 72.779846%, 18.214417%)" offset="0.03125"/><stop stop-opacity="1" stop-color="rgb(0%, 72.514343%, 18.42804%)" offset="0.0351562"/><stop stop-opacity="1" stop-color="rgb(0%, 72.250366%, 18.643188%)" offset="0.0390625"/><stop stop-opacity="1" stop-color="rgb(0%, 71.984863%, 18.856812%)" offset="0.0429688"/><stop stop-opacity="1" stop-color="rgb(0%, 71.720886%, 19.07196%)" offset="0.046875"/><stop stop-opacity="1" stop-color="rgb(0%, 71.455383%, 19.287109%)" offset="0.0507813"/><stop stop-opacity="1" stop-color="rgb(0%, 71.191406%, 19.502258%)" offset="0.0546875"/><stop stop-opacity="1" stop-color="rgb(0%, 70.925903%, 19.715881%)" offset="0.0585938"/><stop stop-opacity="1" stop-color="rgb(0%, 70.661926%, 19.93103%)" offset="0.0625"/><stop stop-opacity="1" stop-color="rgb(0%, 70.396423%, 20.144653%)" offset="0.0664063"/><stop stop-opacity="1" stop-color="rgb(0%, 70.132446%, 20.359802%)" offset="0.0703125"/><stop stop-opacity="1" stop-color="rgb(0%, 69.866943%, 20.573425%)" offset="0.0742188"/><stop stop-opacity="1" stop-color="rgb(0%, 69.602966%, 20.788574%)" offset="0.078125"/><stop stop-opacity="1" stop-color="rgb(0%, 69.337463%, 21.002197%)" offset="0.0820313"/><stop stop-opacity="1" stop-color="rgb(0%, 69.07196%, 21.217346%)" offset="0.0859375"/><stop stop-opacity="1" stop-color="rgb(0%, 68.806458%, 21.430969%)" offset="0.0898438"/><stop stop-opacity="1" stop-color="rgb(0%, 68.54248%, 21.646118%)" offset="0.09375"/><stop stop-opacity="1" stop-color="rgb(0%, 68.276978%, 21.859741%)" offset="0.0976563"/><stop stop-opacity="1" stop-color="rgb(0%, 68.013%, 22.07489%)" offset="0.101563"/><stop stop-opacity="1" stop-color="rgb(0%, 67.747498%, 22.288513%)" offset="0.105469"/><stop stop-opacity="1" stop-color="rgb(0%, 67.483521%, 22.503662%)" offset="0.109375"/><stop stop-opacity="1" stop-color="rgb(0%, 67.218018%, 22.717285%)" offset="0.113281"/><stop stop-opacity="1" stop-color="rgb(0%, 66.954041%, 22.932434%)" offset="0.117188"/><stop stop-opacity="1" stop-color="rgb(0%, 66.688538%, 23.146057%)" offset="0.121094"/><stop stop-opacity="1" stop-color="rgb(0%, 66.424561%, 23.361206%)" offset="0.125"/><stop stop-opacity="1" stop-color="rgb(0%, 66.159058%, 23.574829%)" offset="0.128906"/><stop stop-opacity="1" stop-color="rgb(0%, 65.895081%, 23.789978%)" offset="0.132813"/><stop stop-opacity="1" stop-color="rgb(0%, 65.629578%, 24.005127%)" offset="0.136719"/><stop stop-opacity="1" stop-color="rgb(0%, 65.365601%, 24.220276%)" offset="0.140625"/><stop stop-opacity="1" stop-color="rgb(0%, 65.100098%, 24.433899%)" offset="0.144531"/><stop stop-opacity="1" stop-color="rgb(0%, 64.834595%, 24.649048%)" offset="0.148438"/><stop stop-opacity="1" stop-color="rgb(0%, 64.569092%, 24.862671%)" offset="0.152344"/><stop stop-opacity="1" stop-color="rgb(0%, 64.305115%, 25.07782%)" offset="0.15625"/><stop stop-opacity="1" stop-color="rgb(0%, 64.039612%, 25.291443%)" offset="0.160156"/><stop stop-opacity="1" stop-color="rgb(0%, 63.775635%, 25.506592%)" offset="0.164063"/><stop stop-opacity="1" stop-color="rgb(0%, 63.510132%, 25.720215%)" offset="0.167969"/><stop stop-opacity="1" stop-color="rgb(0%, 63.246155%, 25.935364%)" offset="0.171875"/><stop stop-opacity="1" stop-color="rgb(0%, 62.980652%, 26.148987%)" offset="0.175781"/><stop stop-opacity="1" stop-color="rgb(0%, 62.716675%, 26.364136%)" offset="0.179688"/><stop stop-opacity="1" stop-color="rgb(0%, 62.451172%, 26.577759%)" offset="0.183594"/><stop stop-opacity="1" stop-color="rgb(0%, 62.187195%, 26.792908%)" offset="0.1875"/><stop stop-opacity="1" stop-color="rgb(0%, 61.921692%, 27.006531%)" offset="0.191406"/><stop stop-opacity="1" stop-color="rgb(0%, 61.657715%, 27.22168%)" offset="0.195313"/><stop stop-opacity="1" stop-color="rgb(0%, 61.392212%, 27.435303%)" offset="0.199219"/><stop stop-opacity="1" stop-color="rgb(0%, 61.126709%, 27.650452%)" offset="0.203125"/><stop stop-opacity="1" stop-color="rgb(0%, 60.861206%, 27.864075%)" offset="0.207031"/><stop stop-opacity="1" stop-color="rgb(0%, 60.597229%, 28.079224%)" offset="0.210938"/><stop stop-opacity="1" stop-color="rgb(0%, 60.331726%, 28.292847%)" offset="0.214844"/><stop stop-opacity="1" stop-color="rgb(0%, 60.067749%, 28.507996%)" offset="0.21875"/><stop stop-opacity="1" stop-color="rgb(0%, 59.802246%, 28.721619%)" offset="0.222656"/><stop stop-opacity="1" stop-color="rgb(0%, 59.538269%, 28.936768%)" offset="0.226563"/><stop stop-opacity="1" stop-color="rgb(0%, 59.272766%, 29.151917%)" offset="0.230469"/><stop stop-opacity="1" stop-color="rgb(0%, 59.008789%, 29.367065%)" offset="0.234375"/><stop stop-opacity="1" stop-color="rgb(0%, 58.743286%, 29.580688%)" offset="0.238281"/><stop stop-opacity="1" stop-color="rgb(0%, 58.479309%, 29.795837%)" offset="0.242188"/><stop stop-opacity="1" stop-color="rgb(0%, 58.213806%, 30.00946%)" offset="0.246094"/><stop stop-opacity="1" stop-color="rgb(0%, 57.949829%, 30.224609%)" offset="0.25"/><stop stop-opacity="1" stop-color="rgb(0%, 57.684326%, 30.438232%)" offset="0.253906"/><stop stop-opacity="1" stop-color="rgb(0%, 57.418823%, 30.653381%)" offset="0.257813"/><stop stop-opacity="1" stop-color="rgb(0%, 57.15332%, 30.867004%)" offset="0.261719"/><stop stop-opacity="1" stop-color="rgb(0%, 56.889343%, 31.082153%)" offset="0.265625"/><stop stop-opacity="1" stop-color="rgb(0%, 56.62384%, 31.295776%)" offset="0.269531"/><stop stop-opacity="1" stop-color="rgb(0%, 56.359863%, 31.510925%)" offset="0.273438"/><stop stop-opacity="1" stop-color="rgb(0%, 56.09436%, 31.724548%)" offset="0.277344"/><stop stop-opacity="1" stop-color="rgb(0%, 55.830383%, 31.939697%)" offset="0.28125"/><stop stop-opacity="1" stop-color="rgb(0%, 55.56488%, 32.15332%)" offset="0.285156"/><stop stop-opacity="1" stop-color="rgb(0%, 55.300903%, 32.368469%)" offset="0.289062"/><stop stop-opacity="1" stop-color="rgb(0%, 55.0354%, 32.582092%)" offset="0.292969"/><stop stop-opacity="1" stop-color="rgb(0%, 54.771423%, 32.797241%)" offset="0.296875"/><stop stop-opacity="1" stop-color="rgb(0%, 54.50592%, 33.010864%)" offset="0.300781"/><stop stop-opacity="1" stop-color="rgb(0%, 54.241943%, 33.226013%)" offset="0.304688"/><stop stop-opacity="1" stop-color="rgb(0%, 53.97644%, 33.439636%)" offset="0.308594"/><stop stop-opacity="1" stop-color="rgb(0%, 53.712463%, 33.654785%)" offset="0.3125"/><stop stop-opacity="1" stop-color="rgb(0%, 53.44696%, 33.869934%)" offset="0.316406"/><stop stop-opacity="1" stop-color="rgb(0%, 53.181458%, 34.085083%)" offset="0.320313"/><stop stop-opacity="1" stop-color="rgb(0%, 52.915955%, 34.298706%)" offset="0.324219"/><stop stop-opacity="1" stop-color="rgb(0%, 52.651978%, 34.513855%)" offset="0.328125"/><stop stop-opacity="1" stop-color="rgb(0%, 52.386475%, 34.727478%)" offset="0.332031"/><stop stop-opacity="1" stop-color="rgb(0%, 52.122498%, 34.942627%)" offset="0.335938"/><stop stop-opacity="1" stop-color="rgb(0%, 51.856995%, 35.15625%)" offset="0.339844"/><stop stop-opacity="1" stop-color="rgb(0%, 51.593018%, 35.371399%)" offset="0.34375"/><stop stop-opacity="1" stop-color="rgb(0%, 51.327515%, 35.585022%)" offset="0.347656"/><stop stop-opacity="1" stop-color="rgb(0%, 51.063538%, 35.800171%)" offset="0.351563"/><stop stop-opacity="1" stop-color="rgb(0%, 50.798035%, 36.013794%)" offset="0.355469"/><stop stop-opacity="1" stop-color="rgb(0%, 50.534058%, 36.228943%)" offset="0.359375"/><stop stop-opacity="1" stop-color="rgb(0%, 50.268555%, 36.442566%)" offset="0.363281"/><stop stop-opacity="1" stop-color="rgb(0%, 50.004578%, 36.657715%)" offset="0.367188"/><stop stop-opacity="1" stop-color="rgb(0%, 49.739075%, 36.871338%)" offset="0.371094"/><stop stop-opacity="1" stop-color="rgb(0%, 49.473572%, 37.086487%)" offset="0.375"/><stop stop-opacity="1" stop-color="rgb(0%, 49.208069%, 37.30011%)" offset="0.378906"/><stop stop-opacity="1" stop-color="rgb(0%, 48.944092%, 37.515259%)" offset="0.382813"/><stop stop-opacity="1" stop-color="rgb(0%, 48.678589%, 37.728882%)" offset="0.386719"/><stop stop-opacity="1" stop-color="rgb(0%, 48.414612%, 37.944031%)" offset="0.390625"/><stop stop-opacity="1" stop-color="rgb(0%, 48.149109%, 38.157654%)" offset="0.394531"/><stop stop-opacity="1" stop-color="rgb(0%, 47.885132%, 38.372803%)" offset="0.398438"/><stop stop-opacity="1" stop-color="rgb(0%, 47.619629%, 38.587952%)" offset="0.402344"/><stop stop-opacity="1" stop-color="rgb(0%, 47.355652%, 38.803101%)" offset="0.40625"/><stop stop-opacity="1" stop-color="rgb(0%, 47.090149%, 39.016724%)" offset="0.410156"/><stop stop-opacity="1" stop-color="rgb(0%, 46.826172%, 39.231873%)" offset="0.414063"/><stop stop-opacity="1" stop-color="rgb(0%, 46.560669%, 39.445496%)" offset="0.417969"/><stop stop-opacity="1" stop-color="rgb(0%, 46.296692%, 39.660645%)" offset="0.421875"/><stop stop-opacity="1" stop-color="rgb(0%, 46.031189%, 39.874268%)" offset="0.425781"/><stop stop-opacity="1" stop-color="rgb(0%, 45.765686%, 40.089417%)" offset="0.429688"/><stop stop-opacity="1" stop-color="rgb(0%, 45.500183%, 40.30304%)" offset="0.433594"/><stop stop-opacity="1" stop-color="rgb(0%, 45.236206%, 40.518188%)" offset="0.4375"/><stop stop-opacity="1" stop-color="rgb(0%, 44.970703%, 40.731812%)" offset="0.441406"/><stop stop-opacity="1" stop-color="rgb(0%, 44.706726%, 40.94696%)" offset="0.445313"/><stop stop-opacity="1" stop-color="rgb(0%, 44.441223%, 41.160583%)" offset="0.449219"/><stop stop-opacity="1" stop-color="rgb(0%, 44.177246%, 41.375732%)" offset="0.453125"/><stop stop-opacity="1" stop-color="rgb(0%, 43.911743%, 41.589355%)" offset="0.457031"/><stop stop-opacity="1" stop-color="rgb(0%, 43.647766%, 41.804504%)" offset="0.460938"/><stop stop-opacity="1" stop-color="rgb(0%, 43.382263%, 42.018127%)" offset="0.464844"/><stop stop-opacity="1" stop-color="rgb(0%, 43.118286%, 42.233276%)" offset="0.46875"/><stop stop-opacity="1" stop-color="rgb(0%, 42.852783%, 42.446899%)" offset="0.472656"/><stop stop-opacity="1" stop-color="rgb(0%, 42.588806%, 42.662048%)" offset="0.476563"/><stop stop-opacity="1" stop-color="rgb(0%, 42.323303%, 42.875671%)" offset="0.480469"/><stop stop-opacity="1" stop-color="rgb(0%, 42.059326%, 43.09082%)" offset="0.484375"/><stop stop-opacity="1" stop-color="rgb(0%, 41.793823%, 43.304443%)" offset="0.488281"/><stop stop-opacity="1" stop-color="rgb(0%, 41.52832%, 43.519592%)" offset="0.492188"/><stop stop-opacity="1" stop-color="rgb(0%, 41.262817%, 43.734741%)" offset="0.496094"/><stop stop-opacity="1" stop-color="rgb(0%, 40.99884%, 43.94989%)" offset="0.5"/><stop stop-opacity="1" stop-color="rgb(0%, 40.733337%, 44.163513%)" offset="0.503906"/><stop stop-opacity="1" stop-color="rgb(0%, 40.46936%, 44.378662%)" offset="0.507813"/><stop stop-opacity="1" stop-color="rgb(0%, 40.203857%, 44.592285%)" offset="0.511719"/><stop stop-opacity="1" stop-color="rgb(0%, 39.93988%, 44.807434%)" offset="0.515625"/><stop stop-opacity="1" stop-color="rgb(0%, 39.674377%, 45.021057%)" offset="0.519531"/><stop stop-opacity="1" stop-color="rgb(0%, 39.4104%, 45.236206%)" offset="0.523438"/><stop stop-opacity="1" stop-color="rgb(0%, 39.144897%, 45.449829%)" offset="0.527344"/><stop stop-opacity="1" stop-color="rgb(0%, 38.88092%, 45.664978%)" offset="0.53125"/><stop stop-opacity="1" stop-color="rgb(0%, 38.615417%, 45.878601%)" offset="0.535156"/><stop stop-opacity="1" stop-color="rgb(0%, 38.35144%, 46.09375%)" offset="0.539062"/><stop stop-opacity="1" stop-color="rgb(0%, 38.085938%, 46.307373%)" offset="0.542969"/><stop stop-opacity="1" stop-color="rgb(0%, 37.820435%, 46.522522%)" offset="0.546875"/><stop stop-opacity="1" stop-color="rgb(0%, 37.554932%, 46.736145%)" offset="0.550781"/><stop stop-opacity="1" stop-color="rgb(0%, 37.290955%, 46.951294%)" offset="0.554688"/><stop stop-opacity="1" stop-color="rgb(0%, 37.025452%, 47.164917%)" offset="0.558594"/><stop stop-opacity="1" stop-color="rgb(0%, 36.761475%, 47.380066%)" offset="0.5625"/><stop stop-opacity="1" stop-color="rgb(0%, 36.495972%, 47.593689%)" offset="0.566406"/><stop stop-opacity="1" stop-color="rgb(0%, 36.231995%, 47.808838%)" offset="0.570312"/><stop stop-opacity="1" stop-color="rgb(0%, 35.966492%, 48.022461%)" offset="0.574219"/><stop stop-opacity="1" stop-color="rgb(0%, 35.702515%, 48.23761%)" offset="0.578125"/><stop stop-opacity="1" stop-color="rgb(0%, 35.437012%, 48.452759%)" offset="0.582031"/><stop stop-opacity="1" stop-color="rgb(0%, 35.173035%, 48.667908%)" offset="0.585937"/><stop stop-opacity="1" stop-color="rgb(0%, 34.907532%, 48.881531%)" offset="0.589844"/><stop stop-opacity="1" stop-color="rgb(0%, 34.643555%, 49.09668%)" offset="0.59375"/><stop stop-opacity="1" stop-color="rgb(0%, 34.378052%, 49.310303%)" offset="0.597656"/><stop stop-opacity="1" stop-color="rgb(0%, 34.112549%, 49.525452%)" offset="0.601562"/><stop stop-opacity="1" stop-color="rgb(0%, 33.847046%, 49.739075%)" offset="0.605469"/><stop stop-opacity="1" stop-color="rgb(0%, 33.583069%, 49.954224%)" offset="0.609375"/><stop stop-opacity="1" stop-color="rgb(0%, 33.317566%, 50.167847%)" offset="0.613281"/><stop stop-opacity="1" stop-color="rgb(0%, 33.053589%, 50.382996%)" offset="0.617188"/><stop stop-opacity="1" stop-color="rgb(0%, 32.788086%, 50.596619%)" offset="0.621094"/><stop stop-opacity="1" stop-color="rgb(0%, 32.524109%, 50.811768%)" offset="0.625"/><stop stop-opacity="1" stop-color="rgb(0%, 32.258606%, 51.025391%)" offset="0.628906"/><stop stop-opacity="1" stop-color="rgb(0%, 31.994629%, 51.24054%)" offset="0.632812"/><stop stop-opacity="1" stop-color="rgb(0%, 31.729126%, 51.454163%)" offset="0.636719"/><stop stop-opacity="1" stop-color="rgb(0%, 31.465149%, 51.669312%)" offset="0.640625"/><stop stop-opacity="1" stop-color="rgb(0%, 31.199646%, 51.882935%)" offset="0.644531"/><stop stop-opacity="1" stop-color="rgb(0%, 30.935669%, 52.098083%)" offset="0.648438"/><stop stop-opacity="1" stop-color="rgb(0%, 30.670166%, 52.311707%)" offset="0.652344"/><stop stop-opacity="1" stop-color="rgb(0%, 30.406189%, 52.526855%)" offset="0.65625"/><stop stop-opacity="1" stop-color="rgb(0%, 30.140686%, 52.740479%)" offset="0.660156"/><stop stop-opacity="1" stop-color="rgb(0%, 29.875183%, 52.955627%)" offset="0.664062"/><stop stop-opacity="1" stop-color="rgb(0%, 29.60968%, 53.170776%)" offset="0.667969"/><stop stop-opacity="1" stop-color="rgb(0%, 29.345703%, 53.385925%)" offset="0.671875"/><stop stop-opacity="1" stop-color="rgb(0%, 29.0802%, 53.599548%)" offset="0.675781"/><stop stop-opacity="1" stop-color="rgb(0%, 28.816223%, 53.814697%)" offset="0.679687"/><stop stop-opacity="1" stop-color="rgb(0%, 28.55072%, 54.02832%)" offset="0.683594"/><stop stop-opacity="1" stop-color="rgb(0%, 28.286743%, 54.243469%)" offset="0.6875"/><stop stop-opacity="1" stop-color="rgb(0%, 28.02124%, 54.457092%)" offset="0.691406"/><stop stop-opacity="1" stop-color="rgb(0%, 27.757263%, 54.672241%)" offset="0.695312"/><stop stop-opacity="1" stop-color="rgb(0%, 27.49176%, 54.885864%)" offset="0.699219"/><stop stop-opacity="1" stop-color="rgb(0%, 27.227783%, 55.101013%)" offset="0.703125"/><stop stop-opacity="1" stop-color="rgb(0%, 26.96228%, 55.314636%)" offset="0.707031"/><stop stop-opacity="1" stop-color="rgb(0%, 26.698303%, 55.529785%)" offset="0.710937"/><stop stop-opacity="1" stop-color="rgb(0%, 26.4328%, 55.743408%)" offset="0.714844"/><stop stop-opacity="1" stop-color="rgb(0%, 26.167297%, 55.958557%)" offset="0.71875"/><stop stop-opacity="1" stop-color="rgb(0%, 25.901794%, 56.17218%)" offset="0.722656"/><stop stop-opacity="1" stop-color="rgb(0%, 25.637817%, 56.387329%)" offset="0.726562"/><stop stop-opacity="1" stop-color="rgb(0%, 25.372314%, 56.600952%)" offset="0.730469"/><stop stop-opacity="1" stop-color="rgb(0%, 25.108337%, 56.816101%)" offset="0.734375"/><stop stop-opacity="1" stop-color="rgb(0%, 24.842834%, 57.029724%)" offset="0.738281"/><stop stop-opacity="1" stop-color="rgb(0%, 24.578857%, 57.244873%)" offset="0.742188"/><stop stop-opacity="1" stop-color="rgb(0%, 24.313354%, 57.458496%)" offset="0.746094"/><stop stop-opacity="1" stop-color="rgb(0%, 24.049377%, 57.673645%)" offset="0.75"/><stop stop-opacity="1" stop-color="rgb(0%, 23.783875%, 57.887268%)" offset="0.753906"/><stop stop-opacity="1" stop-color="rgb(0%, 23.519897%, 58.102417%)" offset="0.757812"/><stop stop-opacity="1" stop-color="rgb(0%, 23.254395%, 58.317566%)" offset="0.761719"/><stop stop-opacity="1" stop-color="rgb(0%, 22.990417%, 58.532715%)" offset="0.765625"/><stop stop-opacity="1" stop-color="rgb(0%, 22.724915%, 58.746338%)" offset="0.769531"/><stop stop-opacity="1" stop-color="rgb(0%, 22.459412%, 58.961487%)" offset="0.773438"/><stop stop-opacity="1" stop-color="rgb(0%, 22.193909%, 59.17511%)" offset="0.777344"/><stop stop-opacity="1" stop-color="rgb(0%, 21.929932%, 59.390259%)" offset="0.78125"/><stop stop-opacity="1" stop-color="rgb(0%, 21.664429%, 59.603882%)" offset="0.785156"/><stop stop-opacity="1" stop-color="rgb(0%, 21.400452%, 59.819031%)" offset="0.789062"/><stop stop-opacity="1" stop-color="rgb(0%, 21.134949%, 60.032654%)" offset="0.792969"/><stop stop-opacity="1" stop-color="rgb(0%, 20.870972%, 60.247803%)" offset="0.796875"/><stop stop-opacity="1" stop-color="rgb(0%, 20.605469%, 60.461426%)" offset="0.800781"/><stop stop-opacity="1" stop-color="rgb(0%, 20.341492%, 60.676575%)" offset="0.804687"/><stop stop-opacity="1" stop-color="rgb(0%, 20.075989%, 60.890198%)" offset="0.808594"/><stop stop-opacity="1" stop-color="rgb(0%, 19.812012%, 61.105347%)" offset="0.8125"/><stop stop-opacity="1" stop-color="rgb(0%, 19.546509%, 61.31897%)" offset="0.816406"/><stop stop-opacity="1" stop-color="rgb(0%, 19.282532%, 61.534119%)" offset="0.820312"/><stop stop-opacity="1" stop-color="rgb(0%, 19.017029%, 61.747742%)" offset="0.824219"/><stop stop-opacity="1" stop-color="rgb(0%, 18.753052%, 61.962891%)" offset="0.828125"/><stop stop-opacity="1" stop-color="rgb(0%, 18.487549%, 62.176514%)" offset="0.832031"/><stop stop-opacity="1" stop-color="rgb(0%, 18.222046%, 62.391663%)" offset="0.835938"/><stop stop-opacity="1" stop-color="rgb(0%, 17.956543%, 62.605286%)" offset="0.839844"/><stop stop-opacity="1" stop-color="rgb(0%, 17.692566%, 62.820435%)" offset="0.84375"/><stop stop-opacity="1" stop-color="rgb(0%, 17.427063%, 63.035583%)" offset="0.847656"/><stop stop-opacity="1" stop-color="rgb(0%, 17.163086%, 63.250732%)" offset="0.851562"/><stop stop-opacity="1" stop-color="rgb(0%, 16.897583%, 63.464355%)" offset="0.855469"/><stop stop-opacity="1" stop-color="rgb(0%, 16.633606%, 63.679504%)" offset="0.859375"/><stop stop-opacity="1" stop-color="rgb(0%, 16.368103%, 63.893127%)" offset="0.863281"/><stop stop-opacity="1" stop-color="rgb(0%, 16.104126%, 64.108276%)" offset="0.867188"/><stop stop-opacity="1" stop-color="rgb(0%, 15.838623%, 64.321899%)" offset="0.871094"/><stop stop-opacity="1" stop-color="rgb(0%, 15.574646%, 64.537048%)" offset="0.875"/><stop stop-opacity="1" stop-color="rgb(0%, 15.309143%, 64.750671%)" offset="0.878906"/><stop stop-opacity="1" stop-color="rgb(0%, 15.045166%, 64.96582%)" offset="0.882812"/><stop stop-opacity="1" stop-color="rgb(0%, 14.779663%, 65.179443%)" offset="0.886719"/><stop stop-opacity="1" stop-color="rgb(0%, 14.51416%, 65.394592%)" offset="0.890625"/><stop stop-opacity="1" stop-color="rgb(0%, 14.248657%, 65.608215%)" offset="0.894531"/><stop stop-opacity="1" stop-color="rgb(0%, 13.98468%, 65.823364%)" offset="0.898438"/><stop stop-opacity="1" stop-color="rgb(0%, 13.719177%, 66.036987%)" offset="0.902344"/><stop stop-opacity="1" stop-color="rgb(0%, 13.4552%, 66.252136%)" offset="0.90625"/><stop stop-opacity="1" stop-color="rgb(0%, 13.189697%, 66.465759%)" offset="0.910156"/><stop stop-opacity="1" stop-color="rgb(0%, 12.92572%, 66.680908%)" offset="0.914062"/><stop stop-opacity="1" stop-color="rgb(0%, 12.660217%, 66.894531%)" offset="0.917969"/><stop stop-opacity="1" stop-color="rgb(0%, 12.39624%, 67.10968%)" offset="0.921875"/><stop stop-opacity="1" stop-color="rgb(0%, 12.130737%, 67.323303%)" offset="0.925781"/><stop stop-opacity="1" stop-color="rgb(0%, 11.86676%, 67.538452%)" offset="0.929687"/><stop stop-opacity="1" stop-color="rgb(0%, 11.601257%, 67.753601%)" offset="0.933594"/><stop stop-opacity="1" stop-color="rgb(0%, 11.33728%, 67.96875%)" offset="0.9375"/><stop stop-opacity="1" stop-color="rgb(0%, 11.071777%, 68.182373%)" offset="0.941406"/><stop stop-opacity="1" stop-color="rgb(0%, 10.8078%, 68.397522%)" offset="0.945313"/><stop stop-opacity="1" stop-color="rgb(0%, 10.542297%, 68.611145%)" offset="0.949219"/><stop stop-opacity="1" stop-color="rgb(0%, 10.276794%, 68.826294%)" offset="0.953125"/><stop stop-opacity="1" stop-color="rgb(0%, 10.011292%, 69.039917%)" offset="0.957031"/><stop stop-opacity="1" stop-color="rgb(0%, 9.747314%, 69.255066%)" offset="0.960938"/><stop stop-opacity="1" stop-color="rgb(0%, 9.481812%, 69.468689%)" offset="0.964844"/><stop stop-opacity="1" stop-color="rgb(0%, 9.217834%, 69.683838%)" offset="0.96875"/><stop stop-opacity="1" stop-color="rgb(0%, 8.952332%, 69.897461%)" offset="0.972656"/><stop stop-opacity="1" stop-color="rgb(0%, 8.688354%, 70.11261%)" offset="0.976562"/><stop stop-opacity="1" stop-color="rgb(0%, 8.422852%, 70.326233%)" offset="0.980469"/><stop stop-opacity="1" stop-color="rgb(0%, 8.158875%, 70.541382%)" offset="0.984375"/><stop stop-opacity="1" stop-color="rgb(0%, 7.893372%, 70.755005%)" offset="0.988281"/><stop stop-opacity="1" stop-color="rgb(0%, 7.629395%, 70.970154%)" offset="0.992188"/><stop stop-opacity="1" stop-color="rgb(0%, 7.363892%, 71.183777%)" offset="0.996094"/><stop stop-opacity="1" stop-color="rgb(0%, 7.099915%, 71.398926%)" offset="1"/></linearGradient></defs><g clip-path="url(#3460c32e6d)"><g clip-path="url(#37deab0942)"><path fill="url(#6c1e7d17dd)" d="M 0.484375 0 L 0.484375 29.03125 L 29.515625 29.03125 L 29.515625 0 Z M 0.484375 0 " fill-rule="nonzero"/></g></g></svg>