<svg xmlns="http://www.w3.org/2000/svg" xmlns:xlink="http://www.w3.org/1999/xlink" width="40" zoomAndPan="magnify" viewBox="0 0 30 30.000001" height="40" preserveAspectRatio="xMidYMid meet" version="1.0"><defs><clipPath id="916d78a73f"><path d="M 0.484375 0 L 29.515625 0 L 29.515625 29.03125 L 0.484375 29.03125 Z M 0.484375 0 " clip-rule="nonzero"/></clipPath><clipPath id="fba912f1ab"><path d="M 7.039062 5.152344 L 7.039062 5.621094 L 6.101562 5.621094 L 6.101562 5.152344 C 6.101562 4.890625 5.894531 4.683594 5.632812 4.683594 L 5.167969 4.683594 L 5.167969 5.152344 C 5.167969 5.410156 5.375 5.621094 5.632812 5.621094 C 6.410156 5.621094 7.039062 6.25 7.039062 7.023438 L 7.039062 8.429688 L 6.101562 8.429688 L 6.101562 9.367188 L 5.167969 9.367188 L 5.167969 8.34375 C 4.621094 8.148438 4.230469 7.632812 4.230469 7.023438 L 4.230469 6.554688 L 5.167969 6.554688 L 5.167969 7.023438 C 5.167969 7.28125 5.375 7.492188 5.632812 7.492188 L 6.101562 7.492188 L 6.101562 7.023438 C 6.101562 6.765625 5.894531 6.554688 5.632812 6.554688 C 4.859375 6.554688 4.230469 5.925781 4.230469 5.152344 L 4.230469 3.746094 L 5.167969 3.746094 L 5.167969 2.808594 L 6.101562 2.808594 L 6.101562 3.832031 C 6.648438 4.027344 7.039062 4.542969 7.039062 5.152344 Z M 27.484375 8.429688 L 29.515625 8.429688 L 29.515625 13.113281 L 27.484375 13.113281 L 29.242188 14.128906 L 26.902344 18.183594 L 24.992188 17.078125 L 25.914062 18.902344 L 24.640625 19.695312 C 25.285156 19.824219 25.769531 20.390625 25.769531 21.070312 C 25.769531 21.847656 25.140625 22.476562 24.367188 22.476562 L 22.875 22.476562 C 22.8125 22.652344 22.71875 22.808594 22.59375 22.945312 C 22.820312 23.195312 22.960938 23.519531 22.960938 23.882812 C 22.960938 24.242188 22.820312 24.570312 22.59375 24.816406 C 22.820312 25.066406 22.960938 25.394531 22.960938 25.753906 C 22.960938 26.527344 22.332031 27.160156 21.554688 27.160156 L 21.085938 27.160156 L 21.085938 27.628906 C 21.085938 28.402344 20.457031 29.03125 19.683594 29.03125 L 18.746094 29.03125 C 18.136719 29.03125 17.621094 28.640625 17.425781 28.097656 L 15.582031 28.097656 C 14.375 28.097656 13.234375 27.691406 12.304688 26.949219 C 12.144531 27.078125 11.945312 27.160156 11.722656 27.160156 L 2.355469 27.160156 L 2.355469 20.605469 L 11.722656 20.605469 C 11.890625 20.605469 12.046875 20.652344 12.183594 20.730469 C 12.429688 20.421875 12.714844 20.148438 13.023438 19.902344 L 11.332031 18.925781 L 12.347656 17.167969 L 10.589844 18.183594 L 8.246094 14.128906 L 10.007812 13.113281 L 7.976562 13.113281 L 7.976562 10.667969 C 7.273438 11.03125 6.476562 11.238281 5.632812 11.238281 C 2.792969 11.238281 0.484375 8.925781 0.484375 6.085938 C 0.484375 3.246094 2.792969 0.9375 5.632812 0.9375 C 7.6875 0.9375 9.457031 2.144531 10.285156 3.886719 L 10.589844 3.355469 L 12.351562 4.375 L 11.332031 2.613281 L 15.386719 0.273438 L 16.40625 2.03125 L 16.40625 0 L 21.085938 0 L 21.085938 2.03125 L 22.105469 0.273438 L 26.160156 2.613281 L 25.140625 4.375 L 26.902344 3.359375 L 29.242188 7.414062 Z M 11.722656 21.539062 L 3.292969 21.539062 L 3.292969 26.222656 L 11.722656 26.222656 Z M 5.632812 10.300781 C 7.957031 10.300781 9.847656 8.410156 9.847656 6.085938 C 9.847656 3.761719 7.957031 1.875 5.632812 1.875 C 3.3125 1.875 1.421875 3.761719 1.421875 6.085938 C 1.421875 8.410156 3.3125 10.300781 5.632812 10.300781 Z M 15.582031 27.160156 L 17.339844 27.160156 L 17.339844 26.363281 L 17.304688 26.308594 C 16.832031 25.601562 16.128906 25.0625 15.320312 24.792969 L 15.617188 23.90625 C 16.257812 24.121094 16.847656 24.472656 17.339844 24.925781 L 17.339844 22.816406 L 17.023438 22.921875 L 16.726562 22.035156 L 17.136719 21.894531 C 17.660156 21.722656 18.082031 21.355469 18.328125 20.863281 L 18.457031 20.605469 L 20.152344 20.605469 C 20.667969 20.605469 21.085938 20.183594 21.085938 19.667969 L 16.324219 19.667969 C 14.84375 19.667969 13.453125 20.441406 12.660156 21.683594 L 12.660156 26.015625 C 13.457031 26.75 14.488281 27.160156 15.582031 27.160156 Z M 22.023438 22.007812 C 22.023438 21.75 21.8125 21.539062 21.554688 21.539062 L 20.621094 21.539062 C 20.359375 21.539062 20.152344 21.75 20.152344 22.007812 C 20.152344 22.265625 20.359375 22.476562 20.621094 22.476562 L 21.554688 22.476562 C 21.8125 22.476562 22.023438 22.265625 22.023438 22.007812 Z M 21.554688 23.414062 L 20.621094 23.414062 C 20.359375 23.414062 20.152344 23.621094 20.152344 23.882812 C 20.152344 24.140625 20.359375 24.351562 20.621094 24.351562 L 21.554688 24.351562 C 21.8125 24.351562 22.023438 24.140625 22.023438 23.882812 C 22.023438 23.621094 21.8125 23.414062 21.554688 23.414062 Z M 20.152344 27.628906 L 20.152344 27.074219 C 19.605469 26.878906 19.214844 26.363281 19.214844 25.753906 C 19.214844 25.394531 19.355469 25.066406 19.578125 24.816406 C 19.355469 24.570312 19.214844 24.242188 19.214844 23.882812 C 19.214844 23.519531 19.355469 23.195312 19.578125 22.945312 C 19.355469 22.695312 19.214844 22.371094 19.214844 22.007812 C 19.214844 21.84375 19.25 21.6875 19.300781 21.539062 L 19.019531 21.539062 C 18.824219 21.851562 18.570312 22.121094 18.277344 22.335938 L 18.277344 27.628906 C 18.277344 27.886719 18.488281 28.097656 18.746094 28.097656 L 19.683594 28.097656 C 19.941406 28.097656 20.152344 27.886719 20.152344 27.628906 Z M 22.023438 25.753906 C 22.023438 25.496094 21.8125 25.285156 21.554688 25.285156 L 20.621094 25.285156 C 20.359375 25.285156 20.152344 25.496094 20.152344 25.753906 C 20.152344 26.011719 20.359375 26.222656 20.621094 26.222656 L 21.554688 26.222656 C 21.8125 26.222656 22.023438 26.011719 22.023438 25.753906 Z M 23.1875 20.605469 L 22.539062 21.007812 C 22.691406 21.15625 22.800781 21.339844 22.875 21.539062 L 24.367188 21.539062 C 24.625 21.539062 24.832031 21.332031 24.832031 21.070312 C 24.832031 20.8125 24.625 20.605469 24.367188 20.605469 Z M 27.484375 9.367188 C 27.054688 9.367188 26.691406 9.085938 26.578125 8.671875 C 26.46875 8.257812 26.644531 7.832031 27.015625 7.617188 L 27.964844 7.070312 L 26.558594 4.636719 L 25.609375 5.183594 C 25.238281 5.402344 24.785156 5.339844 24.480469 5.035156 C 24.175781 4.730469 24.117188 4.277344 24.332031 3.90625 L 24.878906 2.957031 L 22.445312 1.550781 L 21.898438 2.5 C 21.683594 2.875 21.261719 3.050781 20.84375 2.9375 C 20.429688 2.824219 20.152344 2.460938 20.152344 2.03125 L 20.152344 0.9375 L 17.339844 0.9375 L 17.339844 2.03125 C 17.339844 2.460938 17.0625 2.824219 16.648438 2.9375 C 16.234375 3.050781 15.808594 2.875 15.59375 2.5 L 15.046875 1.550781 L 12.613281 2.957031 L 13.160156 3.90625 C 13.375 4.277344 13.316406 4.730469 13.011719 5.035156 C 12.707031 5.339844 12.253906 5.398438 11.882812 5.183594 L 10.933594 4.636719 L 10.683594 5.066406 C 10.75 5.398438 10.785156 5.738281 10.785156 6.085938 C 10.785156 7.683594 10.054688 9.113281 8.914062 10.058594 L 8.914062 12.175781 L 10.007812 12.175781 C 10.4375 12.175781 10.800781 12.453125 10.914062 12.867188 C 11.023438 13.285156 10.847656 13.707031 10.476562 13.921875 L 9.527344 14.46875 L 10.933594 16.902344 L 11.882812 16.355469 C 12.253906 16.140625 12.707031 16.199219 13.011719 16.503906 C 13.316406 16.808594 13.375 17.261719 13.160156 17.632812 L 12.613281 18.582031 L 13.90625 19.328125 C 14.644531 18.949219 15.472656 18.730469 16.324219 18.730469 L 21.085938 18.730469 C 21.605469 18.730469 22.023438 19.152344 22.023438 19.667969 C 22.023438 19.890625 21.976562 20.101562 21.90625 20.300781 L 24.691406 18.558594 L 24.15625 17.5 C 23.964844 17.128906 24.042969 16.6875 24.347656 16.398438 C 24.648438 16.113281 25.097656 16.058594 25.460938 16.269531 L 26.558594 16.902344 L 27.964844 14.472656 L 27.015625 13.921875 C 26.644531 13.707031 26.46875 13.285156 26.578125 12.867188 C 26.691406 12.453125 27.054688 12.175781 27.484375 12.175781 L 28.578125 12.175781 L 28.578125 9.367188 Z M 26.238281 10.769531 C 26.238281 14.902344 22.878906 18.261719 18.746094 18.261719 C 14.613281 18.261719 11.253906 14.902344 11.253906 10.769531 C 11.253906 6.640625 14.613281 3.277344 18.746094 3.277344 C 22.878906 3.277344 26.238281 6.640625 26.238281 10.769531 Z M 15.46875 12.175781 L 14.53125 12.175781 L 14.53125 15.785156 C 14.824219 16.027344 15.136719 16.246094 15.46875 16.4375 Z M 18.746094 17.324219 C 18.90625 17.324219 19.058594 17.3125 19.214844 17.300781 L 19.214844 10.300781 L 18.277344 10.300781 L 18.277344 17.300781 C 18.433594 17.3125 18.585938 17.324219 18.746094 17.324219 Z M 22.960938 8.429688 L 22.023438 8.429688 L 22.023438 16.4375 C 22.355469 16.246094 22.667969 16.03125 22.960938 15.785156 Z M 25.300781 10.769531 C 25.300781 7.15625 22.359375 4.214844 18.746094 4.214844 C 15.132812 4.214844 12.191406 7.15625 12.191406 10.769531 C 12.191406 12.296875 12.71875 13.695312 13.59375 14.8125 L 13.59375 12.175781 C 13.59375 11.660156 14.015625 11.238281 14.53125 11.238281 L 15.46875 11.238281 C 15.984375 11.238281 16.40625 11.660156 16.40625 12.175781 L 16.40625 16.886719 C 16.707031 17.003906 17.019531 17.097656 17.339844 17.171875 L 17.339844 10.300781 C 17.339844 9.785156 17.761719 9.367188 18.277344 9.367188 L 19.214844 9.367188 C 19.730469 9.367188 20.152344 9.785156 20.152344 10.300781 L 20.152344 17.171875 C 20.472656 17.097656 20.785156 17.003906 21.085938 16.886719 L 21.085938 8.429688 C 21.085938 7.914062 21.507812 7.492188 22.023438 7.492188 L 22.960938 7.492188 C 23.476562 7.492188 23.898438 7.914062 23.898438 8.429688 L 23.898438 14.8125 C 24.773438 13.695312 25.300781 12.296875 25.300781 10.769531 Z M 1.421875 13.113281 L 1.421875 14.046875 L 3.292969 14.046875 L 3.292969 13.113281 Z M 7.039062 13.113281 L 4.230469 13.113281 L 4.230469 14.046875 L 7.039062 14.046875 Z M 1.421875 15.921875 L 7.039062 15.921875 L 7.039062 14.984375 L 1.421875 14.984375 Z M 1.421875 17.792969 L 7.039062 17.792969 L 7.039062 16.859375 L 1.421875 16.859375 Z M 1.421875 19.667969 L 2.355469 19.667969 L 2.355469 18.730469 L 1.421875 18.730469 Z M 4.230469 19.667969 L 4.230469 18.730469 L 3.292969 18.730469 L 3.292969 19.667969 Z M 6.101562 19.667969 L 6.101562 18.730469 L 5.167969 18.730469 L 5.167969 19.667969 Z M 6.101562 19.667969 " clip-rule="nonzero"/></clipPath></defs><g clip-path="url(#916d78a73f)"><g clip-path="url(#fba912f1ab)"><path fill="#000000" d="M 0.484375 0 L 0.484375 29.03125 L 29.515625 29.03125 L 29.515625 0 Z M 0.484375 0 " fill-opacity="1" fill-rule="nonzero"/></g></g></svg>