<svg xmlns="http://www.w3.org/2000/svg" xmlns:xlink="http://www.w3.org/1999/xlink" width="40" zoomAndPan="magnify" viewBox="0 0 30 30.000001" height="40" preserveAspectRatio="xMidYMid meet" version="1.0"><defs><clipPath id="aed89d16d6"><path d="M 0.484375 0.765625 L 29.515625 0.765625 L 29.515625 28.347656 L 0.484375 28.347656 Z M 0.484375 0.765625 " clip-rule="nonzero"/></clipPath></defs><g clip-path="url(#aed89d16d6)"><path fill="#ffffff" d="M 15.71875 3.160156 L 15.71875 3.035156 C 18.867188 3.035156 21.871094 4.386719 23.964844 6.75 L 23.871094 6.832031 C 21.800781 4.5 18.832031 3.160156 15.71875 3.160156 Z M 6.9375 22.953125 L 7.175781 22.714844 L 7.089844 22.625 L 6.855469 22.859375 C 6.34375 22.238281 5.902344 21.5625 5.539062 20.847656 C 4.753906 19.304688 4.359375 17.640625 4.359375 15.898438 L 4.234375 15.898438 C 4.234375 17.660156 4.632812 19.34375 5.425781 20.90625 C 5.796875 21.632812 6.246094 22.316406 6.769531 22.949219 L 6.734375 22.980469 L 6.824219 23.070312 L 6.847656 23.042969 C 7.375 23.664062 7.96875 24.230469 8.617188 24.722656 L 8.691406 24.621094 C 8.046875 24.132812 7.460938 23.574219 6.9375 22.953125 Z M 26.753906 15.089844 C 26.753906 21.117188 21.867188 26.019531 15.855469 26.019531 C 15.585938 26.019531 15.320312 26.011719 15.054688 25.992188 L 15.054688 25.839844 L 14.929688 25.839844 L 14.929688 25.980469 C 12.878906 25.808594 10.945312 25.070312 9.289062 23.816406 L 9.214844 23.914062 C 10.890625 25.1875 12.851562 25.9375 14.929688 26.109375 L 14.929688 26.339844 L 15.054688 26.339844 L 15.054688 26.117188 C 15.320312 26.136719 15.585938 26.144531 15.855469 26.144531 C 21.933594 26.144531 26.878906 21.1875 26.878906 15.089844 Z M 25.75 14.875 C 25.75 12.164062 24.761719 9.558594 22.972656 7.535156 L 22.878906 7.617188 C 24.648438 9.617188 25.625 12.195312 25.625 14.875 Z M 24.273438 14.789062 C 24.273438 10.136719 20.5 6.351562 15.859375 6.351562 L 15.859375 6.476562 C 17.902344 6.476562 19.773438 7.222656 21.21875 8.453125 L 20.878906 8.796875 L 20.964844 8.886719 L 21.316406 8.535156 C 23.050781 10.0625 24.148438 12.296875 24.148438 14.789062 C 24.148438 15.628906 24.023438 16.460938 23.773438 17.257812 L 23.894531 17.296875 C 24.144531 16.488281 24.273438 15.644531 24.273438 14.789062 Z M 11.070312 6.46875 C 12.21875 5.898438 13.457031 5.605469 14.753906 5.605469 L 14.753906 5.480469 C 13.4375 5.480469 12.179688 5.777344 11.015625 6.359375 Z M 8.410156 19.511719 C 7.484375 18.136719 6.996094 16.527344 6.996094 14.863281 C 6.996094 13.285156 7.4375 11.753906 8.273438 10.425781 C 8.433594 10.167969 8.609375 9.921875 8.796875 9.6875 L 9.148438 9.980469 L 9.226562 9.882812 L 8.875 9.589844 C 9.621094 8.683594 10.546875 7.941406 11.597656 7.417969 L 11.542969 7.304688 C 10.160156 7.992188 8.992188 9.050781 8.167969 10.359375 C 7.316406 11.707031 6.867188 13.261719 6.867188 14.863281 C 6.867188 16.554688 7.367188 18.183594 8.304688 19.582031 Z M 19.777344 21.441406 C 18.265625 22.769531 16.328125 23.5 14.316406 23.5 C 11.558594 23.5 8.988281 22.128906 7.445312 19.835938 L 7.339844 19.90625 C 7.671875 20.394531 8.046875 20.84375 8.460938 21.25 L 8.148438 21.5625 L 8.238281 21.652344 L 8.554688 21.335938 C 10.097656 22.792969 12.148438 23.625 14.316406 23.625 C 16.355469 23.625 18.324219 22.882812 19.859375 21.535156 Z M 22.621094 18.664062 C 22.167969 20.121094 21.320312 21.429688 20.167969 22.441406 L 20.25 22.539062 C 20.886719 21.980469 21.429688 21.332031 21.867188 20.621094 L 22.203125 20.898438 L 22.285156 20.804688 L 21.933594 20.511719 C 22.273438 19.945312 22.542969 19.335938 22.742188 18.699219 Z M 9.851562 13.949219 L 9.730469 13.917969 C 9.621094 14.355469 9.566406 14.8125 9.566406 15.265625 C 9.566406 18.285156 11.949219 20.757812 14.929688 20.882812 L 14.929688 21.324219 L 15.054688 21.324219 L 15.054688 20.886719 C 15.09375 20.886719 15.132812 20.890625 15.171875 20.890625 C 16.59375 20.890625 17.953125 20.351562 18.992188 19.378906 L 18.90625 19.289062 C 17.890625 20.238281 16.5625 20.761719 15.171875 20.761719 C 12.148438 20.761719 9.691406 18.296875 9.691406 15.265625 C 9.691406 14.820312 9.746094 14.375 9.851562 13.949219 Z M 9.566406 12.460938 L 9.6875 12.488281 C 9.824219 11.9375 10.039062 11.425781 10.320312 10.960938 L 10.683594 11.265625 L 10.761719 11.167969 L 10.386719 10.851562 C 11.371094 9.300781 13.09375 8.3125 15.011719 8.3125 C 16.734375 8.3125 18.324219 9.101562 19.371094 10.480469 L 19.472656 10.402344 C 18.410156 9.007812 16.800781 8.203125 15.054688 8.1875 L 15.054688 7.785156 L 14.929688 7.785156 L 14.929688 8.1875 C 12.378906 8.226562 10.179688 9.96875 9.566406 12.460938 Z M 17.0625 14.789062 C 17.0625 15.269531 16.894531 15.714844 16.617188 16.0625 L 16.523438 15.984375 L 16.441406 16.082031 L 16.535156 16.160156 C 16.171875 16.570312 15.644531 16.832031 15.054688 16.84375 L 15.054688 16.8125 L 14.929688 16.8125 L 14.929688 17.3125 L 15.054688 17.3125 L 15.054688 16.96875 C 15.679688 16.957031 16.242188 16.675781 16.632812 16.242188 L 16.828125 16.402344 L 16.90625 16.308594 L 16.714844 16.144531 C 17.007812 15.773438 17.1875 15.300781 17.1875 14.789062 Z M 12.835938 14.789062 L 12.960938 14.789062 C 12.960938 14.3125 13.121094 13.875 13.390625 13.527344 L 13.753906 13.832031 L 13.835938 13.738281 L 13.46875 13.433594 C 13.847656 13.003906 14.398438 12.730469 15.011719 12.730469 L 15.011719 12.605469 C 13.8125 12.605469 12.835938 13.585938 12.835938 14.789062 Z M 14.929688 25.335938 L 15.054688 25.335938 L 15.054688 24.835938 L 14.929688 24.835938 Z M 15.054688 2.769531 L 14.929688 2.769531 L 14.929688 3.273438 L 15.054688 3.273438 Z M 15.054688 1.769531 L 14.929688 1.769531 L 14.929688 2.269531 L 15.054688 2.269531 Z M 15.054688 0.765625 L 14.929688 0.765625 L 14.929688 1.265625 L 15.054688 1.265625 Z M 15.054688 18.816406 L 14.929688 18.816406 L 14.929688 19.320312 L 15.054688 19.320312 Z M 15.054688 12.800781 L 14.929688 12.800781 L 14.929688 13.300781 L 15.054688 13.300781 Z M 14.929688 14.304688 L 15.054688 14.304688 L 15.054688 13.804688 L 14.929688 13.804688 Z M 15.054688 17.816406 L 14.929688 17.816406 L 14.929688 18.316406 L 15.054688 18.316406 Z M 14.929688 20.324219 L 15.054688 20.324219 L 15.054688 19.820312 L 14.929688 19.820312 Z M 15.054688 3.773438 L 14.929688 3.773438 L 14.929688 4.277344 L 15.054688 4.277344 Z M 15.054688 21.828125 L 14.929688 21.828125 L 14.929688 22.328125 L 15.054688 22.328125 Z M 14.929688 9.289062 L 15.054688 9.289062 L 15.054688 8.789062 L 14.929688 8.789062 Z M 14.929688 23.332031 L 15.054688 23.332031 L 15.054688 22.828125 L 14.929688 22.828125 Z M 14.929688 12.300781 L 15.054688 12.300781 L 15.054688 11.796875 L 14.929688 11.796875 Z M 14.929688 10.292969 L 15.054688 10.292969 L 15.054688 9.792969 L 14.929688 9.792969 Z M 14.929688 11.296875 L 15.054688 11.296875 L 15.054688 10.792969 L 14.929688 10.792969 Z M 15.054688 15.808594 L 14.929688 15.808594 L 14.929688 16.3125 L 15.054688 16.3125 Z M 14.929688 27.34375 L 15.054688 27.34375 L 15.054688 26.839844 L 14.929688 26.839844 Z M 14.929688 28.347656 L 15.054688 28.347656 L 15.054688 27.84375 L 14.929688 27.84375 Z M 15.054688 4.777344 L 14.929688 4.777344 L 14.929688 5.277344 L 15.054688 5.277344 Z M 15.054688 5.78125 L 14.929688 5.78125 L 14.929688 6.28125 L 15.054688 6.28125 Z M 15.054688 23.832031 L 14.929688 23.832031 L 14.929688 24.335938 L 15.054688 24.335938 Z M 15.054688 6.78125 L 14.929688 6.78125 L 14.929688 7.285156 L 15.054688 7.285156 Z M 15.792969 14.890625 L 15.300781 14.789062 L 15.277344 14.910156 L 15.765625 15.011719 Z M 3.0625 12.25 L 2.570312 12.148438 L 2.546875 12.269531 L 3.035156 12.371094 Z M 5.972656 12.980469 L 6 12.859375 L 5.507812 12.757812 L 5.484375 12.878906 Z M 23.625 16.515625 L 23.136719 16.414062 L 23.113281 16.535156 L 23.601562 16.636719 Z M 10.40625 13.773438 L 10.378906 13.894531 L 10.871094 13.996094 L 10.894531 13.875 Z M 11.359375 14.097656 L 11.847656 14.199219 L 11.875 14.078125 L 11.386719 13.976562 Z M 9.402344 13.691406 L 9.890625 13.792969 L 9.917969 13.671875 L 9.425781 13.570312 Z M 18.703125 15.621094 L 18.730469 15.5 L 18.242188 15.398438 L 18.214844 15.519531 Z M 14.296875 14.707031 L 14.789062 14.808594 L 14.8125 14.6875 L 14.324219 14.585938 Z M 25.558594 17.042969 L 25.585938 16.921875 L 25.09375 16.820312 L 25.070312 16.941406 Z M 12.339844 14.300781 L 12.828125 14.402344 L 12.855469 14.28125 L 12.363281 14.179688 Z M 13.320312 14.503906 L 13.808594 14.605469 L 13.832031 14.484375 L 13.34375 14.382812 Z M 26.566406 17.125 L 26.074219 17.023438 L 26.050781 17.144531 L 26.539062 17.246094 Z M 16.746094 15.214844 L 16.773438 15.09375 L 16.28125 14.992188 L 16.257812 15.113281 Z M 3.527344 12.472656 L 4.015625 12.574219 L 4.039062 12.453125 L 3.550781 12.351562 Z M 4.996094 12.777344 L 5.019531 12.65625 L 4.53125 12.554688 L 4.503906 12.675781 Z M 29.011719 17.632812 L 28.988281 17.753906 L 29.476562 17.855469 L 29.503906 17.734375 Z M 28.007812 17.550781 L 28.496094 17.652344 L 28.523438 17.53125 L 28.035156 17.429688 Z M 22.648438 16.3125 L 22.15625 16.210938 L 22.132812 16.332031 L 22.621094 16.433594 Z M 1.566406 12.066406 L 2.054688 12.167969 L 2.082031 12.046875 L 1.59375 11.945312 Z M 21.667969 16.109375 L 21.179688 16.007812 L 21.152344 16.128906 L 21.644531 16.230469 Z M 17.75 15.296875 L 17.261719 15.195312 L 17.234375 15.316406 L 17.726562 15.417969 Z M 24.605469 16.71875 L 24.117188 16.617188 L 24.089844 16.738281 L 24.582031 16.839844 Z M 20.664062 16.027344 L 20.6875 15.90625 L 20.46875 15.859375 C 20.566406 15.445312 20.617188 15.019531 20.617188 14.589844 C 20.617188 13.347656 20.21875 12.171875 19.472656 11.1875 L 19.371094 11.261719 C 20.105469 12.226562 20.492188 13.375 20.492188 14.589844 C 20.492188 15.011719 20.441406 15.429688 20.347656 15.835938 L 20.199219 15.804688 L 20.175781 15.925781 L 20.316406 15.957031 C 20.105469 16.777344 19.710938 17.542969 19.15625 18.1875 L 18.828125 17.914062 L 18.746094 18.007812 L 19.070312 18.28125 C 18.96875 18.394531 18.859375 18.507812 18.746094 18.613281 L 18.832031 18.703125 C 19.621094 17.964844 20.175781 17.015625 20.441406 15.980469 Z M 8.449219 13.367188 L 8.421875 13.488281 L 8.910156 13.589844 L 8.9375 13.46875 Z M 27.027344 17.347656 L 27.519531 17.449219 L 27.542969 17.328125 L 27.054688 17.226562 Z M 19.710938 15.703125 L 19.21875 15.601562 L 19.195312 15.722656 L 19.683594 15.824219 Z M 6.976562 13.0625 L 6.488281 12.960938 L 6.464844 13.082031 L 6.953125 13.183594 Z M 7.933594 13.386719 L 7.957031 13.265625 L 7.46875 13.164062 L 7.441406 13.285156 Z M 1.242188 12.445312 L 1.441406 11.464844 L 0.496094 11.78125 Z M 11.066406 18.8125 L 11.421875 18.460938 L 11.332031 18.371094 L 10.976562 18.726562 Z M 11.773438 18.105469 L 12.128906 17.75 L 12.039062 17.660156 L 11.683594 18.015625 Z M 13.1875 16.6875 L 13.460938 16.414062 C 13.773438 16.59375 14.136719 16.695312 14.523438 16.695312 L 14.523438 16.570312 C 14.15625 16.570312 13.808594 16.46875 13.507812 16.296875 L 13.453125 16.242188 L 13.441406 16.257812 C 12.859375 15.894531 12.472656 15.246094 12.472656 14.511719 L 12.347656 14.511719 C 12.347656 15.28125 12.746094 15.957031 13.347656 16.347656 L 13.101562 16.597656 Z M 12.480469 17.394531 L 12.835938 17.039062 L 12.746094 16.953125 L 12.394531 17.308594 Z M 17.695312 11.988281 L 17.34375 12.34375 L 17.429688 12.429688 L 17.785156 12.078125 Z M 16.988281 12.695312 L 16.808594 12.878906 C 16.421875 12.539062 15.917969 12.332031 15.367188 12.332031 L 15.367188 12.457031 C 15.882812 12.457031 16.359375 12.648438 16.71875 12.96875 L 16.636719 13.050781 L 16.722656 13.140625 L 16.8125 13.054688 C 17.183594 13.425781 17.417969 13.941406 17.417969 14.511719 L 17.542969 14.511719 C 17.542969 13.90625 17.296875 13.359375 16.898438 12.964844 L 17.078125 12.785156 Z M 15.929688 13.761719 L 16.015625 13.847656 L 16.371094 13.496094 L 16.28125 13.40625 Z M 15.308594 14.558594 L 15.664062 14.203125 L 15.574219 14.117188 L 15.222656 14.46875 Z M 5.328125 24.390625 L 5.417969 24.480469 L 5.761719 24.132812 L 5.675781 24.042969 Z M 19.464844 10.214844 L 19.550781 10.304688 L 19.90625 9.949219 L 19.816406 9.859375 Z M 9.300781 20.585938 L 9.210938 20.5 L 8.855469 20.851562 L 8.945312 20.941406 Z M 7.53125 22.359375 L 7.882812 22.003906 L 7.796875 21.917969 L 7.441406 22.269531 Z M 18.757812 10.925781 L 18.84375 11.011719 L 19.199219 10.65625 L 19.109375 10.570312 Z M 20.523438 9.152344 L 20.171875 9.503906 L 20.257812 9.59375 L 20.613281 9.238281 Z M 23.707031 5.960938 L 23.796875 6.046875 L 24.046875 5.796875 L 24.355469 6.105469 L 24.613281 5.140625 L 23.648438 5.398438 L 23.957031 5.707031 Z M 22.644531 7.023438 L 22.292969 7.378906 L 22.382812 7.46875 L 22.734375 7.113281 Z M 21.9375 7.734375 L 21.585938 8.085938 L 21.675781 8.175781 L 22.027344 7.820312 Z M 23.351562 6.316406 L 23 6.667969 L 23.089844 6.757812 L 23.441406 6.402344 Z M 6.027344 23.6875 L 6.117188 23.777344 L 6.46875 23.421875 L 6.382812 23.335938 Z M 18.050781 11.632812 L 18.136719 11.722656 L 18.492188 11.367188 L 18.402344 11.277344 Z M 13.894531 15.976562 L 14.25 15.621094 L 14.160156 15.535156 L 13.808594 15.886719 Z M 10.359375 19.523438 L 10.714844 19.167969 L 10.625 19.078125 L 10.269531 19.433594 Z M 9.652344 20.230469 L 10.007812 19.878906 L 9.917969 19.789062 L 9.5625 20.144531 Z M 6.921875 7.957031 L 6.539062 7.636719 L 6.457031 7.730469 L 6.84375 8.050781 Z M 8.460938 9.242188 L 8.074219 8.917969 L 7.996094 9.015625 L 8.378906 9.335938 Z M 23.820312 22.089844 L 23.433594 21.765625 L 23.355469 21.863281 L 23.738281 22.183594 Z M 7.308594 8.277344 L 7.226562 8.375 L 7.609375 8.695312 L 7.691406 8.597656 Z M 12.300781 12.453125 L 11.914062 12.132812 L 11.835938 12.226562 L 12.21875 12.550781 Z M 5.386719 6.671875 L 5.003906 6.351562 L 4.921875 6.445312 L 5.308594 6.769531 Z M 4.617188 6.03125 L 4.234375 5.707031 L 4.15625 5.804688 L 4.539062 6.125 Z M 3.851562 5.386719 L 3.46875 5.066406 L 3.386719 5.160156 L 3.769531 5.484375 Z M 23.050781 21.445312 L 22.667969 21.125 L 22.585938 21.21875 L 22.972656 21.542969 Z M 3.082031 4.746094 L 2.699219 4.421875 L 2.617188 4.519531 L 3.003906 4.839844 Z M 24.125 22.503906 L 24.507812 22.828125 L 24.585938 22.730469 L 24.203125 22.410156 Z M 25.660156 23.789062 L 26.042969 24.109375 L 26.125 24.015625 L 25.738281 23.695312 Z M 24.890625 23.148438 L 25.277344 23.46875 L 25.355469 23.371094 L 24.972656 23.050781 Z M 11.066406 11.585938 L 11.449219 11.90625 L 11.53125 11.808594 L 11.148438 11.488281 Z M 6.074219 7.410156 L 6.15625 7.3125 L 6.027344 7.207031 C 8.007812 5.140625 10.792969 3.855469 13.871094 3.855469 L 13.871094 3.730469 C 10.753906 3.730469 7.9375 5.035156 5.929688 7.125 L 5.769531 6.992188 L 5.691406 7.089844 L 5.84375 7.214844 C 3.984375 9.195312 2.84375 11.859375 2.84375 14.789062 L 2.96875 14.789062 C 2.96875 11.890625 4.097656 9.253906 5.9375 7.296875 Z M 21.050781 19.9375 L 21.433594 20.257812 L 21.515625 20.160156 L 21.132812 19.839844 Z M 14.90625 14.796875 L 14.929688 14.816406 L 14.929688 14.886719 L 14.867188 14.824219 L 14.515625 15.179688 L 14.601562 15.269531 L 14.929688 14.9375 L 14.929688 15.308594 L 15.054688 15.308594 L 15.054688 14.921875 L 15.292969 15.117188 L 15.371094 15.023438 L 14.988281 14.699219 Z M 14.140625 14.15625 L 14.523438 14.476562 L 14.601562 14.378906 L 14.21875 14.058594 Z M 16.140625 15.664062 L 15.753906 15.34375 L 15.675781 15.441406 L 16.058594 15.761719 Z M 17.59375 17.046875 L 17.675781 16.949219 L 17.292969 16.628906 L 17.210938 16.722656 Z M 19.980469 18.875 L 19.59375 18.554688 L 19.515625 18.652344 L 19.898438 18.972656 Z M 20.285156 19.292969 L 20.667969 19.613281 L 20.746094 19.519531 L 20.363281 19.199219 Z M 12.601562 12.871094 L 12.988281 13.191406 L 13.066406 13.09375 L 12.683594 12.773438 Z M 9.914062 10.621094 L 9.996094 10.527344 L 9.609375 10.203125 L 9.53125 10.300781 Z M 18.363281 17.6875 L 18.441406 17.589844 L 18.058594 17.269531 L 17.980469 17.367188 Z M 26.78125 24.5625 L 26.507812 24.335938 L 26.425781 24.433594 L 26.699219 24.660156 L 26.421875 24.996094 L 27.402344 25.167969 L 27.058594 24.226562 Z M 26.78125 24.5625 " fill-opacity="1" fill-rule="nonzero"/></g></svg>