<svg xmlns="http://www.w3.org/2000/svg" xmlns:xlink="http://www.w3.org/1999/xlink" width="40" zoomAndPan="magnify" viewBox="0 0 30 30.000001" height="40" preserveAspectRatio="xMidYMid meet" version="1.0"><defs><clipPath id="da02f019c9"><path d="M 27 6 L 29.515625 6 L 29.515625 8 L 27 8 Z M 27 6 " clip-rule="nonzero"/></clipPath><clipPath id="54aec7f57c"><path d="M 11 1.289062 L 19 1.289062 L 19 9 L 11 9 Z M 11 1.289062 " clip-rule="nonzero"/></clipPath><clipPath id="9d10612f78"><path d="M 11 20 L 19 20 L 19 27.417969 L 11 27.417969 Z M 11 20 " clip-rule="nonzero"/></clipPath><clipPath id="31871cfe6a"><path d="M 0.484375 10 L 5 10 L 5 13 L 0.484375 13 Z M 0.484375 10 " clip-rule="nonzero"/></clipPath></defs><g clip-path="url(#da02f019c9)"><path fill="#ffffff" d="M 29.476562 6.316406 C 29.449219 6.265625 29.402344 6.238281 29.351562 6.238281 C 29.328125 6.238281 29.304688 6.246094 29.285156 6.257812 L 27.609375 7.230469 C 27.542969 7.269531 27.515625 7.355469 27.554688 7.425781 C 27.578125 7.476562 27.628906 7.503906 27.679688 7.503906 C 27.699219 7.503906 27.722656 7.496094 27.746094 7.484375 L 29.421875 6.511719 C 29.488281 6.472656 29.515625 6.386719 29.476562 6.316406 " fill-opacity="1" fill-rule="nonzero"/></g><g clip-path="url(#54aec7f57c)"><path fill="#ffffff" d="M 17.804688 6.222656 L 15.085938 7.6875 L 15.085938 4.765625 L 16.78125 3.851562 L 17.804688 3.300781 Z M 14.945312 4.519531 L 12.242188 3.058594 L 14.945312 1.597656 L 17.648438 3.058594 Z M 18.085938 3.023438 C 18.082031 3.011719 18.078125 3 18.074219 2.992188 C 18.070312 2.988281 18.070312 2.988281 18.070312 2.988281 C 18.066406 2.980469 18.058594 2.96875 18.050781 2.960938 C 18.050781 2.960938 18.050781 2.960938 18.046875 2.960938 C 18.039062 2.953125 18.03125 2.945312 18.023438 2.9375 C 18.023438 2.9375 18.019531 2.9375 18.019531 2.9375 C 18.019531 2.9375 18.015625 2.933594 18.015625 2.933594 L 15.011719 1.3125 C 14.96875 1.289062 14.917969 1.289062 14.875 1.3125 L 11.871094 2.933594 C 11.871094 2.933594 11.871094 2.9375 11.867188 2.9375 C 11.867188 2.9375 11.867188 2.9375 11.863281 2.9375 C 11.855469 2.945312 11.847656 2.953125 11.839844 2.960938 C 11.835938 2.960938 11.835938 2.960938 11.835938 2.960938 C 11.828125 2.96875 11.820312 2.980469 11.816406 2.988281 C 11.816406 2.988281 11.816406 2.988281 11.816406 2.992188 C 11.808594 3 11.804688 3.011719 11.800781 3.023438 C 11.796875 3.035156 11.796875 3.046875 11.796875 3.058594 L 11.796875 5.808594 L 12.085938 5.644531 L 12.085938 3.300781 L 12.816406 3.695312 L 14.800781 4.765625 L 14.800781 7.6875 L 12.554688 6.476562 L 12.261719 6.640625 L 14.875 8.054688 C 14.875 8.054688 14.878906 8.054688 14.878906 8.054688 C 14.882812 8.058594 14.890625 8.058594 14.894531 8.0625 C 14.898438 8.0625 14.902344 8.066406 14.90625 8.066406 C 14.917969 8.070312 14.929688 8.070312 14.945312 8.070312 C 14.957031 8.070312 14.96875 8.070312 14.980469 8.066406 C 14.984375 8.066406 14.988281 8.0625 14.992188 8.0625 C 14.996094 8.058594 15.003906 8.058594 15.007812 8.054688 C 15.007812 8.054688 15.011719 8.054688 15.011719 8.054688 L 18.015625 6.429688 C 18.0625 6.40625 18.089844 6.359375 18.089844 6.304688 L 18.089844 3.058594 C 18.089844 3.046875 18.089844 3.035156 18.085938 3.023438 " fill-opacity="1" fill-rule="nonzero"/></g><path fill="#ffffff" d="M 5.933594 6.402344 L 8.636719 7.863281 L 6.1875 9.1875 L 5.933594 9.324219 L 5.730469 9.214844 L 3.230469 7.863281 Z M 8.792969 11.023438 L 6.078125 12.492188 L 6.078125 9.570312 L 8.570312 8.222656 L 8.792969 8.101562 Z M 3.074219 8.101562 L 5.789062 9.570312 L 5.789062 12.492188 L 3.542969 11.277344 L 3.25 11.445312 L 5.863281 12.859375 C 5.867188 12.859375 5.867188 12.859375 5.867188 12.859375 C 5.875 12.863281 5.878906 12.863281 5.886719 12.867188 C 5.890625 12.867188 5.894531 12.867188 5.898438 12.871094 C 5.910156 12.875 5.921875 12.875 5.933594 12.875 C 5.945312 12.875 5.957031 12.875 5.96875 12.871094 C 5.972656 12.867188 5.976562 12.867188 5.980469 12.867188 C 5.988281 12.863281 5.992188 12.863281 6 12.859375 C 6 12.859375 6 12.859375 6.003906 12.859375 L 9.007812 11.234375 C 9.050781 11.210938 9.082031 11.160156 9.082031 11.109375 L 9.082031 7.863281 C 9.082031 7.851562 9.078125 7.839844 9.078125 7.828125 C 9.074219 7.828125 9.074219 7.828125 9.074219 7.828125 C 9.074219 7.816406 9.066406 7.804688 9.0625 7.792969 C 9.054688 7.78125 9.050781 7.773438 9.042969 7.765625 C 9.039062 7.765625 9.039062 7.765625 9.039062 7.761719 C 9.03125 7.753906 9.023438 7.75 9.011719 7.742188 C 9.011719 7.742188 9.007812 7.742188 9.007812 7.742188 C 9.007812 7.738281 9.007812 7.738281 9.007812 7.738281 L 6.003906 6.113281 C 5.960938 6.09375 5.90625 6.09375 5.863281 6.113281 L 2.863281 7.738281 C 2.859375 7.738281 2.859375 7.738281 2.859375 7.742188 C 2.859375 7.742188 2.855469 7.742188 2.855469 7.742188 C 2.84375 7.75 2.835938 7.753906 2.828125 7.761719 C 2.828125 7.765625 2.828125 7.765625 2.828125 7.765625 C 2.820312 7.773438 2.8125 7.78125 2.804688 7.792969 C 2.800781 7.804688 2.792969 7.816406 2.792969 7.828125 C 2.789062 7.839844 2.785156 7.851562 2.785156 7.863281 L 2.785156 10.609375 L 3.074219 10.445312 L 3.074219 8.101562 " fill-opacity="1" fill-rule="nonzero"/><path fill="#ffffff" d="M 5.933594 19.0625 L 3.230469 17.601562 L 5.933594 16.140625 L 8.636719 17.601562 Z M 5.789062 22.230469 L 3.074219 20.765625 L 3.074219 17.84375 L 3.9375 18.308594 L 5.789062 19.308594 Z M 6.078125 22.230469 L 6.078125 19.308594 L 7.816406 18.367188 L 8.792969 17.84375 L 8.792969 20.066406 L 9.082031 20.230469 L 9.082031 17.601562 C 9.082031 17.589844 9.078125 17.578125 9.078125 17.566406 C 9.074219 17.566406 9.074219 17.566406 9.074219 17.566406 C 9.074219 17.554688 9.066406 17.542969 9.0625 17.535156 C 9.0625 17.53125 9.0625 17.53125 9.0625 17.53125 C 9.054688 17.523438 9.050781 17.511719 9.042969 17.503906 C 9.039062 17.503906 9.039062 17.503906 9.039062 17.503906 C 9.03125 17.496094 9.023438 17.488281 9.011719 17.480469 C 9.011719 17.480469 9.007812 17.480469 9.007812 17.480469 C 9.007812 17.480469 9.007812 17.476562 9.007812 17.476562 L 6.003906 15.855469 C 5.960938 15.832031 5.90625 15.832031 5.863281 15.855469 L 2.863281 17.476562 C 2.859375 17.476562 2.859375 17.480469 2.859375 17.480469 C 2.859375 17.480469 2.859375 17.480469 2.855469 17.480469 C 2.84375 17.488281 2.835938 17.496094 2.828125 17.503906 C 2.820312 17.511719 2.8125 17.523438 2.804688 17.53125 C 2.804688 17.53125 2.804688 17.53125 2.804688 17.535156 C 2.800781 17.542969 2.792969 17.554688 2.792969 17.566406 C 2.789062 17.578125 2.785156 17.589844 2.785156 17.601562 L 2.785156 20.847656 C 2.785156 20.902344 2.816406 20.949219 2.863281 20.972656 L 5.863281 22.597656 C 5.867188 22.597656 5.867188 22.597656 5.867188 22.597656 C 5.875 22.601562 5.878906 22.601562 5.886719 22.605469 C 5.890625 22.605469 5.894531 22.609375 5.898438 22.609375 C 5.910156 22.613281 5.921875 22.613281 5.933594 22.613281 C 5.945312 22.613281 5.957031 22.613281 5.96875 22.609375 C 5.972656 22.609375 5.976562 22.605469 5.980469 22.605469 C 5.988281 22.601562 5.992188 22.601562 6 22.597656 C 6 22.597656 6 22.597656 6.003906 22.597656 L 8.722656 21.125 L 8.433594 20.960938 L 6.078125 22.230469 " fill-opacity="1" fill-rule="nonzero"/><path fill="#ffffff" d="M 17.804688 15.828125 L 15.085938 17.296875 L 15.085938 14.375 L 16.863281 13.414062 L 17.804688 12.90625 Z M 18.085938 12.628906 C 18.082031 12.617188 18.078125 12.609375 18.074219 12.597656 C 18.070312 12.597656 18.070312 12.597656 18.070312 12.597656 C 18.066406 12.585938 18.058594 12.578125 18.050781 12.570312 C 18.050781 12.570312 18.050781 12.566406 18.046875 12.566406 C 18.039062 12.558594 18.03125 12.550781 18.023438 12.546875 C 18.023438 12.546875 18.019531 12.546875 18.019531 12.542969 C 18.019531 12.542969 18.015625 12.542969 18.015625 12.542969 L 15.46875 11.167969 L 15.46875 11.488281 L 17.648438 12.667969 L 14.945312 14.128906 L 12.242188 12.667969 L 14.503906 11.445312 L 14.503906 11.117188 L 11.871094 12.542969 C 11.871094 12.542969 11.871094 12.542969 11.867188 12.542969 C 11.867188 12.546875 11.867188 12.546875 11.863281 12.546875 C 11.855469 12.550781 11.847656 12.558594 11.839844 12.566406 C 11.835938 12.566406 11.835938 12.570312 11.835938 12.570312 C 11.828125 12.578125 11.820312 12.585938 11.816406 12.597656 C 11.808594 12.609375 11.804688 12.617188 11.800781 12.628906 C 11.800781 12.628906 11.800781 12.632812 11.800781 12.632812 C 11.796875 12.644531 11.796875 12.65625 11.796875 12.667969 L 11.796875 15.40625 L 12.085938 15.242188 L 12.085938 12.90625 L 12.859375 13.324219 L 14.800781 14.375 L 14.800781 17.296875 L 12.546875 16.078125 L 12.253906 16.246094 L 14.875 17.660156 C 14.875 17.664062 14.878906 17.664062 14.878906 17.664062 C 14.882812 17.664062 14.890625 17.667969 14.894531 17.667969 C 14.898438 17.671875 14.902344 17.671875 14.90625 17.675781 C 14.917969 17.675781 14.929688 17.679688 14.945312 17.679688 C 14.957031 17.679688 14.96875 17.675781 14.980469 17.675781 C 14.984375 17.671875 14.988281 17.671875 14.992188 17.667969 C 14.996094 17.667969 15.003906 17.664062 15.007812 17.664062 C 15.007812 17.664062 15.011719 17.664062 15.011719 17.660156 L 18.015625 16.039062 C 18.0625 16.011719 18.089844 15.964844 18.089844 15.914062 L 18.089844 12.667969 C 18.089844 12.65625 18.089844 12.644531 18.085938 12.632812 C 18.085938 12.632812 18.085938 12.628906 18.085938 12.628906 " fill-opacity="1" fill-rule="nonzero"/><g clip-path="url(#9d10612f78)"><path fill="#ffffff" d="M 17.804688 25.566406 L 15.085938 27.035156 L 15.085938 24.113281 L 16.808594 23.183594 L 17.804688 22.644531 Z M 14.945312 23.867188 L 12.242188 22.40625 L 14.945312 20.945312 L 17.648438 22.40625 Z M 14.800781 27.035156 L 12.085938 25.566406 L 12.085938 22.644531 L 12.78125 23.023438 L 14.800781 24.113281 Z M 18.085938 22.367188 C 18.082031 22.359375 18.078125 22.347656 18.074219 22.335938 C 18.070312 22.335938 18.070312 22.335938 18.070312 22.335938 C 18.066406 22.324219 18.058594 22.316406 18.050781 22.308594 C 18.050781 22.308594 18.050781 22.308594 18.046875 22.304688 C 18.039062 22.296875 18.03125 22.292969 18.023438 22.285156 C 18.023438 22.285156 18.019531 22.285156 18.019531 22.285156 C 18.019531 22.28125 18.015625 22.28125 18.015625 22.28125 L 15.011719 20.65625 C 14.96875 20.636719 14.917969 20.636719 14.875 20.65625 L 11.871094 22.28125 C 11.871094 22.28125 11.871094 22.28125 11.867188 22.285156 C 11.867188 22.285156 11.867188 22.285156 11.863281 22.285156 C 11.855469 22.292969 11.847656 22.296875 11.839844 22.304688 C 11.835938 22.308594 11.835938 22.308594 11.835938 22.308594 C 11.828125 22.316406 11.820312 22.324219 11.816406 22.335938 C 11.808594 22.347656 11.804688 22.359375 11.800781 22.367188 C 11.800781 22.371094 11.800781 22.371094 11.800781 22.371094 C 11.796875 22.382812 11.796875 22.394531 11.796875 22.40625 L 11.796875 25.652344 C 11.796875 25.703125 11.824219 25.753906 11.871094 25.777344 L 14.875 27.402344 C 14.875 27.402344 14.878906 27.402344 14.878906 27.402344 C 14.882812 27.40625 14.890625 27.40625 14.894531 27.410156 C 14.898438 27.410156 14.902344 27.410156 14.90625 27.414062 C 14.917969 27.417969 14.929688 27.417969 14.945312 27.417969 C 14.957031 27.417969 14.96875 27.417969 14.980469 27.414062 C 14.984375 27.410156 14.988281 27.410156 14.992188 27.410156 C 14.996094 27.40625 15.003906 27.40625 15.007812 27.402344 C 15.007812 27.402344 15.011719 27.402344 15.011719 27.402344 L 18.015625 25.777344 C 18.0625 25.753906 18.089844 25.703125 18.089844 25.652344 L 18.089844 22.40625 C 18.089844 22.394531 18.089844 22.382812 18.085938 22.371094 C 18.085938 22.371094 18.085938 22.371094 18.085938 22.367188 " fill-opacity="1" fill-rule="nonzero"/></g><path fill="#ffffff" d="M 26.8125 11.023438 L 24.097656 12.492188 L 24.097656 9.570312 L 25.816406 8.640625 L 26.8125 8.101562 Z M 23.953125 9.324219 L 23.671875 9.171875 L 21.25 7.863281 L 23.953125 6.402344 L 26.65625 7.863281 L 24.8125 8.859375 Z M 23.808594 12.492188 L 21.09375 11.023438 L 21.09375 8.101562 L 21.933594 8.558594 L 23.808594 9.570312 Z M 27.09375 7.828125 C 27.09375 7.816406 27.085938 7.804688 27.082031 7.792969 C 27.074219 7.78125 27.070312 7.773438 27.0625 7.765625 C 27.058594 7.765625 27.058594 7.765625 27.058594 7.761719 C 27.050781 7.753906 27.042969 7.75 27.03125 7.742188 C 27.03125 7.742188 27.027344 7.742188 27.027344 7.742188 C 27.027344 7.738281 27.027344 7.738281 27.027344 7.738281 L 24.023438 6.113281 C 23.980469 6.09375 23.925781 6.09375 23.882812 6.113281 L 20.882812 7.738281 C 20.878906 7.738281 20.878906 7.738281 20.878906 7.742188 C 20.878906 7.742188 20.878906 7.742188 20.875 7.742188 C 20.863281 7.75 20.855469 7.753906 20.847656 7.761719 C 20.847656 7.765625 20.847656 7.765625 20.847656 7.765625 C 20.839844 7.773438 20.832031 7.78125 20.824219 7.792969 C 20.820312 7.804688 20.8125 7.816406 20.8125 7.828125 C 20.808594 7.839844 20.804688 7.851562 20.804688 7.863281 L 20.804688 11.109375 C 20.804688 11.160156 20.835938 11.210938 20.882812 11.234375 L 23.882812 12.859375 C 23.886719 12.859375 23.886719 12.859375 23.886719 12.859375 C 23.894531 12.863281 23.898438 12.863281 23.90625 12.867188 C 23.910156 12.867188 23.914062 12.867188 23.917969 12.871094 C 23.929688 12.875 23.941406 12.875 23.953125 12.875 C 23.964844 12.875 23.976562 12.875 23.988281 12.871094 C 23.992188 12.867188 23.996094 12.867188 24 12.867188 C 24.007812 12.863281 24.011719 12.863281 24.019531 12.859375 C 24.019531 12.859375 24.019531 12.859375 24.023438 12.859375 L 27.027344 11.234375 C 27.070312 11.210938 27.101562 11.160156 27.101562 11.109375 L 27.101562 7.863281 C 27.101562 7.851562 27.097656 7.839844 27.097656 7.828125 C 27.09375 7.828125 27.09375 7.828125 27.09375 7.828125 " fill-opacity="1" fill-rule="nonzero"/><path fill="#ffffff" d="M 26.8125 20.765625 L 24.097656 22.230469 L 24.097656 19.308594 L 25.464844 18.570312 L 26.8125 17.84375 Z M 27.09375 17.566406 C 27.09375 17.554688 27.085938 17.542969 27.082031 17.535156 C 27.082031 17.53125 27.082031 17.53125 27.082031 17.53125 C 27.074219 17.523438 27.070312 17.511719 27.0625 17.503906 C 27.058594 17.503906 27.058594 17.503906 27.058594 17.503906 C 27.050781 17.496094 27.042969 17.488281 27.03125 17.480469 C 27.03125 17.480469 27.027344 17.480469 27.027344 17.480469 C 27.027344 17.480469 27.027344 17.476562 27.027344 17.476562 L 24.433594 16.074219 L 24.429688 16.398438 L 26.65625 17.601562 L 23.953125 19.0625 L 21.25 17.601562 L 23.464844 16.402344 L 23.46875 16.078125 L 20.882812 17.476562 C 20.878906 17.476562 20.878906 17.480469 20.878906 17.480469 C 20.878906 17.480469 20.878906 17.480469 20.875 17.480469 C 20.863281 17.488281 20.855469 17.496094 20.847656 17.503906 C 20.839844 17.511719 20.832031 17.523438 20.824219 17.53125 C 20.824219 17.53125 20.824219 17.53125 20.824219 17.535156 C 20.820312 17.542969 20.8125 17.554688 20.8125 17.566406 C 20.808594 17.578125 20.804688 17.589844 20.804688 17.601562 L 20.804688 20.230469 L 21.09375 20.066406 L 21.09375 17.84375 L 22.390625 18.542969 L 23.808594 19.308594 L 23.808594 22.230469 L 21.457031 20.960938 L 21.164062 21.125 L 23.882812 22.597656 C 23.886719 22.597656 23.886719 22.597656 23.886719 22.597656 C 23.894531 22.601562 23.898438 22.601562 23.90625 22.605469 C 23.910156 22.605469 23.914062 22.609375 23.917969 22.609375 C 23.929688 22.613281 23.941406 22.613281 23.953125 22.613281 C 23.964844 22.613281 23.976562 22.613281 23.988281 22.609375 C 23.992188 22.609375 23.996094 22.605469 24 22.605469 C 24.007812 22.601562 24.011719 22.601562 24.019531 22.597656 C 24.019531 22.597656 24.019531 22.597656 24.023438 22.597656 L 27.027344 20.972656 C 27.070312 20.949219 27.101562 20.902344 27.101562 20.847656 L 27.101562 17.601562 C 27.101562 17.589844 27.097656 17.578125 27.097656 17.566406 C 27.09375 17.566406 27.09375 17.566406 27.09375 17.566406 " fill-opacity="1" fill-rule="nonzero"/><path fill="#ffffff" d="M 23.9375 17.824219 C 23.9375 17.824219 23.941406 17.824219 23.941406 17.824219 C 24.035156 17.824219 24.109375 17.75 24.109375 17.660156 L 24.117188 16.230469 L 24.117188 15.90625 L 24.128906 13.5 C 24.128906 13.414062 24.058594 13.34375 23.96875 13.34375 C 23.96875 13.34375 23.964844 13.34375 23.964844 13.34375 C 23.875 13.347656 23.796875 13.421875 23.796875 13.511719 L 23.785156 15.90625 L 23.785156 16.234375 L 23.777344 17.671875 C 23.777344 17.699219 23.785156 17.722656 23.796875 17.746094 C 23.824219 17.792969 23.875 17.824219 23.9375 17.824219 " fill-opacity="1" fill-rule="nonzero"/><path fill="#ffffff" d="M 14.972656 13.140625 C 14.972656 13.140625 14.976562 13.140625 14.976562 13.140625 C 15.070312 13.140625 15.144531 13.066406 15.144531 12.976562 L 15.152344 11.320312 L 15.152344 10.996094 L 15.164062 8.816406 C 15.164062 8.730469 15.09375 8.660156 15.003906 8.660156 C 15.003906 8.660156 15.003906 8.660156 15 8.660156 C 14.910156 8.664062 14.835938 8.738281 14.832031 8.828125 L 14.824219 10.945312 L 14.820312 11.273438 L 14.8125 12.988281 C 14.8125 13.015625 14.820312 13.039062 14.832031 13.0625 C 14.859375 13.109375 14.910156 13.140625 14.972656 13.140625 " fill-opacity="1" fill-rule="nonzero"/><path fill="#ffffff" d="M 9.535156 7.804688 C 9.5625 7.804688 9.589844 7.796875 9.613281 7.785156 L 11.9375 6.464844 L 12.230469 6.300781 L 13.265625 5.714844 C 13.34375 5.667969 13.371094 5.570312 13.328125 5.488281 C 13.300781 5.433594 13.242188 5.402344 13.1875 5.402344 C 13.160156 5.402344 13.132812 5.410156 13.109375 5.421875 L 12.085938 6.003906 L 11.796875 6.167969 L 9.457031 7.492188 C 9.382812 7.539062 9.351562 7.636719 9.394531 7.71875 C 9.425781 7.773438 9.480469 7.804688 9.535156 7.804688 " fill-opacity="1" fill-rule="nonzero"/><g clip-path="url(#31871cfe6a)"><path fill="#ffffff" d="M 3.21875 11.101562 L 4.398438 10.433594 C 4.476562 10.390625 4.503906 10.289062 4.460938 10.207031 C 4.433594 10.152344 4.378906 10.121094 4.320312 10.121094 C 4.296875 10.121094 4.269531 10.128906 4.246094 10.140625 L 3.074219 10.804688 L 2.785156 10.96875 L 0.59375 12.214844 C 0.515625 12.257812 0.488281 12.359375 0.527344 12.4375 C 0.558594 12.492188 0.613281 12.523438 0.671875 12.523438 C 0.695312 12.523438 0.722656 12.515625 0.746094 12.503906 L 2.925781 11.269531 L 3.21875 11.101562 " fill-opacity="1" fill-rule="nonzero"/></g><path fill="#ffffff" d="M 9.53125 17.238281 C 9.558594 17.292969 9.613281 17.324219 9.671875 17.324219 C 9.699219 17.324219 9.722656 17.316406 9.75 17.304688 L 11.925781 16.070312 L 12.21875 15.902344 L 13.398438 15.234375 C 13.476562 15.191406 13.507812 15.089844 13.464844 15.007812 C 13.433594 14.953125 13.378906 14.921875 13.324219 14.921875 C 13.296875 14.921875 13.269531 14.929688 13.246094 14.941406 L 12.085938 15.601562 L 11.796875 15.765625 L 9.59375 17.015625 C 9.515625 17.058594 9.488281 17.160156 9.53125 17.238281 " fill-opacity="1" fill-rule="nonzero"/><path fill="#ffffff" d="M 11.277344 21.835938 L 9.082031 20.589844 L 8.792969 20.425781 L 7.625 19.765625 C 7.601562 19.75 7.574219 19.746094 7.550781 19.746094 C 7.492188 19.746094 7.4375 19.773438 7.410156 19.832031 C 7.367188 19.910156 7.394531 20.011719 7.472656 20.054688 L 8.757812 20.785156 L 9.042969 20.945312 L 11.125 22.125 C 11.148438 22.140625 11.175781 22.144531 11.199219 22.144531 C 11.257812 22.144531 11.3125 22.113281 11.34375 22.058594 C 11.382812 21.980469 11.355469 21.878906 11.277344 21.835938 " fill-opacity="1" fill-rule="nonzero"/><path fill="#ffffff" d="M 22.476562 19.832031 C 22.449219 19.773438 22.394531 19.746094 22.335938 19.746094 C 22.3125 19.746094 22.285156 19.75 22.261719 19.765625 L 21.09375 20.425781 L 20.804688 20.589844 L 18.609375 21.835938 C 18.53125 21.878906 18.503906 21.980469 18.546875 22.058594 C 18.574219 22.113281 18.628906 22.144531 18.6875 22.144531 C 18.710938 22.144531 18.738281 22.140625 18.761719 22.125 L 20.84375 20.945312 L 21.128906 20.785156 L 22.414062 20.054688 C 22.492188 20.011719 22.519531 19.910156 22.476562 19.832031 " fill-opacity="1" fill-rule="nonzero"/></svg>