<svg xmlns="http://www.w3.org/2000/svg" xmlns:xlink="http://www.w3.org/1999/xlink" width="40" zoomAndPan="magnify" viewBox="0 0 30 30.000001" height="40" preserveAspectRatio="xMidYMid meet" version="1.0"><defs><clipPath id="34448ea5ce"><path d="M 8 17 L 22 17 L 22 29.03125 L 8 29.03125 Z M 8 17 " clip-rule="nonzero"/></clipPath><clipPath id="a7f4a69946"><path d="M 2.425781 9 L 6 9 L 6 13 L 2.425781 13 Z M 2.425781 9 " clip-rule="nonzero"/></clipPath><clipPath id="50f2356fd9"><path d="M 24 19 L 27.828125 19 L 27.828125 23 L 24 23 Z M 24 19 " clip-rule="nonzero"/></clipPath></defs><path fill="#ffffff" d="M 22.074219 15.578125 C 22.078125 15.5625 22.078125 15.546875 22.078125 15.527344 C 22.082031 15.507812 22.089844 15.488281 22.089844 15.464844 C 22.089844 15.457031 22.085938 15.449219 22.085938 15.441406 C 22.082031 15.421875 22.082031 15.40625 22.078125 15.386719 C 22.074219 15.359375 22.066406 15.328125 22.054688 15.300781 C 22.050781 15.292969 22.050781 15.285156 22.050781 15.273438 L 15.574219 0.304688 C 15.5 0.125 15.324219 0.0117188 15.128906 0.0117188 C 14.929688 0.0117188 14.753906 0.125 14.679688 0.304688 L 8.207031 15.273438 C 8.203125 15.28125 8.203125 15.292969 8.199219 15.300781 C 8.1875 15.328125 8.183594 15.355469 8.175781 15.386719 C 8.175781 15.40625 8.171875 15.421875 8.171875 15.441406 C 8.167969 15.449219 8.167969 15.457031 8.167969 15.464844 C 8.167969 15.488281 8.171875 15.507812 8.175781 15.527344 C 8.175781 15.542969 8.179688 15.5625 8.183594 15.578125 C 8.191406 15.609375 8.203125 15.640625 8.21875 15.671875 C 8.222656 15.683594 8.226562 15.695312 8.234375 15.707031 C 8.257812 15.75 8.285156 15.785156 8.320312 15.816406 C 8.324219 15.820312 8.324219 15.820312 8.324219 15.820312 C 8.332031 15.828125 8.339844 15.832031 8.347656 15.839844 C 8.375 15.855469 8.398438 15.878906 8.425781 15.890625 L 14.898438 19.292969 C 14.96875 19.332031 15.046875 19.351562 15.128906 19.351562 C 15.207031 19.351562 15.285156 19.332031 15.355469 19.292969 L 21.828125 15.890625 C 21.859375 15.875 21.886719 15.851562 21.914062 15.828125 C 21.921875 15.824219 21.925781 15.824219 21.929688 15.820312 C 21.929688 15.820312 21.933594 15.820312 21.933594 15.816406 C 21.96875 15.785156 21.996094 15.75 22.019531 15.707031 C 22.027344 15.695312 22.03125 15.683594 22.035156 15.671875 C 22.050781 15.640625 22.0625 15.613281 22.074219 15.578125 Z M 15.617188 11.773438 L 15.617188 2.851562 L 20.605469 14.394531 Z M 14.636719 2.851562 L 14.636719 11.773438 L 9.648438 14.394531 Z M 14.636719 12.867188 L 14.636719 18.0625 L 9.695312 15.464844 Z M 15.617188 18.0625 L 15.617188 12.867188 L 20.558594 15.464844 Z M 15.617188 18.0625 " fill-opacity="1" fill-rule="nonzero"/><g clip-path="url(#34448ea5ce)"><path fill="#ffffff" d="M 21.25 17.472656 L 15.128906 20.679688 L 9.003906 17.472656 C 8.8125 17.371094 8.574219 17.410156 8.421875 17.566406 C 8.273438 17.722656 8.246094 17.960938 8.355469 18.148438 L 14.707031 28.785156 C 14.792969 28.929688 14.953125 29.019531 15.128906 29.019531 C 15.300781 29.019531 15.460938 28.929688 15.546875 28.785156 L 21.898438 18.148438 C 22.011719 17.960938 21.980469 17.722656 21.832031 17.566406 C 21.679688 17.410156 21.445312 17.371094 21.25 17.472656 Z M 14.636719 21.515625 L 14.636719 26.769531 L 10.078125 19.128906 Z M 15.617188 26.769531 L 15.617188 21.515625 L 20.175781 19.128906 Z M 15.617188 26.769531 " fill-opacity="1" fill-rule="nonzero"/></g><g clip-path="url(#a7f4a69946)"><path fill="#ffffff" d="M 3.890625 9.679688 C 3.082031 9.679688 2.425781 10.332031 2.425781 11.132812 C 2.425781 11.929688 3.082031 12.582031 3.890625 12.582031 C 4.699219 12.582031 5.355469 11.929688 5.355469 11.132812 C 5.355469 10.332031 4.699219 9.679688 3.890625 9.679688 Z M 3.890625 11.613281 C 3.621094 11.613281 3.402344 11.398438 3.402344 11.132812 C 3.402344 10.863281 3.621094 10.648438 3.890625 10.648438 C 4.160156 10.648438 4.378906 10.863281 4.378906 11.132812 C 4.378906 11.398438 4.160156 11.613281 3.890625 11.613281 Z M 3.890625 11.613281 " fill-opacity="1" fill-rule="nonzero"/></g><g clip-path="url(#50f2356fd9)"><path fill="#ffffff" d="M 26.363281 19.351562 C 25.554688 19.351562 24.898438 20.003906 24.898438 20.800781 C 24.898438 21.601562 25.554688 22.253906 26.363281 22.253906 C 27.171875 22.253906 27.828125 21.601562 27.828125 20.800781 C 27.828125 20.003906 27.171875 19.351562 26.363281 19.351562 Z M 26.363281 21.285156 C 26.09375 21.285156 25.875 21.066406 25.875 20.800781 C 25.875 20.535156 26.09375 20.316406 26.363281 20.316406 C 26.632812 20.316406 26.851562 20.535156 26.851562 20.800781 C 26.851562 21.066406 26.632812 21.285156 26.363281 21.285156 Z M 26.363281 21.285156 " fill-opacity="1" fill-rule="nonzero"/></g><path fill="#ffffff" d="M 24.898438 6.78125 L 24.898438 5.8125 L 23.921875 5.8125 L 23.921875 4.847656 L 22.945312 4.847656 L 22.945312 5.8125 L 21.964844 5.8125 L 21.964844 6.78125 L 22.945312 6.78125 L 22.945312 7.746094 L 23.921875 7.746094 L 23.921875 6.78125 Z M 24.898438 6.78125 " fill-opacity="1" fill-rule="nonzero"/><path fill="#ffffff" d="M 7.800781 21.769531 L 6.820312 21.769531 L 6.820312 22.734375 L 5.84375 22.734375 L 5.84375 23.703125 L 6.820312 23.703125 L 6.820312 24.667969 L 7.800781 24.667969 L 7.800781 23.703125 L 8.777344 23.703125 L 8.777344 22.734375 L 7.800781 22.734375 Z M 7.800781 21.769531 " fill-opacity="1" fill-rule="nonzero"/><path fill="#ffffff" d="M 6.820312 4.847656 L 7.800781 4.847656 L 7.800781 5.8125 L 6.820312 5.8125 Z M 6.820312 4.847656 " fill-opacity="1" fill-rule="nonzero"/><path fill="#ffffff" d="M 25.875 13.550781 L 26.851562 13.550781 L 26.851562 14.515625 L 25.875 14.515625 Z M 25.875 13.550781 " fill-opacity="1" fill-rule="nonzero"/><path fill="#ffffff" d="M 5.355469 17.417969 L 6.332031 17.417969 L 6.332031 18.382812 L 5.355469 18.382812 Z M 5.355469 17.417969 " fill-opacity="1" fill-rule="nonzero"/></svg>