<svg xmlns="http://www.w3.org/2000/svg" xmlns:xlink="http://www.w3.org/1999/xlink" width="40" zoomAndPan="magnify" viewBox="0 0 30 30.000001" height="40" preserveAspectRatio="xMidYMid meet" version="1.0"><defs><clipPath id="f1979f9f79"><path d="M 0.628906 0 L 21 0 L 21 17 L 0.628906 17 Z M 0.628906 0 " clip-rule="nonzero"/></clipPath><clipPath id="5a2d29722a"><path d="M 0.628906 0 L 22 0 L 22 17 L 0.628906 17 Z M 0.628906 0 " clip-rule="nonzero"/></clipPath><clipPath id="be70eae005"><path d="M 9 14 L 29.515625 14 L 29.515625 29 L 9 29 Z M 9 14 " clip-rule="nonzero"/></clipPath><clipPath id="4bf7c63e92"><path d="M 9.449219 14.570312 L 29.515625 14.570312 L 29.515625 29.027344 L 9.449219 29.027344 Z M 9.449219 14.570312 " clip-rule="nonzero"/></clipPath></defs><g clip-path="url(#f1979f9f79)"><path fill="#ffffff" d="M 15.859375 1.539062 C 15.859375 1.539062 15.546875 0.539062 14.996094 0.511719 C 14.445312 0.484375 11.324219 -0.00390625 10.199219 0.855469 C 9.070312 1.714844 7.886719 5.40625 7.308594 5.921875 C 6.730469 6.433594 0.75 6.320312 0.75 6.320312 L 1.207031 16.679688 C 1.207031 16.679688 6.121094 15.105469 8.664062 15.25 C 11.210938 15.390625 13.058594 15.714844 14.1875 15.238281 C 15.3125 14.761719 18.957031 14.535156 19.449219 13.789062 C 19.941406 13.046875 20.054688 11.699219 19.996094 11.558594 C 19.941406 11.414062 20.777344 10.957031 20.605469 9.867188 C 20.429688 8.78125 21.097656 8.152344 20.980469 7.207031 C 20.863281 6.265625 19.96875 5.777344 20.085938 4.203125 C 20.199219 2.628906 18.839844 1.429688 17.335938 1.429688 C 15.835938 1.429688 12.914062 2.027344 12.914062 2.027344 L 15.859375 1.539062 " fill-opacity="1" fill-rule="nonzero"/></g><g clip-path="url(#5a2d29722a)"><path fill="#000000" d="M 0.871094 6.4375 L 1.316406 16.523438 C 2.164062 16.257812 6.351562 15.003906 8.671875 15.132812 C 9.285156 15.167969 9.847656 15.210938 10.390625 15.253906 C 12.023438 15.382812 13.3125 15.484375 14.140625 15.132812 C 14.597656 14.941406 15.433594 14.789062 16.316406 14.632812 C 17.546875 14.410156 19.078125 14.136719 19.351562 13.726562 C 19.832031 12.992188 19.921875 11.714844 19.886719 11.597656 C 19.847656 11.496094 19.921875 11.40625 20.035156 11.273438 C 20.25 11.023438 20.605469 10.609375 20.488281 9.886719 C 20.394531 9.285156 20.539062 8.828125 20.679688 8.382812 C 20.800781 8 20.914062 7.644531 20.863281 7.222656 C 20.820312 6.875 20.660156 6.582031 20.492188 6.273438 C 20.210938 5.765625 19.894531 5.1875 19.96875 4.195312 C 20.015625 3.53125 19.789062 2.890625 19.320312 2.394531 C 18.8125 1.855469 18.089844 1.542969 17.335938 1.542969 C 15.863281 1.542969 12.96875 2.136719 12.9375 2.140625 C 12.875 2.15625 12.8125 2.113281 12.800781 2.050781 C 12.789062 1.988281 12.828125 1.929688 12.890625 1.914062 C 12.972656 1.898438 14.359375 1.617188 15.703125 1.441406 C 15.582031 1.140625 15.320312 0.644531 14.992188 0.628906 C 14.90625 0.625 14.769531 0.609375 14.597656 0.589844 C 13.578125 0.488281 11.195312 0.242188 10.269531 0.945312 C 9.621094 1.441406 8.929688 2.957031 8.371094 4.171875 C 7.960938 5.070312 7.636719 5.78125 7.386719 6.007812 C 6.820312 6.511719 1.886719 6.457031 0.871094 6.4375 Z M 1.207031 16.792969 C 1.183594 16.792969 1.160156 16.789062 1.140625 16.773438 C 1.109375 16.753906 1.089844 16.71875 1.089844 16.683594 L 0.632812 6.324219 C 0.632812 6.292969 0.644531 6.261719 0.667969 6.238281 C 0.6875 6.21875 0.71875 6.203125 0.753906 6.207031 C 3.136719 6.25 6.828125 6.191406 7.230469 5.835938 C 7.445312 5.640625 7.792969 4.882812 8.160156 4.078125 C 8.757812 2.773438 9.433594 1.292969 10.125 0.765625 C 11.128906 0 13.574219 0.253906 14.621094 0.363281 C 14.792969 0.378906 14.925781 0.394531 15.003906 0.398438 C 15.523438 0.425781 15.839844 1.152344 15.9375 1.414062 C 16.449219 1.351562 16.941406 1.3125 17.335938 1.3125 C 18.15625 1.3125 18.941406 1.648438 19.492188 2.238281 C 20.003906 2.78125 20.253906 3.480469 20.199219 4.210938 C 20.132812 5.136719 20.417969 5.660156 20.695312 6.164062 C 20.878906 6.492188 21.046875 6.804688 21.097656 7.195312 C 21.152344 7.664062 21.027344 8.066406 20.902344 8.453125 C 20.769531 8.871094 20.632812 9.304688 20.71875 9.851562 C 20.851562 10.679688 20.4375 11.164062 20.214844 11.421875 C 20.175781 11.464844 20.132812 11.519531 20.113281 11.546875 C 20.167969 11.820312 20.035156 13.109375 19.546875 13.851562 C 19.21875 14.34375 17.765625 14.605469 16.359375 14.859375 C 15.488281 15.015625 14.664062 15.164062 14.234375 15.34375 C 13.351562 15.71875 12.035156 15.617188 10.371094 15.484375 C 9.832031 15.441406 9.269531 15.398438 8.660156 15.363281 C 7.628906 15.304688 6.023438 15.535156 4.011719 16.023438 C 2.484375 16.390625 1.253906 16.785156 1.242188 16.789062 C 1.230469 16.792969 1.21875 16.792969 1.207031 16.792969 " fill-opacity="1" fill-rule="nonzero"/></g><g clip-path="url(#be70eae005)"><path fill="#ffffff" d="M 13.6875 15.609375 C 13.6875 15.609375 11.632812 15.910156 11.355469 16.109375 C 10.296875 16.867188 9.917969 18.820312 9.984375 19.132812 C 10.054688 19.449219 10.34375 19.734375 10.34375 19.734375 C 10.34375 19.734375 9.792969 20.058594 9.667969 20.679688 C 9.382812 22.085938 10.273438 23.199219 10.273438 23.199219 C 10.273438 23.199219 10.179688 23.4375 10.066406 23.761719 C 9.433594 25.609375 10.992188 26.292969 10.992188 26.292969 C 10.601562 26.851562 10.902344 28.28125 11.816406 28.511719 C 13.339844 28.890625 19.273438 27.824219 21.183594 27.535156 C 23.089844 27.25 29.539062 28.910156 29.539062 28.910156 L 29.539062 19.953125 C 29.539062 19.953125 23.898438 20.039062 23.207031 19.46875 C 22.511719 18.894531 22.53125 18.191406 21.152344 17.050781 C 20.53125 16.535156 18.984375 14.832031 18.683594 14.746094 C 18.378906 14.660156 15.34375 15.03125 14.203125 15.320312 C 13.058594 15.605469 10.210938 19.839844 13.203125 19.410156 C 16.195312 18.980469 16.53125 17.292969 16.53125 17.292969 L 13.6875 15.609375 " fill-opacity="1" fill-rule="nonzero"/></g><g clip-path="url(#4bf7c63e92)"><path fill="#000000" d="M 21.71875 27.386719 C 22.636719 27.386719 24.101562 27.59375 26.101562 28.003906 C 27.613281 28.3125 28.984375 28.652344 29.421875 28.761719 L 29.421875 20.070312 C 28.464844 20.082031 23.804688 20.109375 23.132812 19.554688 C 22.828125 19.308594 22.65625 19.035156 22.460938 18.726562 C 22.183594 18.289062 21.867188 17.792969 21.078125 17.136719 C 20.816406 16.921875 20.410156 16.515625 19.980469 16.085938 C 19.484375 15.585938 18.800781 14.898438 18.648438 14.859375 C 18.40625 14.789062 15.429688 15.128906 14.230469 15.429688 C 13.484375 15.617188 11.804688 17.804688 12.011719 18.835938 C 12.09375 19.242188 12.488281 19.394531 13.1875 19.296875 C 14.015625 19.175781 15.15625 18.878906 15.894531 18.125 C 16.328125 17.675781 16.417969 17.273438 16.417969 17.269531 C 16.429688 17.207031 16.492188 17.167969 16.554688 17.179688 C 16.617188 17.191406 16.660156 17.253906 16.648438 17.316406 C 16.632812 17.386719 16.257812 19.089844 13.21875 19.523438 C 12.167969 19.675781 11.859375 19.257812 11.78125 18.878906 C 11.613281 18.035156 12.5 16.589844 13.324219 15.78125 C 12.554688 15.90625 11.582031 16.089844 11.421875 16.203125 C 10.375 16.957031 10.050781 18.882812 10.101562 19.109375 C 10.160156 19.386719 10.421875 19.652344 10.425781 19.652344 C 10.449219 19.679688 10.460938 19.714844 10.457031 19.75 C 10.453125 19.785156 10.433594 19.816406 10.402344 19.835938 C 10.398438 19.835938 9.894531 20.140625 9.78125 20.703125 C 9.511719 22.039062 10.359375 23.113281 10.367188 23.125 C 10.390625 23.15625 10.398438 23.203125 10.382812 23.242188 C 10.382812 23.242188 10.285156 23.480469 10.179688 23.796875 C 9.589844 25.523438 10.980469 26.160156 11.039062 26.1875 C 11.070312 26.199219 11.09375 26.226562 11.105469 26.261719 C 11.113281 26.292969 11.109375 26.328125 11.089844 26.359375 C 10.902344 26.625 10.894531 27.148438 11.066406 27.605469 C 11.226562 28.023438 11.507812 28.3125 11.84375 28.398438 C 13.109375 28.714844 17.613281 27.992188 20.027344 27.601562 C 20.480469 27.53125 20.871094 27.46875 21.164062 27.421875 C 21.320312 27.398438 21.503906 27.386719 21.71875 27.386719 Z M 29.539062 29.027344 C 29.53125 29.027344 29.519531 29.023438 29.511719 29.023438 C 29.445312 29.007812 23.0625 27.371094 21.199219 27.652344 C 20.90625 27.695312 20.519531 27.757812 20.066406 27.832031 C 17.460938 28.25 13.101562 28.949219 11.789062 28.621094 C 11.375 28.519531 11.035156 28.175781 10.847656 27.683594 C 10.667969 27.210938 10.664062 26.679688 10.832031 26.335938 C 10.46875 26.125 9.402344 25.347656 9.957031 23.722656 C 10.035156 23.496094 10.105469 23.304688 10.140625 23.214844 C 9.964844 22.96875 9.292969 21.941406 9.554688 20.65625 C 9.652344 20.167969 9.988281 19.851562 10.167969 19.714844 C 10.070312 19.597656 9.921875 19.386719 9.871094 19.15625 C 9.796875 18.800781 10.199219 16.796875 11.285156 16.015625 C 11.566406 15.816406 13.246094 15.558594 13.648438 15.5 C 13.839844 15.347656 14.019531 15.246094 14.171875 15.207031 C 15.3125 14.921875 18.367188 14.539062 18.714844 14.636719 C 18.910156 14.691406 19.386719 15.160156 20.148438 15.921875 C 20.554688 16.332031 20.976562 16.753906 21.230469 16.960938 C 22.046875 17.640625 22.386719 18.171875 22.65625 18.601562 C 22.84375 18.898438 23.007812 19.152344 23.28125 19.378906 C 23.765625 19.777344 27.289062 19.875 29.539062 19.839844 C 29.570312 19.839844 29.597656 19.851562 29.621094 19.871094 C 29.644531 19.894531 29.65625 19.921875 29.65625 19.953125 L 29.65625 28.910156 C 29.65625 28.945312 29.640625 28.980469 29.609375 29 C 29.589844 29.019531 29.566406 29.027344 29.539062 29.027344 " fill-opacity="1" fill-rule="nonzero"/></g><path fill="#000000" d="M 12.8125 16.660156 C 12.785156 16.660156 12.757812 16.648438 12.738281 16.632812 C 12.605469 16.519531 12.234375 16.4375 12.101562 16.417969 C 12.039062 16.40625 11.996094 16.347656 12.007812 16.285156 C 12.015625 16.21875 12.078125 16.175781 12.140625 16.1875 C 12.195312 16.195312 12.6875 16.28125 12.890625 16.457031 C 12.9375 16.5 12.945312 16.570312 12.902344 16.621094 C 12.878906 16.644531 12.847656 16.660156 12.8125 16.660156 " fill-opacity="1" fill-rule="nonzero"/><path fill="#000000" d="M 12.925781 28.707031 C 12.867188 28.707031 12.820312 28.667969 12.808594 28.609375 C 12.796875 28.546875 12.839844 28.488281 12.902344 28.476562 C 13.261719 28.410156 15.378906 27.5625 15.699219 26.886719 C 15.90625 26.449219 15.703125 25.765625 15.390625 25.425781 C 15.308594 25.332031 15.140625 25.183594 14.976562 25.242188 C 14.871094 25.285156 12.285156 26.300781 11.003906 26.40625 C 10.9375 26.414062 10.882812 26.367188 10.875 26.300781 C 10.871094 26.238281 10.917969 26.183594 10.984375 26.175781 C 12.230469 26.074219 14.867188 25.035156 14.894531 25.027344 C 15.117188 24.949219 15.351562 25.035156 15.566406 25.269531 C 16.035156 25.785156 16.113281 26.5625 15.910156 26.984375 C 15.535156 27.785156 13.261719 28.644531 12.945312 28.703125 C 12.9375 28.703125 12.929688 28.707031 12.925781 28.707031 " fill-opacity="1" fill-rule="nonzero"/><path fill="#000000" d="M 14.9375 25.25 C 14.890625 25.25 14.847656 25.222656 14.828125 25.175781 C 14.804688 25.117188 14.835938 25.050781 14.894531 25.027344 C 15.023438 24.976562 15.386719 24.816406 15.511719 24.6875 C 15.769531 24.425781 15.679688 23.6875 15.433594 23.234375 C 15.328125 23.042969 15.226562 22.964844 15.179688 22.972656 C 15.144531 22.980469 15.082031 22.996094 14.992188 23.019531 C 14.632812 23.117188 13.886719 23.320312 12.558594 23.472656 C 10.933594 23.664062 10.453125 23.417969 10.246094 23.3125 L 10.222656 23.300781 C 10.164062 23.273438 10.140625 23.203125 10.171875 23.144531 C 10.199219 23.089844 10.269531 23.066406 10.328125 23.09375 L 10.351562 23.105469 C 10.523438 23.195312 10.976562 23.425781 12.53125 23.246094 C 13.84375 23.09375 14.578125 22.894531 14.929688 22.796875 C 15.027344 22.769531 15.09375 22.753906 15.136719 22.746094 C 15.3125 22.714844 15.492188 22.847656 15.640625 23.125 C 15.890625 23.585938 16.046875 24.46875 15.679688 24.847656 C 15.5 25.035156 15.035156 25.21875 14.980469 25.242188 C 14.96875 25.246094 14.953125 25.25 14.9375 25.25 " fill-opacity="1" fill-rule="nonzero"/><path fill="#000000" d="M 14.605469 20.558594 C 14.058594 20.558594 13.421875 20.476562 12.851562 20.40625 C 12.367188 20.34375 11.910156 20.285156 11.636719 20.296875 C 10.96875 20.328125 10.300781 19.847656 10.273438 19.828125 C 10.222656 19.789062 10.210938 19.71875 10.25 19.667969 C 10.285156 19.617188 10.359375 19.605469 10.410156 19.640625 C 10.417969 19.644531 11.042969 20.09375 11.628906 20.066406 C 11.921875 20.054688 12.367188 20.113281 12.882812 20.175781 C 13.503906 20.257812 14.210938 20.347656 14.78125 20.324219 C 15.0625 20.316406 15.328125 20.152344 15.5625 19.847656 C 16.015625 19.257812 16.191406 18.355469 16.109375 18.015625 C 16.097656 17.953125 16.132812 17.890625 16.195312 17.875 C 16.257812 17.859375 16.324219 17.898438 16.335938 17.960938 C 16.445312 18.414062 16.21875 19.375 15.75 19.984375 C 15.472656 20.347656 15.140625 20.542969 14.789062 20.554688 C 14.730469 20.558594 14.667969 20.558594 14.605469 20.558594 " fill-opacity="1" fill-rule="nonzero"/><path fill="#000000" d="M 14.84375 23.054688 C 14.789062 23.054688 14.742188 23.019531 14.730469 22.964844 C 14.714844 22.902344 14.753906 22.84375 14.816406 22.828125 C 15.457031 22.683594 15.617188 22.460938 15.714844 22.328125 C 15.726562 22.308594 15.742188 22.292969 15.753906 22.277344 C 15.816406 22.171875 16.03125 21.289062 15.753906 20.808594 C 15.625 20.585938 15.414062 20.480469 15.105469 20.488281 C 15.042969 20.488281 14.988281 20.4375 14.988281 20.375 C 14.984375 20.308594 15.035156 20.257812 15.101562 20.257812 C 15.511719 20.246094 15.816406 20.414062 15.984375 20.742188 C 16.28125 21.335938 16.042969 22.285156 15.9375 22.417969 C 15.925781 22.433594 15.914062 22.445312 15.902344 22.460938 C 15.789062 22.621094 15.59375 22.890625 14.867188 23.054688 C 14.859375 23.054688 14.851562 23.054688 14.84375 23.054688 " fill-opacity="1" fill-rule="nonzero"/><path fill="#000000" d="M 14.847656 18.9375 Z M 14.851562 18.945312 Z M 14.847656 19.4375 C 14.832031 19.4375 14.816406 19.433594 14.800781 19.429688 C 14.742188 19.40625 14.714844 19.335938 14.738281 19.277344 C 14.796875 19.136719 14.847656 18.980469 14.847656 18.9375 C 14.835938 18.878906 14.875 18.820312 14.933594 18.808594 C 14.996094 18.792969 15.0625 18.828125 15.078125 18.890625 C 15.082031 18.917969 15.105469 19.003906 14.953125 19.367188 C 14.9375 19.410156 14.890625 19.4375 14.847656 19.4375 " fill-opacity="1" fill-rule="nonzero"/><path fill="#000000" d="M 21.402344 26.78125 C 21.382812 26.78125 21.363281 26.777344 21.34375 26.765625 C 21.289062 26.734375 21.269531 26.664062 21.300781 26.609375 C 21.792969 25.738281 21.417969 23.101562 21.414062 23.078125 C 21.40625 23.011719 21.449219 22.953125 21.511719 22.945312 C 21.578125 22.9375 21.636719 22.980469 21.644531 23.042969 C 21.660156 23.15625 22.03125 25.78125 21.503906 26.722656 C 21.480469 26.757812 21.441406 26.78125 21.402344 26.78125 " fill-opacity="1" fill-rule="nonzero"/><path fill="#000000" d="M 17.917969 20.179688 C 17.882812 20.179688 17.851562 20.167969 17.828125 20.140625 C 17.773438 20.082031 16.457031 18.613281 16.417969 17.296875 C 16.414062 17.230469 16.464844 17.179688 16.527344 17.175781 C 16.59375 17.175781 16.648438 17.226562 16.648438 17.289062 C 16.6875 18.523438 17.988281 19.972656 18.003906 19.988281 C 18.046875 20.035156 18.042969 20.109375 17.992188 20.152344 C 17.972656 20.171875 17.945312 20.179688 17.917969 20.179688 " fill-opacity="1" fill-rule="nonzero"/><path fill="#000000" d="M 24.304688 12.910156 C 24.253906 12.910156 24.207031 12.875 24.191406 12.824219 C 24.175781 12.765625 24.210938 12.699219 24.273438 12.683594 L 26.636719 12.042969 C 26.699219 12.027344 26.761719 12.0625 26.777344 12.125 C 26.796875 12.1875 26.757812 12.25 26.699219 12.265625 L 24.335938 12.90625 C 24.324219 12.910156 24.3125 12.910156 24.304688 12.910156 " fill-opacity="1" fill-rule="nonzero"/><path fill="#000000" d="M 27.445312 16.894531 C 27.425781 16.894531 27.402344 16.890625 27.382812 16.875 L 24.078125 14.648438 C 24.023438 14.613281 24.011719 14.539062 24.046875 14.488281 C 24.082031 14.433594 24.15625 14.421875 24.207031 14.457031 L 27.511719 16.683594 C 27.566406 16.722656 27.578125 16.792969 27.542969 16.847656 C 27.519531 16.878906 27.484375 16.894531 27.445312 16.894531 " fill-opacity="1" fill-rule="nonzero"/><path fill="#000000" d="M 23.261719 11.476562 C 23.246094 11.476562 23.230469 11.476562 23.214844 11.46875 C 23.15625 11.441406 23.128906 11.371094 23.15625 11.3125 L 24.859375 7.730469 C 24.886719 7.675781 24.953125 7.648438 25.011719 7.675781 C 25.070312 7.703125 25.097656 7.773438 25.070312 7.832031 L 23.367188 11.410156 C 23.347656 11.453125 23.304688 11.476562 23.261719 11.476562 " fill-opacity="1" fill-rule="nonzero"/><path fill="#000000" d="M 3.265625 20.597656 C 3.230469 20.597656 3.195312 20.582031 3.171875 20.550781 C 3.132812 20.496094 3.148438 20.425781 3.199219 20.390625 L 7.109375 17.671875 C 7.160156 17.636719 7.234375 17.648438 7.269531 17.699219 C 7.308594 17.753906 7.296875 17.824219 7.242188 17.863281 L 3.332031 20.578125 C 3.3125 20.59375 3.289062 20.597656 3.265625 20.597656 " fill-opacity="1" fill-rule="nonzero"/><path fill="#000000" d="M 6.335938 23.089844 C 6.320312 23.089844 6.304688 23.085938 6.289062 23.082031 C 6.230469 23.054688 6.203125 22.988281 6.226562 22.929688 L 8.15625 18.605469 C 8.183594 18.546875 8.25 18.519531 8.308594 18.542969 C 8.367188 18.570312 8.394531 18.636719 8.371094 18.695312 L 6.441406 23.019531 C 6.421875 23.066406 6.378906 23.089844 6.335938 23.089844 " fill-opacity="1" fill-rule="nonzero"/></svg>