<svg xmlns="http://www.w3.org/2000/svg" xmlns:xlink="http://www.w3.org/1999/xlink" width="40" zoomAndPan="magnify" viewBox="0 0 30 30.000001" height="40" preserveAspectRatio="xMidYMid meet" version="1.0"><defs><clipPath id="c4df0948e4"><path d="M 0.828125 0 L 29.132812 0 L 29.132812 29.03125 L 0.828125 29.03125 Z M 0.828125 0 " clip-rule="nonzero"/></clipPath><clipPath id="1634b6ec24"><path d="M 15.324219 24.402344 C 15.351562 24.402344 15.378906 24.398438 15.40625 24.390625 C 18.527344 23.242188 20.648438 21.78125 22.082031 19.789062 C 22.785156 18.8125 23.15625 17.652344 23.15625 16.441406 L 23.15625 7.757812 C 23.15625 7.164062 22.84375 6.605469 22.339844 6.308594 C 20.410156 5.160156 18.296875 4.335938 16.0625 3.855469 C 15.574219 3.75 15.078125 3.75 14.589844 3.855469 C 12.351562 4.335938 10.242188 5.160156 8.3125 6.308594 C 7.808594 6.605469 7.496094 7.164062 7.496094 7.757812 L 7.496094 16.441406 C 7.496094 17.65625 7.867188 18.8125 8.570312 19.789062 C 10 21.78125 12.121094 23.242188 15.246094 24.390625 C 15.273438 24.398438 15.296875 24.402344 15.324219 24.402344 Z M 8.945312 19.519531 C 8.296875 18.621094 7.953125 17.558594 7.953125 16.441406 L 7.953125 7.757812 C 7.953125 7.324219 8.183594 6.921875 8.546875 6.703125 C 10.433594 5.582031 12.496094 4.777344 14.6875 4.304688 C 14.898438 4.257812 15.113281 4.234375 15.324219 4.234375 C 15.539062 4.234375 15.753906 4.257812 15.964844 4.304688 C 18.152344 4.777344 20.21875 5.582031 22.101562 6.703125 C 22.46875 6.921875 22.695312 7.324219 22.695312 7.757812 L 22.695312 16.441406 C 22.695312 17.558594 22.355469 18.621094 21.707031 19.519531 C 20.34375 21.414062 18.316406 22.816406 15.324219 23.925781 C 12.335938 22.816406 10.304688 21.414062 8.945312 19.519531 Z M 17.03125 18.515625 C 17.074219 18.460938 17.09375 18.394531 17.082031 18.328125 L 16.28125 13.324219 C 16.886719 12.980469 17.269531 12.335938 17.269531 11.632812 C 17.269531 10.558594 16.398438 9.683594 15.324219 9.683594 C 14.253906 9.683594 13.382812 10.558594 13.382812 11.632812 C 13.382812 12.335938 13.765625 12.980469 14.371094 13.324219 L 13.570312 18.328125 C 13.558594 18.394531 13.578125 18.460938 13.621094 18.515625 C 13.664062 18.566406 13.730469 18.59375 13.796875 18.59375 L 16.855469 18.59375 C 16.921875 18.59375 16.984375 18.566406 17.03125 18.515625 Z M 14.066406 18.132812 L 14.851562 13.230469 C 14.867188 13.128906 14.8125 13.027344 14.71875 12.984375 C 14.1875 12.746094 13.84375 12.214844 13.84375 11.632812 C 13.84375 10.8125 14.507812 10.144531 15.324219 10.144531 C 16.144531 10.144531 16.808594 10.8125 16.808594 11.632812 C 16.808594 12.214844 16.464844 12.746094 15.929688 12.984375 C 15.835938 13.027344 15.78125 13.128906 15.796875 13.230469 L 16.585938 18.132812 Z M 8.78125 24.535156 C 10.367188 25.515625 12.109375 26.113281 13.964844 26.316406 C 14.089844 26.332031 14.179688 26.445312 14.167969 26.570312 C 14.15625 26.6875 14.054688 26.777344 13.9375 26.777344 C 13.929688 26.777344 13.921875 26.777344 13.914062 26.773438 C 11.992188 26.566406 10.183594 25.945312 8.539062 24.929688 C 8.433594 24.863281 8.398438 24.71875 8.464844 24.613281 C 8.53125 24.503906 8.671875 24.46875 8.78125 24.535156 Z M 7.085938 2.910156 C 7.007812 2.808594 7.03125 2.664062 7.136719 2.589844 C 8.539062 1.566406 10.097656 0.828125 11.769531 0.386719 C 11.894531 0.355469 12.019531 0.429688 12.050781 0.550781 C 12.085938 0.675781 12.011719 0.800781 11.886719 0.832031 C 10.273438 1.257812 8.765625 1.976562 7.40625 2.960938 C 7.363281 2.992188 7.316406 3.007812 7.269531 3.007812 C 7.199219 3.007812 7.128906 2.972656 7.085938 2.910156 Z M 1.917969 11.207031 C 1.902344 11.207031 1.886719 11.207031 1.871094 11.203125 C 1.746094 11.175781 1.667969 11.050781 1.695312 10.929688 C 1.964844 9.683594 2.402344 8.480469 3 7.351562 C 3.0625 7.238281 3.199219 7.195312 3.3125 7.257812 C 3.425781 7.316406 3.46875 7.457031 3.40625 7.566406 C 2.828125 8.65625 2.40625 9.820312 2.144531 11.027344 C 2.121094 11.132812 2.027344 11.207031 1.917969 11.207031 Z M 1.945312 12.195312 C 1.875 12.753906 1.839844 13.324219 1.839844 13.890625 C 1.839844 14.019531 1.738281 14.121094 1.609375 14.121094 C 1.480469 14.121094 1.378906 14.019531 1.378906 13.890625 C 1.378906 13.304688 1.417969 12.714844 1.488281 12.136719 C 1.503906 12.011719 1.617188 11.921875 1.746094 11.9375 C 1.871094 11.953125 1.960938 12.066406 1.945312 12.195312 Z M 10.632812 25.019531 C 10.515625 24.972656 10.460938 24.835938 10.511719 24.71875 C 10.5625 24.601562 10.695312 24.546875 10.8125 24.597656 C 11.691406 24.96875 12.617188 25.230469 13.558594 25.375 C 13.6875 25.394531 13.773438 25.511719 13.753906 25.636719 C 13.734375 25.75 13.636719 25.832031 13.527344 25.832031 C 13.515625 25.832031 13.503906 25.832031 13.492188 25.828125 C 12.507812 25.679688 11.546875 25.40625 10.632812 25.019531 Z M 1.480469 21.792969 C 1.839844 21.792969 2.132812 21.5 2.132812 21.140625 C 2.132812 20.78125 1.839844 20.488281 1.480469 20.488281 C 1.121094 20.488281 0.828125 20.78125 0.828125 21.140625 C 0.828125 21.5 1.121094 21.792969 1.480469 21.792969 Z M 1.480469 20.949219 C 1.585938 20.949219 1.671875 21.035156 1.671875 21.140625 C 1.671875 21.246094 1.585938 21.332031 1.480469 21.332031 C 1.375 21.332031 1.289062 21.246094 1.289062 21.140625 C 1.289062 21.035156 1.375 20.949219 1.480469 20.949219 Z M 26.367188 1.816406 C 26.726562 1.816406 27.015625 1.523438 27.015625 1.164062 C 27.015625 0.804688 26.726562 0.511719 26.367188 0.511719 C 26.007812 0.511719 25.714844 0.804688 25.714844 1.164062 C 25.714844 1.523438 26.003906 1.816406 26.367188 1.816406 Z M 26.367188 0.972656 C 26.472656 0.972656 26.558594 1.058594 26.558594 1.164062 C 26.558594 1.269531 26.472656 1.355469 26.367188 1.355469 C 26.257812 1.355469 26.171875 1.269531 26.171875 1.164062 C 26.171875 1.058594 26.257812 0.972656 26.367188 0.972656 Z M 2.925781 27.625 C 2.925781 27.984375 3.21875 28.277344 3.578125 28.277344 C 3.9375 28.277344 4.230469 27.984375 4.230469 27.625 C 4.230469 27.265625 3.9375 26.972656 3.578125 26.972656 C 3.21875 26.972656 2.925781 27.265625 2.925781 27.625 Z M 3.769531 27.625 C 3.769531 27.730469 3.683594 27.816406 3.578125 27.816406 C 3.472656 27.816406 3.386719 27.730469 3.386719 27.625 C 3.386719 27.519531 3.472656 27.433594 3.578125 27.433594 C 3.683594 27.433594 3.769531 27.519531 3.769531 27.625 Z M 1.058594 4.339844 L 1.402344 4.339844 L 1.402344 7.195312 C 1.402344 7.324219 1.503906 7.425781 1.632812 7.425781 C 1.757812 7.425781 1.863281 7.324219 1.863281 7.195312 L 1.863281 4.339844 L 3.71875 4.339844 L 3.71875 5.410156 C 3.71875 5.539062 3.824219 5.640625 3.949219 5.640625 C 4.078125 5.640625 4.179688 5.539062 4.179688 5.410156 L 4.179688 4.339844 L 5.460938 4.339844 L 7.308594 6.066406 C 6.699219 6.695312 6.164062 7.390625 5.710938 8.144531 L 4.488281 7.273438 C 4.484375 7.269531 4.480469 7.269531 4.476562 7.265625 C 4.472656 7.265625 4.472656 7.261719 4.46875 7.261719 C 4.460938 7.253906 4.449219 7.253906 4.4375 7.25 C 4.421875 7.242188 4.40625 7.238281 4.390625 7.234375 C 4.378906 7.230469 4.363281 7.234375 4.347656 7.234375 C 4.335938 7.234375 4.320312 7.230469 4.304688 7.234375 C 4.289062 7.238281 4.277344 7.246094 4.265625 7.25 C 4.25 7.257812 4.238281 7.261719 4.226562 7.269531 C 4.210938 7.277344 4.203125 7.292969 4.191406 7.304688 C 4.183594 7.3125 4.171875 7.316406 4.164062 7.324219 C 4.164062 7.328125 4.164062 7.332031 4.160156 7.335938 C 4.160156 7.335938 4.15625 7.339844 4.15625 7.34375 C 2.996094 9.320312 2.382812 11.585938 2.382812 13.890625 C 2.382812 17.039062 3.523438 20.074219 5.597656 22.441406 C 5.640625 22.492188 5.707031 22.519531 5.769531 22.519531 C 5.824219 22.519531 5.878906 22.5 5.921875 22.460938 C 6.015625 22.375 6.027344 22.230469 5.941406 22.136719 C 5.617188 21.765625 5.316406 21.375 5.039062 20.972656 L 5.957031 20.0625 C 6.867188 21.441406 8.085938 22.625 9.550781 23.503906 L 1.710938 23.503906 L 1.710938 22.289062 C 1.710938 22.160156 1.605469 22.058594 1.480469 22.058594 C 1.351562 22.058594 1.25 22.160156 1.25 22.289062 L 1.25 23.734375 C 1.25 23.863281 1.351562 23.964844 1.480469 23.964844 L 3.347656 23.964844 L 3.347656 26.433594 C 3.347656 26.558594 3.449219 26.664062 3.578125 26.664062 C 3.703125 26.664062 3.808594 26.558594 3.808594 26.433594 L 3.808594 23.964844 L 5.007812 23.964844 L 5.007812 25.082031 C 5.007812 25.210938 5.113281 25.3125 5.238281 25.3125 C 5.367188 25.3125 5.46875 25.210938 5.46875 25.082031 L 5.46875 23.964844 L 10.449219 23.964844 C 10.457031 23.964844 10.46875 23.960938 10.476562 23.960938 C 10.496094 23.957031 10.511719 23.953125 10.53125 23.949219 C 10.542969 23.945312 10.554688 23.933594 10.566406 23.929688 C 10.578125 23.921875 10.59375 23.914062 10.605469 23.902344 C 10.617188 23.890625 10.625 23.878906 10.632812 23.863281 C 10.640625 23.855469 10.648438 23.847656 10.652344 23.835938 C 10.65625 23.835938 10.65625 23.832031 10.65625 23.832031 C 10.664062 23.816406 10.664062 23.800781 10.667969 23.785156 C 10.671875 23.769531 10.675781 23.757812 10.675781 23.742188 C 10.675781 23.738281 10.679688 23.738281 10.679688 23.734375 C 10.679688 23.722656 10.671875 23.714844 10.671875 23.703125 C 10.667969 23.683594 10.667969 23.667969 10.660156 23.652344 C 10.65625 23.640625 10.648438 23.628906 10.640625 23.617188 C 10.632812 23.601562 10.625 23.589844 10.617188 23.578125 C 10.605469 23.566406 10.589844 23.558594 10.578125 23.546875 C 10.566406 23.542969 10.5625 23.535156 10.550781 23.527344 C 8.730469 22.621094 7.25 21.261719 6.222656 19.621094 C 6.210938 19.585938 6.195312 19.554688 6.167969 19.527344 C 6.167969 19.527344 6.164062 19.527344 6.164062 19.523438 C 5.148438 17.867188 4.582031 15.929688 4.582031 13.890625 C 4.582031 7.960938 9.402344 3.136719 15.324219 3.136719 C 21.25 3.136719 26.066406 7.960938 26.066406 13.890625 C 26.066406 19.820312 21.25 24.648438 15.324219 24.648438 C 15.199219 24.648438 15.09375 24.75 15.09375 24.878906 L 15.09375 28.800781 C 15.09375 28.929688 15.199219 29.03125 15.324219 29.03125 C 15.453125 29.03125 15.554688 28.929688 15.554688 28.800781 L 15.554688 28.027344 L 17.628906 28.027344 C 17.753906 28.027344 17.859375 27.925781 17.859375 27.796875 C 17.859375 27.671875 17.753906 27.566406 17.628906 27.566406 L 15.554688 27.566406 L 15.554688 26.84375 C 18.863281 26.789062 21.964844 25.496094 24.335938 23.191406 L 24.6875 23.605469 C 23.488281 24.765625 22.105469 25.683594 20.574219 26.332031 C 20.457031 26.382812 20.402344 26.519531 20.453125 26.636719 C 20.488281 26.722656 20.574219 26.777344 20.664062 26.777344 C 20.695312 26.777344 20.726562 26.769531 20.753906 26.757812 C 22.332031 26.089844 23.75 25.144531 24.988281 23.957031 L 25.84375 24.960938 L 25.84375 26.273438 C 25.84375 26.402344 25.945312 26.503906 26.074219 26.503906 C 26.199219 26.503906 26.300781 26.402344 26.300781 26.273438 L 26.300781 25.109375 L 26.925781 25.109375 L 26.925781 27.171875 C 26.925781 27.300781 27.03125 27.402344 27.15625 27.402344 C 27.285156 27.402344 27.386719 27.300781 27.386719 27.171875 L 27.386719 25.109375 L 28.789062 25.109375 C 28.917969 25.109375 29.019531 25.003906 29.019531 24.878906 C 29.019531 24.75 28.917969 24.648438 28.789062 24.648438 L 26.179688 24.648438 L 23.523438 21.523438 C 23.734375 21.296875 23.933594 21.0625 24.125 20.820312 L 26.128906 22.980469 C 26.171875 23.027344 26.234375 23.054688 26.296875 23.054688 L 28.414062 23.054688 C 28.542969 23.054688 28.644531 22.949219 28.644531 22.824219 C 28.644531 22.695312 28.542969 22.59375 28.414062 22.59375 L 27.5625 22.59375 L 27.5625 21.109375 C 27.5625 20.984375 27.457031 20.878906 27.332031 20.878906 C 27.203125 20.878906 27.101562 20.984375 27.101562 21.109375 L 27.101562 22.59375 L 26.398438 22.59375 L 25.003906 21.089844 C 25.484375 20.445312 25.90625 19.75 26.246094 19.023438 C 26.300781 18.910156 26.25 18.773438 26.136719 18.71875 C 26.019531 18.664062 25.882812 18.714844 25.828125 18.828125 C 25.511719 19.503906 25.128906 20.144531 24.6875 20.746094 L 24.40625 20.445312 C 25.265625 19.257812 25.894531 17.894531 26.234375 16.425781 L 27.640625 16.949219 C 27.644531 16.949219 27.652344 16.949219 27.65625 16.949219 C 27.660156 16.953125 27.664062 16.957031 27.667969 16.957031 C 27.6875 16.960938 27.703125 16.960938 27.71875 16.960938 C 27.71875 16.960938 27.71875 16.960938 27.722656 16.960938 C 27.722656 16.960938 27.722656 16.960938 27.726562 16.960938 C 27.746094 16.960938 27.769531 16.957031 27.792969 16.949219 C 27.800781 16.949219 27.808594 16.941406 27.816406 16.9375 C 27.832031 16.933594 27.84375 16.925781 27.855469 16.917969 C 27.863281 16.910156 27.871094 16.902344 27.878906 16.894531 C 27.890625 16.886719 27.898438 16.875 27.90625 16.867188 C 27.914062 16.855469 27.917969 16.847656 27.921875 16.835938 C 27.925781 16.828125 27.933594 16.820312 27.9375 16.8125 C 27.9375 16.808594 27.9375 16.804688 27.9375 16.800781 C 27.941406 16.792969 27.945312 16.789062 27.945312 16.785156 C 28.160156 15.839844 28.269531 14.867188 28.269531 13.890625 C 28.269531 9.679688 26.21875 5.867188 23.027344 3.484375 L 23.648438 2.769531 L 25.566406 2.769531 L 25.566406 4.753906 C 25.566406 4.878906 25.667969 4.984375 25.796875 4.984375 C 25.921875 4.984375 26.027344 4.878906 26.027344 4.753906 L 26.027344 2.769531 L 27.058594 2.769531 L 27.058594 3.851562 C 27.058594 3.980469 27.160156 4.082031 27.289062 4.082031 C 27.414062 4.082031 27.519531 3.980469 27.519531 3.851562 L 27.519531 2.769531 L 28.898438 2.769531 C 29.027344 2.769531 29.128906 2.664062 29.128906 2.539062 C 29.128906 2.410156 29.027344 2.308594 28.898438 2.308594 L 23.773438 2.308594 L 23.773438 1.394531 L 25.222656 1.394531 C 25.351562 1.394531 25.453125 1.292969 25.453125 1.164062 C 25.453125 1.035156 25.351562 0.933594 25.222656 0.933594 L 23.542969 0.933594 C 23.414062 0.933594 23.3125 1.035156 23.3125 1.164062 L 23.3125 2.453125 L 22.648438 3.214844 C 21.078125 2.128906 19.25 1.382812 17.269531 1.082031 L 17.269531 0.230469 C 17.269531 0.101562 17.164062 0 17.039062 0 C 16.910156 0 16.808594 0.101562 16.808594 0.230469 L 16.808594 2.777344 C 16.324219 2.714844 15.828125 2.675781 15.324219 2.675781 C 14.824219 2.675781 14.328125 2.714844 13.84375 2.777344 L 13.84375 1.277344 C 13.84375 1.273438 13.839844 1.269531 13.839844 1.261719 C 13.839844 1.257812 13.839844 1.253906 13.839844 1.246094 C 13.839844 1.238281 13.832031 1.226562 13.832031 1.21875 C 13.828125 1.203125 13.824219 1.191406 13.816406 1.175781 C 13.808594 1.160156 13.800781 1.148438 13.789062 1.136719 C 13.78125 1.125 13.773438 1.117188 13.765625 1.109375 C 13.753906 1.097656 13.738281 1.089844 13.722656 1.082031 C 13.710938 1.074219 13.703125 1.066406 13.6875 1.0625 C 13.675781 1.058594 13.65625 1.054688 13.640625 1.054688 C 13.632812 1.050781 13.621094 1.046875 13.613281 1.046875 C 13.605469 1.046875 13.601562 1.050781 13.597656 1.050781 C 13.59375 1.050781 13.585938 1.050781 13.582031 1.050781 C 10.84375 1.417969 8.355469 2.628906 6.359375 4.546875 L 5.710938 3.9375 C 5.667969 3.898438 5.609375 3.878906 5.554688 3.878906 L 2.566406 3.878906 L 2.566406 2.019531 C 2.566406 1.894531 2.464844 1.792969 2.335938 1.792969 C 2.210938 1.792969 2.105469 1.894531 2.105469 2.019531 L 2.105469 3.878906 L 1.058594 3.878906 C 0.929688 3.878906 0.828125 3.980469 0.828125 4.109375 C 0.828125 4.234375 0.929688 4.339844 1.058594 4.339844 Z M 15.554688 26.382812 L 15.554688 25.101562 C 18.53125 25.042969 21.230469 23.816406 23.203125 21.855469 L 24.039062 22.839844 C 21.746094 25.074219 18.753906 26.328125 15.554688 26.382812 Z M 17.269531 1.546875 C 23.296875 2.492188 27.808594 7.75 27.808594 13.890625 C 27.808594 14.746094 27.71875 15.59375 27.546875 16.421875 L 26.332031 15.96875 C 26.457031 15.296875 26.527344 14.601562 26.527344 13.890625 C 26.527344 8.371094 22.523438 3.773438 17.269531 2.847656 Z M 5.707031 19.664062 L 4.78125 20.578125 C 3.523438 18.589844 2.84375 16.277344 2.84375 13.890625 C 2.84375 11.753906 3.390625 9.652344 4.425781 7.796875 L 5.480469 8.546875 C 4.613281 10.136719 4.121094 11.957031 4.121094 13.890625 C 4.125 15.976562 4.6875 17.957031 5.707031 19.664062 Z M 13.382812 1.546875 L 13.382812 2.847656 C 11.179688 3.234375 9.199219 4.269531 7.640625 5.746094 L 6.699219 4.863281 C 8.554688 3.082031 10.855469 1.941406 13.382812 1.546875 Z M 13.382812 1.546875 " clip-rule="nonzero"/></clipPath><linearGradient x1="61.492001" gradientTransform="matrix(0.230134, 0, 0, 0.23041, 0.826979, 0.00027871)" y1="-0.000000742836" x2="61.492001" gradientUnits="userSpaceOnUse" y2="125.999995" id="9c52a4a7d4"><stop stop-opacity="1" stop-color="rgb(0%, 7.099915%, 71.398926%)" offset="0"/><stop stop-opacity="1" stop-color="rgb(0%, 7.363892%, 71.183777%)" offset="0.00390625"/><stop stop-opacity="1" stop-color="rgb(0%, 7.629395%, 70.970154%)" offset="0.0078125"/><stop stop-opacity="1" stop-color="rgb(0%, 7.893372%, 70.755005%)" offset="0.0117188"/><stop stop-opacity="1" stop-color="rgb(0%, 8.158875%, 70.541382%)" offset="0.015625"/><stop stop-opacity="1" stop-color="rgb(0%, 8.422852%, 70.326233%)" offset="0.0195312"/><stop stop-opacity="1" stop-color="rgb(0%, 8.688354%, 70.11261%)" offset="0.0234375"/><stop stop-opacity="1" stop-color="rgb(0%, 8.952332%, 69.897461%)" offset="0.0273437"/><stop stop-opacity="1" stop-color="rgb(0%, 9.217834%, 69.683838%)" offset="0.03125"/><stop stop-opacity="1" stop-color="rgb(0%, 9.481812%, 69.468689%)" offset="0.0351562"/><stop stop-opacity="1" stop-color="rgb(0%, 9.747314%, 69.255066%)" offset="0.0390625"/><stop stop-opacity="1" stop-color="rgb(0%, 10.011292%, 69.039917%)" offset="0.0429688"/><stop stop-opacity="1" stop-color="rgb(0%, 10.276794%, 68.826294%)" offset="0.046875"/><stop stop-opacity="1" stop-color="rgb(0%, 10.542297%, 68.611145%)" offset="0.0507813"/><stop stop-opacity="1" stop-color="rgb(0%, 10.8078%, 68.397522%)" offset="0.0546875"/><stop stop-opacity="1" stop-color="rgb(0%, 11.071777%, 68.182373%)" offset="0.0585938"/><stop stop-opacity="1" stop-color="rgb(0%, 11.33728%, 67.96875%)" offset="0.0625"/><stop stop-opacity="1" stop-color="rgb(0%, 11.601257%, 67.753601%)" offset="0.0664062"/><stop stop-opacity="1" stop-color="rgb(0%, 11.86676%, 67.538452%)" offset="0.0703125"/><stop stop-opacity="1" stop-color="rgb(0%, 12.130737%, 67.323303%)" offset="0.0742187"/><stop stop-opacity="1" stop-color="rgb(0%, 12.39624%, 67.10968%)" offset="0.078125"/><stop stop-opacity="1" stop-color="rgb(0%, 12.660217%, 66.894531%)" offset="0.0820312"/><stop stop-opacity="1" stop-color="rgb(0%, 12.92572%, 66.680908%)" offset="0.0859375"/><stop stop-opacity="1" stop-color="rgb(0%, 13.189697%, 66.465759%)" offset="0.0898437"/><stop stop-opacity="1" stop-color="rgb(0%, 13.4552%, 66.252136%)" offset="0.09375"/><stop stop-opacity="1" stop-color="rgb(0%, 13.719177%, 66.036987%)" offset="0.0976562"/><stop stop-opacity="1" stop-color="rgb(0%, 13.98468%, 65.823364%)" offset="0.101562"/><stop stop-opacity="1" stop-color="rgb(0%, 14.248657%, 65.608215%)" offset="0.105469"/><stop stop-opacity="1" stop-color="rgb(0%, 14.51416%, 65.394592%)" offset="0.109375"/><stop stop-opacity="1" stop-color="rgb(0%, 14.779663%, 65.179443%)" offset="0.113281"/><stop stop-opacity="1" stop-color="rgb(0%, 15.045166%, 64.96582%)" offset="0.117187"/><stop stop-opacity="1" stop-color="rgb(0%, 15.309143%, 64.750671%)" offset="0.121094"/><stop stop-opacity="1" stop-color="rgb(0%, 15.574646%, 64.537048%)" offset="0.125"/><stop stop-opacity="1" stop-color="rgb(0%, 15.838623%, 64.321899%)" offset="0.128906"/><stop stop-opacity="1" stop-color="rgb(0%, 16.104126%, 64.108276%)" offset="0.132812"/><stop stop-opacity="1" stop-color="rgb(0%, 16.368103%, 63.893127%)" offset="0.136719"/><stop stop-opacity="1" stop-color="rgb(0%, 16.633606%, 63.679504%)" offset="0.140625"/><stop stop-opacity="1" stop-color="rgb(0%, 16.897583%, 63.464355%)" offset="0.144531"/><stop stop-opacity="1" stop-color="rgb(0%, 17.163086%, 63.250732%)" offset="0.148437"/><stop stop-opacity="1" stop-color="rgb(0%, 17.427063%, 63.035583%)" offset="0.152344"/><stop stop-opacity="1" stop-color="rgb(0%, 17.692566%, 62.820435%)" offset="0.15625"/><stop stop-opacity="1" stop-color="rgb(0%, 17.956543%, 62.605286%)" offset="0.160156"/><stop stop-opacity="1" stop-color="rgb(0%, 18.222046%, 62.391663%)" offset="0.164062"/><stop stop-opacity="1" stop-color="rgb(0%, 18.487549%, 62.176514%)" offset="0.167969"/><stop stop-opacity="1" stop-color="rgb(0%, 18.753052%, 61.962891%)" offset="0.171875"/><stop stop-opacity="1" stop-color="rgb(0%, 19.017029%, 61.747742%)" offset="0.175781"/><stop stop-opacity="1" stop-color="rgb(0%, 19.282532%, 61.534119%)" offset="0.179687"/><stop stop-opacity="1" stop-color="rgb(0%, 19.546509%, 61.31897%)" offset="0.183594"/><stop stop-opacity="1" stop-color="rgb(0%, 19.812012%, 61.105347%)" offset="0.1875"/><stop stop-opacity="1" stop-color="rgb(0%, 20.075989%, 60.890198%)" offset="0.191406"/><stop stop-opacity="1" stop-color="rgb(0%, 20.341492%, 60.676575%)" offset="0.195312"/><stop stop-opacity="1" stop-color="rgb(0%, 20.605469%, 60.461426%)" offset="0.199219"/><stop stop-opacity="1" stop-color="rgb(0%, 20.870972%, 60.247803%)" offset="0.203125"/><stop stop-opacity="1" stop-color="rgb(0%, 21.134949%, 60.032654%)" offset="0.207031"/><stop stop-opacity="1" stop-color="rgb(0%, 21.400452%, 59.819031%)" offset="0.210938"/><stop stop-opacity="1" stop-color="rgb(0%, 21.664429%, 59.603882%)" offset="0.214844"/><stop stop-opacity="1" stop-color="rgb(0%, 21.929932%, 59.390259%)" offset="0.21875"/><stop stop-opacity="1" stop-color="rgb(0%, 22.193909%, 59.17511%)" offset="0.222656"/><stop stop-opacity="1" stop-color="rgb(0%, 22.459412%, 58.961487%)" offset="0.226562"/><stop stop-opacity="1" stop-color="rgb(0%, 22.724915%, 58.746338%)" offset="0.230469"/><stop stop-opacity="1" stop-color="rgb(0%, 22.990417%, 58.532715%)" offset="0.234375"/><stop stop-opacity="1" stop-color="rgb(0%, 23.254395%, 58.317566%)" offset="0.238281"/><stop stop-opacity="1" stop-color="rgb(0%, 23.519897%, 58.102417%)" offset="0.242188"/><stop stop-opacity="1" stop-color="rgb(0%, 23.783875%, 57.887268%)" offset="0.246094"/><stop stop-opacity="1" stop-color="rgb(0%, 24.049377%, 57.673645%)" offset="0.25"/><stop stop-opacity="1" stop-color="rgb(0%, 24.313354%, 57.458496%)" offset="0.253906"/><stop stop-opacity="1" stop-color="rgb(0%, 24.578857%, 57.244873%)" offset="0.257813"/><stop stop-opacity="1" stop-color="rgb(0%, 24.842834%, 57.029724%)" offset="0.261719"/><stop stop-opacity="1" stop-color="rgb(0%, 25.108337%, 56.816101%)" offset="0.265625"/><stop stop-opacity="1" stop-color="rgb(0%, 25.372314%, 56.600952%)" offset="0.269531"/><stop stop-opacity="1" stop-color="rgb(0%, 25.637817%, 56.387329%)" offset="0.273438"/><stop stop-opacity="1" stop-color="rgb(0%, 25.901794%, 56.17218%)" offset="0.277344"/><stop stop-opacity="1" stop-color="rgb(0%, 26.167297%, 55.958557%)" offset="0.28125"/><stop stop-opacity="1" stop-color="rgb(0%, 26.4328%, 55.743408%)" offset="0.285156"/><stop stop-opacity="1" stop-color="rgb(0%, 26.698303%, 55.529785%)" offset="0.289062"/><stop stop-opacity="1" stop-color="rgb(0%, 26.96228%, 55.314636%)" offset="0.292969"/><stop stop-opacity="1" stop-color="rgb(0%, 27.227783%, 55.101013%)" offset="0.296875"/><stop stop-opacity="1" stop-color="rgb(0%, 27.49176%, 54.885864%)" offset="0.300781"/><stop stop-opacity="1" stop-color="rgb(0%, 27.757263%, 54.672241%)" offset="0.304688"/><stop stop-opacity="1" stop-color="rgb(0%, 28.02124%, 54.457092%)" offset="0.308594"/><stop stop-opacity="1" stop-color="rgb(0%, 28.286743%, 54.243469%)" offset="0.3125"/><stop stop-opacity="1" stop-color="rgb(0%, 28.55072%, 54.02832%)" offset="0.316406"/><stop stop-opacity="1" stop-color="rgb(0%, 28.816223%, 53.814697%)" offset="0.320312"/><stop stop-opacity="1" stop-color="rgb(0%, 29.0802%, 53.599548%)" offset="0.324219"/><stop stop-opacity="1" stop-color="rgb(0%, 29.345703%, 53.385925%)" offset="0.328125"/><stop stop-opacity="1" stop-color="rgb(0%, 29.60968%, 53.170776%)" offset="0.332031"/><stop stop-opacity="1" stop-color="rgb(0%, 29.875183%, 52.955627%)" offset="0.335938"/><stop stop-opacity="1" stop-color="rgb(0%, 30.140686%, 52.740479%)" offset="0.339844"/><stop stop-opacity="1" stop-color="rgb(0%, 30.406189%, 52.526855%)" offset="0.34375"/><stop stop-opacity="1" stop-color="rgb(0%, 30.670166%, 52.311707%)" offset="0.347656"/><stop stop-opacity="1" stop-color="rgb(0%, 30.935669%, 52.098083%)" offset="0.351562"/><stop stop-opacity="1" stop-color="rgb(0%, 31.199646%, 51.882935%)" offset="0.355469"/><stop stop-opacity="1" stop-color="rgb(0%, 31.465149%, 51.669312%)" offset="0.359375"/><stop stop-opacity="1" stop-color="rgb(0%, 31.729126%, 51.454163%)" offset="0.363281"/><stop stop-opacity="1" stop-color="rgb(0%, 31.994629%, 51.24054%)" offset="0.367188"/><stop stop-opacity="1" stop-color="rgb(0%, 32.258606%, 51.025391%)" offset="0.371094"/><stop stop-opacity="1" stop-color="rgb(0%, 32.524109%, 50.811768%)" offset="0.375"/><stop stop-opacity="1" stop-color="rgb(0%, 32.788086%, 50.596619%)" offset="0.378906"/><stop stop-opacity="1" stop-color="rgb(0%, 33.053589%, 50.382996%)" offset="0.382812"/><stop stop-opacity="1" stop-color="rgb(0%, 33.317566%, 50.167847%)" offset="0.386719"/><stop stop-opacity="1" stop-color="rgb(0%, 33.583069%, 49.954224%)" offset="0.390625"/><stop stop-opacity="1" stop-color="rgb(0%, 33.847046%, 49.739075%)" offset="0.394531"/><stop stop-opacity="1" stop-color="rgb(0%, 34.112549%, 49.525452%)" offset="0.398438"/><stop stop-opacity="1" stop-color="rgb(0%, 34.378052%, 49.310303%)" offset="0.402344"/><stop stop-opacity="1" stop-color="rgb(0%, 34.643555%, 49.09668%)" offset="0.40625"/><stop stop-opacity="1" stop-color="rgb(0%, 34.907532%, 48.881531%)" offset="0.410156"/><stop stop-opacity="1" stop-color="rgb(0%, 35.173035%, 48.667908%)" offset="0.414062"/><stop stop-opacity="1" stop-color="rgb(0%, 35.437012%, 48.452759%)" offset="0.417969"/><stop stop-opacity="1" stop-color="rgb(0%, 35.702515%, 48.23761%)" offset="0.421875"/><stop stop-opacity="1" stop-color="rgb(0%, 35.966492%, 48.022461%)" offset="0.425781"/><stop stop-opacity="1" stop-color="rgb(0%, 36.231995%, 47.808838%)" offset="0.429688"/><stop stop-opacity="1" stop-color="rgb(0%, 36.495972%, 47.593689%)" offset="0.433594"/><stop stop-opacity="1" stop-color="rgb(0%, 36.761475%, 47.380066%)" offset="0.4375"/><stop stop-opacity="1" stop-color="rgb(0%, 37.025452%, 47.164917%)" offset="0.441406"/><stop stop-opacity="1" stop-color="rgb(0%, 37.290955%, 46.951294%)" offset="0.445312"/><stop stop-opacity="1" stop-color="rgb(0%, 37.554932%, 46.736145%)" offset="0.449219"/><stop stop-opacity="1" stop-color="rgb(0%, 37.820435%, 46.522522%)" offset="0.453125"/><stop stop-opacity="1" stop-color="rgb(0%, 38.085938%, 46.307373%)" offset="0.457031"/><stop stop-opacity="1" stop-color="rgb(0%, 38.35144%, 46.09375%)" offset="0.460938"/><stop stop-opacity="1" stop-color="rgb(0%, 38.615417%, 45.878601%)" offset="0.464844"/><stop stop-opacity="1" stop-color="rgb(0%, 38.88092%, 45.664978%)" offset="0.46875"/><stop stop-opacity="1" stop-color="rgb(0%, 39.144897%, 45.449829%)" offset="0.472656"/><stop stop-opacity="1" stop-color="rgb(0%, 39.4104%, 45.236206%)" offset="0.476562"/><stop stop-opacity="1" stop-color="rgb(0%, 39.674377%, 45.021057%)" offset="0.480469"/><stop stop-opacity="1" stop-color="rgb(0%, 39.93988%, 44.807434%)" offset="0.484375"/><stop stop-opacity="1" stop-color="rgb(0%, 40.203857%, 44.592285%)" offset="0.488281"/><stop stop-opacity="1" stop-color="rgb(0%, 40.46936%, 44.378662%)" offset="0.492188"/><stop stop-opacity="1" stop-color="rgb(0%, 40.733337%, 44.163513%)" offset="0.496094"/><stop stop-opacity="1" stop-color="rgb(0%, 40.99884%, 43.94989%)" offset="0.5"/><stop stop-opacity="1" stop-color="rgb(0%, 41.262817%, 43.734741%)" offset="0.503906"/><stop stop-opacity="1" stop-color="rgb(0%, 41.52832%, 43.519592%)" offset="0.507813"/><stop stop-opacity="1" stop-color="rgb(0%, 41.793823%, 43.304443%)" offset="0.511719"/><stop stop-opacity="1" stop-color="rgb(0%, 42.059326%, 43.09082%)" offset="0.515625"/><stop stop-opacity="1" stop-color="rgb(0%, 42.323303%, 42.875671%)" offset="0.519531"/><stop stop-opacity="1" stop-color="rgb(0%, 42.588806%, 42.662048%)" offset="0.523438"/><stop stop-opacity="1" stop-color="rgb(0%, 42.852783%, 42.446899%)" offset="0.527344"/><stop stop-opacity="1" stop-color="rgb(0%, 43.118286%, 42.233276%)" offset="0.53125"/><stop stop-opacity="1" stop-color="rgb(0%, 43.382263%, 42.018127%)" offset="0.535156"/><stop stop-opacity="1" stop-color="rgb(0%, 43.647766%, 41.804504%)" offset="0.539062"/><stop stop-opacity="1" stop-color="rgb(0%, 43.911743%, 41.589355%)" offset="0.542969"/><stop stop-opacity="1" stop-color="rgb(0%, 44.177246%, 41.375732%)" offset="0.546875"/><stop stop-opacity="1" stop-color="rgb(0%, 44.441223%, 41.160583%)" offset="0.550781"/><stop stop-opacity="1" stop-color="rgb(0%, 44.706726%, 40.94696%)" offset="0.554687"/><stop stop-opacity="1" stop-color="rgb(0%, 44.970703%, 40.731812%)" offset="0.558594"/><stop stop-opacity="1" stop-color="rgb(0%, 45.236206%, 40.518188%)" offset="0.5625"/><stop stop-opacity="1" stop-color="rgb(0%, 45.500183%, 40.30304%)" offset="0.566406"/><stop stop-opacity="1" stop-color="rgb(0%, 45.765686%, 40.089417%)" offset="0.570312"/><stop stop-opacity="1" stop-color="rgb(0%, 46.031189%, 39.874268%)" offset="0.574219"/><stop stop-opacity="1" stop-color="rgb(0%, 46.296692%, 39.660645%)" offset="0.578125"/><stop stop-opacity="1" stop-color="rgb(0%, 46.560669%, 39.445496%)" offset="0.582031"/><stop stop-opacity="1" stop-color="rgb(0%, 46.826172%, 39.231873%)" offset="0.585937"/><stop stop-opacity="1" stop-color="rgb(0%, 47.090149%, 39.016724%)" offset="0.589844"/><stop stop-opacity="1" stop-color="rgb(0%, 47.355652%, 38.803101%)" offset="0.59375"/><stop stop-opacity="1" stop-color="rgb(0%, 47.619629%, 38.587952%)" offset="0.597656"/><stop stop-opacity="1" stop-color="rgb(0%, 47.885132%, 38.372803%)" offset="0.601562"/><stop stop-opacity="1" stop-color="rgb(0%, 48.149109%, 38.157654%)" offset="0.605469"/><stop stop-opacity="1" stop-color="rgb(0%, 48.414612%, 37.944031%)" offset="0.609375"/><stop stop-opacity="1" stop-color="rgb(0%, 48.678589%, 37.728882%)" offset="0.613281"/><stop stop-opacity="1" stop-color="rgb(0%, 48.944092%, 37.515259%)" offset="0.617187"/><stop stop-opacity="1" stop-color="rgb(0%, 49.208069%, 37.30011%)" offset="0.621094"/><stop stop-opacity="1" stop-color="rgb(0%, 49.473572%, 37.086487%)" offset="0.625"/><stop stop-opacity="1" stop-color="rgb(0%, 49.739075%, 36.871338%)" offset="0.628906"/><stop stop-opacity="1" stop-color="rgb(0%, 50.004578%, 36.657715%)" offset="0.632812"/><stop stop-opacity="1" stop-color="rgb(0%, 50.268555%, 36.442566%)" offset="0.636719"/><stop stop-opacity="1" stop-color="rgb(0%, 50.534058%, 36.228943%)" offset="0.640625"/><stop stop-opacity="1" stop-color="rgb(0%, 50.798035%, 36.013794%)" offset="0.644531"/><stop stop-opacity="1" stop-color="rgb(0%, 51.063538%, 35.800171%)" offset="0.648437"/><stop stop-opacity="1" stop-color="rgb(0%, 51.327515%, 35.585022%)" offset="0.652344"/><stop stop-opacity="1" stop-color="rgb(0%, 51.593018%, 35.371399%)" offset="0.65625"/><stop stop-opacity="1" stop-color="rgb(0%, 51.856995%, 35.15625%)" offset="0.660156"/><stop stop-opacity="1" stop-color="rgb(0%, 52.122498%, 34.942627%)" offset="0.664062"/><stop stop-opacity="1" stop-color="rgb(0%, 52.386475%, 34.727478%)" offset="0.667969"/><stop stop-opacity="1" stop-color="rgb(0%, 52.651978%, 34.513855%)" offset="0.671875"/><stop stop-opacity="1" stop-color="rgb(0%, 52.915955%, 34.298706%)" offset="0.675781"/><stop stop-opacity="1" stop-color="rgb(0%, 53.181458%, 34.085083%)" offset="0.679688"/><stop stop-opacity="1" stop-color="rgb(0%, 53.44696%, 33.869934%)" offset="0.683594"/><stop stop-opacity="1" stop-color="rgb(0%, 53.712463%, 33.654785%)" offset="0.6875"/><stop stop-opacity="1" stop-color="rgb(0%, 53.97644%, 33.439636%)" offset="0.691406"/><stop stop-opacity="1" stop-color="rgb(0%, 54.241943%, 33.226013%)" offset="0.695312"/><stop stop-opacity="1" stop-color="rgb(0%, 54.50592%, 33.010864%)" offset="0.699219"/><stop stop-opacity="1" stop-color="rgb(0%, 54.771423%, 32.797241%)" offset="0.703125"/><stop stop-opacity="1" stop-color="rgb(0%, 55.0354%, 32.582092%)" offset="0.707031"/><stop stop-opacity="1" stop-color="rgb(0%, 55.300903%, 32.368469%)" offset="0.710937"/><stop stop-opacity="1" stop-color="rgb(0%, 55.56488%, 32.15332%)" offset="0.714844"/><stop stop-opacity="1" stop-color="rgb(0%, 55.830383%, 31.939697%)" offset="0.71875"/><stop stop-opacity="1" stop-color="rgb(0%, 56.09436%, 31.724548%)" offset="0.722656"/><stop stop-opacity="1" stop-color="rgb(0%, 56.359863%, 31.510925%)" offset="0.726562"/><stop stop-opacity="1" stop-color="rgb(0%, 56.62384%, 31.295776%)" offset="0.730469"/><stop stop-opacity="1" stop-color="rgb(0%, 56.889343%, 31.082153%)" offset="0.734375"/><stop stop-opacity="1" stop-color="rgb(0%, 57.15332%, 30.867004%)" offset="0.738281"/><stop stop-opacity="1" stop-color="rgb(0%, 57.418823%, 30.653381%)" offset="0.742188"/><stop stop-opacity="1" stop-color="rgb(0%, 57.684326%, 30.438232%)" offset="0.746094"/><stop stop-opacity="1" stop-color="rgb(0%, 57.949829%, 30.224609%)" offset="0.75"/><stop stop-opacity="1" stop-color="rgb(0%, 58.213806%, 30.00946%)" offset="0.753906"/><stop stop-opacity="1" stop-color="rgb(0%, 58.479309%, 29.795837%)" offset="0.757812"/><stop stop-opacity="1" stop-color="rgb(0%, 58.743286%, 29.580688%)" offset="0.761719"/><stop stop-opacity="1" stop-color="rgb(0%, 59.008789%, 29.367065%)" offset="0.765625"/><stop stop-opacity="1" stop-color="rgb(0%, 59.272766%, 29.151917%)" offset="0.769531"/><stop stop-opacity="1" stop-color="rgb(0%, 59.538269%, 28.936768%)" offset="0.773437"/><stop stop-opacity="1" stop-color="rgb(0%, 59.802246%, 28.721619%)" offset="0.777344"/><stop stop-opacity="1" stop-color="rgb(0%, 60.067749%, 28.507996%)" offset="0.78125"/><stop stop-opacity="1" stop-color="rgb(0%, 60.331726%, 28.292847%)" offset="0.785156"/><stop stop-opacity="1" stop-color="rgb(0%, 60.597229%, 28.079224%)" offset="0.789062"/><stop stop-opacity="1" stop-color="rgb(0%, 60.861206%, 27.864075%)" offset="0.792969"/><stop stop-opacity="1" stop-color="rgb(0%, 61.126709%, 27.650452%)" offset="0.796875"/><stop stop-opacity="1" stop-color="rgb(0%, 61.392212%, 27.435303%)" offset="0.800781"/><stop stop-opacity="1" stop-color="rgb(0%, 61.657715%, 27.22168%)" offset="0.804688"/><stop stop-opacity="1" stop-color="rgb(0%, 61.921692%, 27.006531%)" offset="0.808594"/><stop stop-opacity="1" stop-color="rgb(0%, 62.187195%, 26.792908%)" offset="0.8125"/><stop stop-opacity="1" stop-color="rgb(0%, 62.451172%, 26.577759%)" offset="0.816406"/><stop stop-opacity="1" stop-color="rgb(0%, 62.716675%, 26.364136%)" offset="0.820312"/><stop stop-opacity="1" stop-color="rgb(0%, 62.980652%, 26.148987%)" offset="0.824219"/><stop stop-opacity="1" stop-color="rgb(0%, 63.246155%, 25.935364%)" offset="0.828125"/><stop stop-opacity="1" stop-color="rgb(0%, 63.510132%, 25.720215%)" offset="0.832031"/><stop stop-opacity="1" stop-color="rgb(0%, 63.775635%, 25.506592%)" offset="0.835937"/><stop stop-opacity="1" stop-color="rgb(0%, 64.039612%, 25.291443%)" offset="0.839844"/><stop stop-opacity="1" stop-color="rgb(0%, 64.305115%, 25.07782%)" offset="0.84375"/><stop stop-opacity="1" stop-color="rgb(0%, 64.569092%, 24.862671%)" offset="0.847656"/><stop stop-opacity="1" stop-color="rgb(0%, 64.834595%, 24.649048%)" offset="0.851562"/><stop stop-opacity="1" stop-color="rgb(0%, 65.100098%, 24.433899%)" offset="0.855469"/><stop stop-opacity="1" stop-color="rgb(0%, 65.365601%, 24.220276%)" offset="0.859375"/><stop stop-opacity="1" stop-color="rgb(0%, 65.629578%, 24.005127%)" offset="0.863281"/><stop stop-opacity="1" stop-color="rgb(0%, 65.895081%, 23.789978%)" offset="0.867188"/><stop stop-opacity="1" stop-color="rgb(0%, 66.159058%, 23.574829%)" offset="0.871094"/><stop stop-opacity="1" stop-color="rgb(0%, 66.424561%, 23.361206%)" offset="0.875"/><stop stop-opacity="1" stop-color="rgb(0%, 66.688538%, 23.146057%)" offset="0.878906"/><stop stop-opacity="1" stop-color="rgb(0%, 66.954041%, 22.932434%)" offset="0.882812"/><stop stop-opacity="1" stop-color="rgb(0%, 67.218018%, 22.717285%)" offset="0.886719"/><stop stop-opacity="1" stop-color="rgb(0%, 67.483521%, 22.503662%)" offset="0.890625"/><stop stop-opacity="1" stop-color="rgb(0%, 67.747498%, 22.288513%)" offset="0.894531"/><stop stop-opacity="1" stop-color="rgb(0%, 68.013%, 22.07489%)" offset="0.898437"/><stop stop-opacity="1" stop-color="rgb(0%, 68.276978%, 21.859741%)" offset="0.902344"/><stop stop-opacity="1" stop-color="rgb(0%, 68.54248%, 21.646118%)" offset="0.90625"/><stop stop-opacity="1" stop-color="rgb(0%, 68.806458%, 21.430969%)" offset="0.910156"/><stop stop-opacity="1" stop-color="rgb(0%, 69.07196%, 21.217346%)" offset="0.914063"/><stop stop-opacity="1" stop-color="rgb(0%, 69.337463%, 21.002197%)" offset="0.917969"/><stop stop-opacity="1" stop-color="rgb(0%, 69.602966%, 20.788574%)" offset="0.921875"/><stop stop-opacity="1" stop-color="rgb(0%, 69.866943%, 20.573425%)" offset="0.925781"/><stop stop-opacity="1" stop-color="rgb(0%, 70.132446%, 20.359802%)" offset="0.929688"/><stop stop-opacity="1" stop-color="rgb(0%, 70.396423%, 20.144653%)" offset="0.933594"/><stop stop-opacity="1" stop-color="rgb(0%, 70.661926%, 19.93103%)" offset="0.9375"/><stop stop-opacity="1" stop-color="rgb(0%, 70.925903%, 19.715881%)" offset="0.941406"/><stop stop-opacity="1" stop-color="rgb(0%, 71.191406%, 19.502258%)" offset="0.945312"/><stop stop-opacity="1" stop-color="rgb(0%, 71.455383%, 19.287109%)" offset="0.949219"/><stop stop-opacity="1" stop-color="rgb(0%, 71.720886%, 19.07196%)" offset="0.953125"/><stop stop-opacity="1" stop-color="rgb(0%, 71.984863%, 18.856812%)" offset="0.957031"/><stop stop-opacity="1" stop-color="rgb(0%, 72.250366%, 18.643188%)" offset="0.960937"/><stop stop-opacity="1" stop-color="rgb(0%, 72.514343%, 18.42804%)" offset="0.964844"/><stop stop-opacity="1" stop-color="rgb(0%, 72.779846%, 18.214417%)" offset="0.96875"/><stop stop-opacity="1" stop-color="rgb(0%, 73.045349%, 17.999268%)" offset="0.972656"/><stop stop-opacity="1" stop-color="rgb(0%, 73.310852%, 17.785645%)" offset="0.976563"/><stop stop-opacity="1" stop-color="rgb(0%, 73.574829%, 17.570496%)" offset="0.980469"/><stop stop-opacity="1" stop-color="rgb(0%, 73.840332%, 17.356873%)" offset="0.984375"/><stop stop-opacity="1" stop-color="rgb(0%, 74.104309%, 17.141724%)" offset="0.988281"/><stop stop-opacity="1" stop-color="rgb(0%, 74.369812%, 16.928101%)" offset="0.992188"/><stop stop-opacity="1" stop-color="rgb(0%, 74.633789%, 16.712952%)" offset="0.996094"/><stop stop-opacity="1" stop-color="rgb(0%, 74.899292%, 16.499329%)" offset="1"/></linearGradient></defs><g clip-path="url(#c4df0948e4)"><g clip-path="url(#1634b6ec24)"><path fill="url(#9c52a4a7d4)" d="M 0.828125 0 L 0.828125 29.03125 L 29.128906 29.03125 L 29.128906 0 Z M 0.828125 0 " fill-rule="nonzero"/></g></g></svg>