<svg xmlns="http://www.w3.org/2000/svg" xmlns:xlink="http://www.w3.org/1999/xlink" width="40" zoomAndPan="magnify" viewBox="0 0 30 30.000001" height="40" preserveAspectRatio="xMidYMid meet" version="1.0"><defs><clipPath id="0415b66b4d"><path d="M 0.828125 0 L 29.132812 0 L 29.132812 29.03125 L 0.828125 29.03125 Z M 0.828125 0 " clip-rule="nonzero"/></clipPath><clipPath id="dfca6ed159"><path d="M 15.324219 24.402344 C 15.351562 24.402344 15.378906 24.398438 15.40625 24.390625 C 18.527344 23.242188 20.648438 21.78125 22.082031 19.789062 C 22.785156 18.8125 23.15625 17.652344 23.15625 16.441406 L 23.15625 7.757812 C 23.15625 7.164062 22.84375 6.605469 22.339844 6.308594 C 20.410156 5.160156 18.296875 4.335938 16.0625 3.855469 C 15.574219 3.75 15.078125 3.75 14.589844 3.855469 C 12.351562 4.335938 10.242188 5.160156 8.3125 6.308594 C 7.808594 6.605469 7.496094 7.164062 7.496094 7.757812 L 7.496094 16.441406 C 7.496094 17.65625 7.867188 18.8125 8.570312 19.789062 C 10 21.78125 12.121094 23.242188 15.246094 24.390625 C 15.273438 24.398438 15.296875 24.402344 15.324219 24.402344 Z M 8.945312 19.519531 C 8.296875 18.621094 7.953125 17.558594 7.953125 16.441406 L 7.953125 7.757812 C 7.953125 7.324219 8.183594 6.921875 8.546875 6.703125 C 10.433594 5.582031 12.496094 4.777344 14.6875 4.304688 C 14.898438 4.257812 15.113281 4.234375 15.324219 4.234375 C 15.539062 4.234375 15.753906 4.257812 15.964844 4.304688 C 18.152344 4.777344 20.21875 5.582031 22.101562 6.703125 C 22.46875 6.921875 22.695312 7.324219 22.695312 7.757812 L 22.695312 16.441406 C 22.695312 17.558594 22.355469 18.621094 21.707031 19.519531 C 20.34375 21.414062 18.316406 22.816406 15.324219 23.925781 C 12.335938 22.816406 10.304688 21.414062 8.945312 19.519531 Z M 17.03125 18.515625 C 17.074219 18.460938 17.09375 18.394531 17.082031 18.328125 L 16.28125 13.324219 C 16.886719 12.980469 17.269531 12.335938 17.269531 11.632812 C 17.269531 10.558594 16.398438 9.683594 15.324219 9.683594 C 14.253906 9.683594 13.382812 10.558594 13.382812 11.632812 C 13.382812 12.335938 13.765625 12.980469 14.371094 13.324219 L 13.570312 18.328125 C 13.558594 18.394531 13.578125 18.460938 13.621094 18.515625 C 13.664062 18.566406 13.730469 18.59375 13.796875 18.59375 L 16.855469 18.59375 C 16.921875 18.59375 16.984375 18.566406 17.03125 18.515625 Z M 14.066406 18.132812 L 14.851562 13.230469 C 14.867188 13.128906 14.8125 13.027344 14.71875 12.984375 C 14.1875 12.746094 13.84375 12.214844 13.84375 11.632812 C 13.84375 10.8125 14.507812 10.144531 15.324219 10.144531 C 16.144531 10.144531 16.808594 10.8125 16.808594 11.632812 C 16.808594 12.214844 16.464844 12.746094 15.929688 12.984375 C 15.835938 13.027344 15.78125 13.128906 15.796875 13.230469 L 16.585938 18.132812 Z M 8.78125 24.535156 C 10.367188 25.515625 12.109375 26.113281 13.964844 26.316406 C 14.089844 26.332031 14.179688 26.445312 14.167969 26.570312 C 14.15625 26.6875 14.054688 26.777344 13.9375 26.777344 C 13.929688 26.777344 13.921875 26.777344 13.914062 26.773438 C 11.992188 26.566406 10.183594 25.945312 8.539062 24.929688 C 8.433594 24.863281 8.398438 24.71875 8.464844 24.613281 C 8.53125 24.503906 8.671875 24.46875 8.78125 24.535156 Z M 7.085938 2.910156 C 7.007812 2.808594 7.03125 2.664062 7.136719 2.589844 C 8.539062 1.566406 10.097656 0.828125 11.769531 0.386719 C 11.894531 0.355469 12.019531 0.429688 12.050781 0.550781 C 12.085938 0.675781 12.011719 0.800781 11.886719 0.832031 C 10.273438 1.257812 8.765625 1.976562 7.40625 2.960938 C 7.363281 2.992188 7.316406 3.007812 7.269531 3.007812 C 7.199219 3.007812 7.128906 2.972656 7.085938 2.910156 Z M 1.917969 11.207031 C 1.902344 11.207031 1.886719 11.207031 1.871094 11.203125 C 1.746094 11.175781 1.667969 11.050781 1.695312 10.929688 C 1.964844 9.683594 2.402344 8.480469 3 7.351562 C 3.0625 7.238281 3.199219 7.195312 3.3125 7.257812 C 3.425781 7.316406 3.46875 7.457031 3.40625 7.566406 C 2.828125 8.65625 2.40625 9.820312 2.144531 11.027344 C 2.121094 11.132812 2.027344 11.207031 1.917969 11.207031 Z M 1.945312 12.195312 C 1.875 12.753906 1.839844 13.324219 1.839844 13.890625 C 1.839844 14.019531 1.738281 14.121094 1.609375 14.121094 C 1.480469 14.121094 1.378906 14.019531 1.378906 13.890625 C 1.378906 13.304688 1.417969 12.714844 1.488281 12.136719 C 1.503906 12.011719 1.617188 11.921875 1.746094 11.9375 C 1.871094 11.953125 1.960938 12.066406 1.945312 12.195312 Z M 10.632812 25.019531 C 10.515625 24.972656 10.460938 24.835938 10.511719 24.71875 C 10.5625 24.601562 10.695312 24.546875 10.8125 24.597656 C 11.691406 24.96875 12.617188 25.230469 13.558594 25.375 C 13.6875 25.394531 13.773438 25.511719 13.753906 25.636719 C 13.734375 25.75 13.636719 25.832031 13.527344 25.832031 C 13.515625 25.832031 13.503906 25.832031 13.492188 25.828125 C 12.507812 25.679688 11.546875 25.40625 10.632812 25.019531 Z M 1.480469 21.792969 C 1.839844 21.792969 2.132812 21.5 2.132812 21.140625 C 2.132812 20.78125 1.839844 20.488281 1.480469 20.488281 C 1.121094 20.488281 0.828125 20.78125 0.828125 21.140625 C 0.828125 21.5 1.121094 21.792969 1.480469 21.792969 Z M 1.480469 20.949219 C 1.585938 20.949219 1.671875 21.035156 1.671875 21.140625 C 1.671875 21.246094 1.585938 21.332031 1.480469 21.332031 C 1.375 21.332031 1.289062 21.246094 1.289062 21.140625 C 1.289062 21.035156 1.375 20.949219 1.480469 20.949219 Z M 26.367188 1.816406 C 26.726562 1.816406 27.015625 1.523438 27.015625 1.164062 C 27.015625 0.804688 26.726562 0.511719 26.367188 0.511719 C 26.007812 0.511719 25.714844 0.804688 25.714844 1.164062 C 25.714844 1.523438 26.003906 1.816406 26.367188 1.816406 Z M 26.367188 0.972656 C 26.472656 0.972656 26.558594 1.058594 26.558594 1.164062 C 26.558594 1.269531 26.472656 1.355469 26.367188 1.355469 C 26.257812 1.355469 26.171875 1.269531 26.171875 1.164062 C 26.171875 1.058594 26.257812 0.972656 26.367188 0.972656 Z M 2.925781 27.625 C 2.925781 27.984375 3.21875 28.277344 3.578125 28.277344 C 3.9375 28.277344 4.230469 27.984375 4.230469 27.625 C 4.230469 27.265625 3.9375 26.972656 3.578125 26.972656 C 3.21875 26.972656 2.925781 27.265625 2.925781 27.625 Z M 3.769531 27.625 C 3.769531 27.730469 3.683594 27.816406 3.578125 27.816406 C 3.472656 27.816406 3.386719 27.730469 3.386719 27.625 C 3.386719 27.519531 3.472656 27.433594 3.578125 27.433594 C 3.683594 27.433594 3.769531 27.519531 3.769531 27.625 Z M 1.058594 4.339844 L 1.402344 4.339844 L 1.402344 7.195312 C 1.402344 7.324219 1.503906 7.425781 1.632812 7.425781 C 1.757812 7.425781 1.863281 7.324219 1.863281 7.195312 L 1.863281 4.339844 L 3.71875 4.339844 L 3.71875 5.410156 C 3.71875 5.539062 3.824219 5.640625 3.949219 5.640625 C 4.078125 5.640625 4.179688 5.539062 4.179688 5.410156 L 4.179688 4.339844 L 5.460938 4.339844 L 7.308594 6.066406 C 6.699219 6.695312 6.164062 7.390625 5.710938 8.144531 L 4.488281 7.273438 C 4.484375 7.269531 4.480469 7.269531 4.476562 7.265625 C 4.472656 7.265625 4.472656 7.261719 4.46875 7.261719 C 4.460938 7.253906 4.449219 7.253906 4.4375 7.25 C 4.421875 7.242188 4.40625 7.238281 4.390625 7.234375 C 4.378906 7.230469 4.363281 7.234375 4.347656 7.234375 C 4.335938 7.234375 4.320312 7.230469 4.304688 7.234375 C 4.289062 7.238281 4.277344 7.246094 4.265625 7.25 C 4.25 7.257812 4.238281 7.261719 4.226562 7.269531 C 4.210938 7.277344 4.203125 7.292969 4.191406 7.304688 C 4.183594 7.3125 4.171875 7.316406 4.164062 7.324219 C 4.164062 7.328125 4.164062 7.332031 4.160156 7.335938 C 4.160156 7.335938 4.15625 7.339844 4.15625 7.34375 C 2.996094 9.320312 2.382812 11.585938 2.382812 13.890625 C 2.382812 17.039062 3.523438 20.074219 5.597656 22.441406 C 5.640625 22.492188 5.707031 22.519531 5.769531 22.519531 C 5.824219 22.519531 5.878906 22.5 5.921875 22.460938 C 6.015625 22.375 6.027344 22.230469 5.941406 22.136719 C 5.617188 21.765625 5.316406 21.375 5.039062 20.972656 L 5.957031 20.0625 C 6.867188 21.441406 8.085938 22.625 9.550781 23.503906 L 1.710938 23.503906 L 1.710938 22.289062 C 1.710938 22.160156 1.605469 22.058594 1.480469 22.058594 C 1.351562 22.058594 1.25 22.160156 1.25 22.289062 L 1.25 23.734375 C 1.25 23.863281 1.351562 23.964844 1.480469 23.964844 L 3.347656 23.964844 L 3.347656 26.433594 C 3.347656 26.558594 3.449219 26.664062 3.578125 26.664062 C 3.703125 26.664062 3.808594 26.558594 3.808594 26.433594 L 3.808594 23.964844 L 5.007812 23.964844 L 5.007812 25.082031 C 5.007812 25.210938 5.113281 25.3125 5.238281 25.3125 C 5.367188 25.3125 5.46875 25.210938 5.46875 25.082031 L 5.46875 23.964844 L 10.449219 23.964844 C 10.457031 23.964844 10.46875 23.960938 10.476562 23.960938 C 10.496094 23.957031 10.511719 23.953125 10.53125 23.949219 C 10.542969 23.945312 10.554688 23.933594 10.566406 23.929688 C 10.578125 23.921875 10.59375 23.914062 10.605469 23.902344 C 10.617188 23.890625 10.625 23.878906 10.632812 23.863281 C 10.640625 23.855469 10.648438 23.847656 10.652344 23.835938 C 10.65625 23.835938 10.65625 23.832031 10.65625 23.832031 C 10.664062 23.816406 10.664062 23.800781 10.667969 23.785156 C 10.671875 23.769531 10.675781 23.757812 10.675781 23.742188 C 10.675781 23.738281 10.679688 23.738281 10.679688 23.734375 C 10.679688 23.722656 10.671875 23.714844 10.671875 23.703125 C 10.667969 23.6875 10.667969 23.667969 10.660156 23.652344 C 10.65625 23.640625 10.648438 23.628906 10.640625 23.617188 C 10.632812 23.601562 10.625 23.589844 10.617188 23.578125 C 10.605469 23.566406 10.589844 23.558594 10.578125 23.546875 C 10.566406 23.542969 10.5625 23.535156 10.550781 23.527344 C 8.730469 22.621094 7.25 21.261719 6.222656 19.621094 C 6.210938 19.585938 6.195312 19.554688 6.167969 19.527344 C 6.167969 19.527344 6.164062 19.527344 6.164062 19.523438 C 5.148438 17.867188 4.582031 15.929688 4.582031 13.890625 C 4.582031 7.960938 9.402344 3.136719 15.324219 3.136719 C 21.25 3.136719 26.066406 7.960938 26.066406 13.890625 C 26.066406 19.820312 21.25 24.648438 15.324219 24.648438 C 15.199219 24.648438 15.09375 24.75 15.09375 24.878906 L 15.09375 28.800781 C 15.09375 28.929688 15.199219 29.03125 15.324219 29.03125 C 15.453125 29.03125 15.554688 28.929688 15.554688 28.800781 L 15.554688 28.027344 L 17.628906 28.027344 C 17.753906 28.027344 17.859375 27.925781 17.859375 27.796875 C 17.859375 27.671875 17.753906 27.566406 17.628906 27.566406 L 15.554688 27.566406 L 15.554688 26.84375 C 18.863281 26.789062 21.964844 25.496094 24.335938 23.191406 L 24.6875 23.605469 C 23.488281 24.765625 22.105469 25.683594 20.574219 26.332031 C 20.457031 26.382812 20.402344 26.519531 20.453125 26.636719 C 20.488281 26.722656 20.574219 26.777344 20.664062 26.777344 C 20.695312 26.777344 20.726562 26.769531 20.753906 26.757812 C 22.332031 26.089844 23.75 25.144531 24.988281 23.957031 L 25.84375 24.960938 L 25.84375 26.273438 C 25.84375 26.402344 25.945312 26.503906 26.074219 26.503906 C 26.199219 26.503906 26.300781 26.402344 26.300781 26.273438 L 26.300781 25.109375 L 26.925781 25.109375 L 26.925781 27.171875 C 26.925781 27.300781 27.03125 27.402344 27.15625 27.402344 C 27.285156 27.402344 27.386719 27.300781 27.386719 27.171875 L 27.386719 25.109375 L 28.789062 25.109375 C 28.917969 25.109375 29.019531 25.003906 29.019531 24.878906 C 29.019531 24.75 28.917969 24.648438 28.789062 24.648438 L 26.179688 24.648438 L 23.523438 21.523438 C 23.734375 21.296875 23.933594 21.0625 24.125 20.820312 L 26.128906 22.980469 C 26.171875 23.027344 26.234375 23.054688 26.296875 23.054688 L 28.414062 23.054688 C 28.542969 23.054688 28.644531 22.949219 28.644531 22.824219 C 28.644531 22.695312 28.542969 22.59375 28.414062 22.59375 L 27.5625 22.59375 L 27.5625 21.109375 C 27.5625 20.984375 27.457031 20.878906 27.332031 20.878906 C 27.203125 20.878906 27.101562 20.984375 27.101562 21.109375 L 27.101562 22.59375 L 26.398438 22.59375 L 25.003906 21.089844 C 25.484375 20.445312 25.90625 19.75 26.246094 19.023438 C 26.300781 18.910156 26.25 18.773438 26.136719 18.71875 C 26.019531 18.664062 25.882812 18.714844 25.828125 18.828125 C 25.511719 19.503906 25.128906 20.144531 24.6875 20.746094 L 24.40625 20.445312 C 25.265625 19.257812 25.894531 17.898438 26.234375 16.425781 L 27.640625 16.949219 C 27.644531 16.949219 27.652344 16.949219 27.65625 16.949219 C 27.660156 16.953125 27.664062 16.957031 27.667969 16.957031 C 27.6875 16.960938 27.703125 16.960938 27.71875 16.960938 C 27.71875 16.960938 27.71875 16.960938 27.722656 16.960938 C 27.722656 16.960938 27.722656 16.960938 27.726562 16.960938 C 27.746094 16.960938 27.769531 16.957031 27.792969 16.949219 C 27.800781 16.949219 27.808594 16.941406 27.816406 16.9375 C 27.832031 16.933594 27.84375 16.925781 27.855469 16.917969 C 27.863281 16.910156 27.871094 16.902344 27.878906 16.894531 C 27.890625 16.886719 27.898438 16.875 27.90625 16.867188 C 27.914062 16.855469 27.917969 16.847656 27.921875 16.835938 C 27.925781 16.828125 27.933594 16.820312 27.9375 16.8125 C 27.9375 16.808594 27.9375 16.804688 27.9375 16.800781 C 27.941406 16.792969 27.945312 16.789062 27.945312 16.785156 C 28.160156 15.839844 28.269531 14.867188 28.269531 13.890625 C 28.269531 9.679688 26.21875 5.867188 23.027344 3.484375 L 23.648438 2.769531 L 25.566406 2.769531 L 25.566406 4.753906 C 25.566406 4.878906 25.667969 4.984375 25.796875 4.984375 C 25.921875 4.984375 26.027344 4.878906 26.027344 4.753906 L 26.027344 2.769531 L 27.058594 2.769531 L 27.058594 3.851562 C 27.058594 3.980469 27.160156 4.082031 27.289062 4.082031 C 27.414062 4.082031 27.519531 3.980469 27.519531 3.851562 L 27.519531 2.769531 L 28.898438 2.769531 C 29.027344 2.769531 29.128906 2.664062 29.128906 2.539062 C 29.128906 2.410156 29.027344 2.308594 28.898438 2.308594 L 23.773438 2.308594 L 23.773438 1.394531 L 25.222656 1.394531 C 25.351562 1.394531 25.453125 1.292969 25.453125 1.164062 C 25.453125 1.035156 25.351562 0.933594 25.222656 0.933594 L 23.542969 0.933594 C 23.414062 0.933594 23.3125 1.035156 23.3125 1.164062 L 23.3125 2.453125 L 22.648438 3.214844 C 21.078125 2.128906 19.25 1.382812 17.269531 1.082031 L 17.269531 0.230469 C 17.269531 0.101562 17.164062 0 17.039062 0 C 16.910156 0 16.808594 0.101562 16.808594 0.230469 L 16.808594 2.777344 C 16.324219 2.714844 15.828125 2.675781 15.324219 2.675781 C 14.824219 2.675781 14.328125 2.714844 13.84375 2.777344 L 13.84375 1.277344 C 13.84375 1.273438 13.839844 1.269531 13.839844 1.261719 C 13.839844 1.257812 13.839844 1.253906 13.839844 1.246094 C 13.839844 1.238281 13.832031 1.226562 13.832031 1.21875 C 13.828125 1.203125 13.824219 1.191406 13.816406 1.175781 C 13.808594 1.160156 13.800781 1.148438 13.789062 1.136719 C 13.78125 1.125 13.773438 1.117188 13.765625 1.109375 C 13.753906 1.097656 13.738281 1.089844 13.722656 1.082031 C 13.710938 1.074219 13.703125 1.066406 13.6875 1.0625 C 13.675781 1.058594 13.65625 1.054688 13.640625 1.054688 C 13.632812 1.050781 13.621094 1.046875 13.613281 1.046875 C 13.605469 1.046875 13.601562 1.050781 13.597656 1.050781 C 13.59375 1.050781 13.585938 1.050781 13.582031 1.050781 C 10.84375 1.417969 8.355469 2.628906 6.359375 4.546875 L 5.710938 3.9375 C 5.667969 3.898438 5.609375 3.878906 5.554688 3.878906 L 2.566406 3.878906 L 2.566406 2.019531 C 2.566406 1.894531 2.464844 1.792969 2.335938 1.792969 C 2.210938 1.792969 2.105469 1.894531 2.105469 2.019531 L 2.105469 3.878906 L 1.058594 3.878906 C 0.929688 3.878906 0.828125 3.980469 0.828125 4.109375 C 0.828125 4.234375 0.929688 4.339844 1.058594 4.339844 Z M 15.554688 26.382812 L 15.554688 25.101562 C 18.53125 25.042969 21.230469 23.816406 23.203125 21.855469 L 24.039062 22.839844 C 21.746094 25.074219 18.753906 26.328125 15.554688 26.382812 Z M 17.269531 1.546875 C 23.296875 2.492188 27.808594 7.75 27.808594 13.890625 C 27.808594 14.746094 27.71875 15.59375 27.546875 16.421875 L 26.332031 15.96875 C 26.457031 15.296875 26.527344 14.601562 26.527344 13.890625 C 26.527344 8.371094 22.523438 3.773438 17.269531 2.847656 Z M 5.707031 19.664062 L 4.78125 20.578125 C 3.523438 18.589844 2.84375 16.277344 2.84375 13.890625 C 2.84375 11.753906 3.390625 9.652344 4.425781 7.796875 L 5.480469 8.546875 C 4.613281 10.136719 4.121094 11.957031 4.121094 13.890625 C 4.125 15.976562 4.6875 17.957031 5.707031 19.664062 Z M 13.382812 1.546875 L 13.382812 2.847656 C 11.179688 3.234375 9.199219 4.269531 7.640625 5.746094 L 6.699219 4.863281 C 8.554688 3.082031 10.855469 1.941406 13.382812 1.546875 Z M 13.382812 1.546875 " clip-rule="nonzero"/></clipPath></defs><g clip-path="url(#0415b66b4d)"><g clip-path="url(#dfca6ed159)"><path fill="#000000" d="M 0.828125 0 L 0.828125 29.03125 L 29.128906 29.03125 L 29.128906 0 Z M 0.828125 0 " fill-opacity="1" fill-rule="nonzero"/></g></g></svg>