<svg xmlns="http://www.w3.org/2000/svg" xmlns:xlink="http://www.w3.org/1999/xlink" width="40" zoomAndPan="magnify" viewBox="0 0 30 30.000001" height="40" preserveAspectRatio="xMidYMid meet" version="1.0"><defs><clipPath id="65a901a068"><path d="M 0.484375 0 L 29.515625 0 L 29.515625 29.03125 L 0.484375 29.03125 Z M 0.484375 0 " clip-rule="nonzero"/></clipPath><clipPath id="385406ca18"><path d="M 25.160156 20.324219 C 24.390625 20.324219 23.667969 20.523438 23.039062 20.878906 L 21.769531 19.183594 C 22.6875 17.859375 23.226562 16.25 23.226562 14.515625 C 23.226562 12.792969 22.691406 11.191406 21.785156 9.867188 L 23.34375 8.308594 C 23.894531 8.566406 24.511719 8.710938 25.160156 8.710938 C 27.5625 8.710938 29.515625 6.757812 29.515625 4.355469 C 29.515625 1.953125 27.5625 0 25.160156 0 C 22.761719 0 20.804688 1.953125 20.804688 4.355469 C 20.804688 5.75 21.46875 6.996094 22.492188 7.792969 L 21.183594 9.097656 C 19.675781 7.378906 17.460938 6.289062 15 6.289062 C 12.539062 6.289062 10.324219 7.378906 8.816406 9.097656 L 7.507812 7.792969 C 8.53125 6.996094 9.195312 5.75 9.195312 4.355469 C 9.195312 1.953125 7.238281 0 4.839844 0 C 2.4375 0 0.484375 1.953125 0.484375 4.355469 C 0.484375 6.757812 2.4375 8.710938 4.839844 8.710938 C 5.488281 8.710938 6.105469 8.566406 6.65625 8.308594 L 8.214844 9.867188 C 7.308594 11.191406 6.773438 12.792969 6.773438 14.515625 C 6.773438 16.25 7.3125 17.859375 8.230469 19.183594 L 6.960938 20.878906 C 6.332031 20.523438 5.609375 20.324219 4.839844 20.324219 C 2.4375 20.324219 0.484375 22.277344 0.484375 24.675781 C 0.484375 27.078125 2.4375 29.03125 4.839844 29.03125 C 7.238281 29.03125 9.195312 27.078125 9.195312 24.675781 C 9.195312 23.394531 8.636719 22.238281 7.75 21.441406 L 8.851562 19.972656 C 10.359375 21.671875 12.554688 22.742188 15 22.742188 C 17.445312 22.742188 19.640625 21.671875 21.148438 19.972656 L 22.25 21.441406 C 21.363281 22.238281 20.804688 23.394531 20.804688 24.675781 C 20.804688 27.078125 22.761719 29.03125 25.160156 29.03125 C 27.5625 29.03125 29.515625 27.078125 29.515625 24.675781 C 29.515625 22.277344 27.5625 20.324219 25.160156 20.324219 Z M 23.710938 7.414062 L 23.710938 6.773438 C 23.710938 5.972656 24.359375 5.324219 25.160156 5.324219 C 25.960938 5.324219 26.613281 5.972656 26.613281 6.773438 L 26.613281 7.414062 C 26.171875 7.625 25.679688 7.742188 25.160156 7.742188 C 24.640625 7.742188 24.148438 7.625 23.710938 7.414062 Z M 24.195312 3.386719 C 24.195312 2.851562 24.628906 2.417969 25.160156 2.417969 C 25.695312 2.417969 26.128906 2.851562 26.128906 3.386719 C 26.128906 3.921875 25.695312 4.355469 25.160156 4.355469 C 24.628906 4.355469 24.195312 3.921875 24.195312 3.386719 Z M 21.773438 4.355469 C 21.773438 2.488281 23.292969 0.96875 25.160156 0.96875 C 27.027344 0.96875 28.546875 2.488281 28.546875 4.355469 C 28.546875 5.277344 28.179688 6.113281 27.578125 6.722656 C 27.5625 5.910156 27.144531 5.195312 26.515625 4.769531 C 26.875 4.417969 27.097656 3.929688 27.097656 3.386719 C 27.097656 2.320312 26.230469 1.453125 25.160156 1.453125 C 24.09375 1.453125 23.226562 2.320312 23.226562 3.386719 C 23.226562 3.929688 23.449219 4.417969 23.808594 4.769531 C 23.179688 5.195312 22.761719 5.910156 22.742188 6.722656 C 22.144531 6.113281 21.773438 5.277344 21.773438 4.355469 Z M 1.453125 4.355469 C 1.453125 2.488281 2.972656 0.96875 4.839844 0.96875 C 6.707031 0.96875 8.226562 2.488281 8.226562 4.355469 C 8.226562 5.277344 7.855469 6.113281 7.257812 6.722656 C 7.238281 5.910156 6.820312 5.195312 6.191406 4.769531 C 6.550781 4.417969 6.773438 3.929688 6.773438 3.386719 C 6.773438 2.320312 5.90625 1.453125 4.839844 1.453125 C 3.769531 1.453125 2.902344 2.320312 2.902344 3.386719 C 2.902344 3.929688 3.125 4.417969 3.484375 4.769531 C 2.855469 5.195312 2.4375 5.910156 2.421875 6.722656 C 1.820312 6.113281 1.453125 5.277344 1.453125 4.355469 Z M 3.871094 3.386719 C 3.871094 2.851562 4.304688 2.417969 4.839844 2.417969 C 5.371094 2.417969 5.804688 2.851562 5.804688 3.386719 C 5.804688 3.921875 5.371094 4.355469 4.839844 4.355469 C 4.304688 4.355469 3.871094 3.921875 3.871094 3.386719 Z M 3.386719 7.414062 L 3.386719 6.773438 C 3.386719 5.972656 4.039062 5.324219 4.839844 5.324219 C 5.640625 5.324219 6.289062 5.972656 6.289062 6.773438 L 6.289062 7.414062 C 5.851562 7.625 5.359375 7.742188 4.839844 7.742188 C 4.320312 7.742188 3.828125 7.625 3.386719 7.414062 Z M 3.386719 27.738281 L 3.386719 27.097656 C 3.386719 26.296875 4.039062 25.644531 4.839844 25.644531 C 5.640625 25.644531 6.289062 26.296875 6.289062 27.097656 L 6.289062 27.738281 C 5.851562 27.945312 5.359375 28.066406 4.839844 28.066406 C 4.320312 28.066406 3.828125 27.945312 3.386719 27.738281 Z M 3.871094 23.710938 C 3.871094 23.175781 4.304688 22.742188 4.839844 22.742188 C 5.371094 22.742188 5.804688 23.175781 5.804688 23.710938 C 5.804688 24.242188 5.371094 24.675781 4.839844 24.675781 C 4.304688 24.675781 3.871094 24.242188 3.871094 23.710938 Z M 8.226562 24.675781 C 8.226562 25.597656 7.855469 26.433594 7.257812 27.046875 C 7.238281 26.234375 6.820312 25.519531 6.191406 25.09375 C 6.550781 24.742188 6.773438 24.25 6.773438 23.710938 C 6.773438 22.640625 5.90625 21.773438 4.839844 21.773438 C 3.769531 21.773438 2.902344 22.640625 2.902344 23.710938 C 2.902344 24.25 3.125 24.742188 3.484375 25.09375 C 2.855469 25.519531 2.4375 26.234375 2.421875 27.046875 C 1.820312 26.433594 1.453125 25.597656 1.453125 24.675781 C 1.453125 22.808594 2.972656 21.289062 4.839844 21.289062 C 6.707031 21.289062 8.226562 22.808594 8.226562 24.675781 Z M 7.757812 15 L 9.203125 15 C 9.25 16.144531 9.460938 17.242188 9.820312 18.242188 C 9.53125 18.34375 9.253906 18.457031 8.984375 18.574219 C 8.285156 17.542969 7.84375 16.316406 7.757812 15 Z M 8.984375 10.457031 C 9.253906 10.578125 9.53125 10.6875 9.820312 10.789062 C 9.460938 11.789062 9.25 12.890625 9.203125 14.03125 L 7.757812 14.03125 C 7.84375 12.714844 8.285156 11.492188 8.984375 10.457031 Z M 22.242188 14.03125 L 20.796875 14.03125 C 20.75 12.890625 20.539062 11.789062 20.179688 10.789062 C 20.46875 10.6875 20.746094 10.578125 21.015625 10.457031 C 21.714844 11.492188 22.15625 12.714844 22.242188 14.03125 Z M 19.828125 14.03125 L 17.414062 14.03125 C 17.402344 13.140625 17.351562 12.277344 17.265625 11.46875 C 17.960938 11.378906 18.628906 11.246094 19.257812 11.078125 C 19.585938 11.984375 19.78125 12.984375 19.828125 14.03125 Z M 15 21.773438 C 14.996094 21.773438 14.539062 21.632812 14.101562 19.875 C 13.992188 19.433594 13.894531 18.949219 13.816406 18.429688 C 14.207031 18.402344 14.601562 18.386719 15 18.386719 C 15.398438 18.386719 15.792969 18.402344 16.183594 18.429688 C 16.105469 18.949219 16.007812 19.433594 15.898438 19.875 C 15.460938 21.632812 15.003906 21.773438 15 21.773438 Z M 15 17.417969 C 14.558594 17.417969 14.125 17.4375 13.695312 17.464844 C 13.613281 16.691406 13.566406 15.859375 13.550781 15 L 16.449219 15 C 16.433594 15.859375 16.386719 16.691406 16.304688 17.464844 C 15.875 17.4375 15.441406 17.417969 15 17.417969 Z M 13.550781 14.03125 C 13.566406 13.171875 13.613281 12.339844 13.695312 11.566406 C 14.125 11.597656 14.558594 11.613281 15 11.613281 C 15.441406 11.613281 15.875 11.597656 16.304688 11.566406 C 16.386719 12.339844 16.433594 13.171875 16.449219 14.03125 Z M 15 7.257812 C 15.003906 7.257812 15.460938 7.398438 15.898438 9.160156 C 16.007812 9.597656 16.105469 10.085938 16.183594 10.605469 C 15.792969 10.632812 15.398438 10.644531 15 10.644531 C 14.601562 10.644531 14.207031 10.632812 13.816406 10.605469 C 13.894531 10.082031 13.992188 9.597656 14.101562 9.160156 C 14.539062 7.398438 14.996094 7.257812 15 7.257812 Z M 17.144531 10.507812 C 17.0625 9.9375 16.957031 9.40625 16.839844 8.925781 C 16.703125 8.390625 16.554688 7.9375 16.386719 7.5625 C 17.121094 7.894531 17.796875 8.492188 18.363281 9.316406 C 18.550781 9.585938 18.71875 9.875 18.871094 10.175781 C 18.324219 10.320312 17.746094 10.429688 17.144531 10.507812 Z M 13.613281 7.5625 C 13.445312 7.9375 13.296875 8.390625 13.160156 8.925781 C 13.042969 9.40625 12.9375 9.9375 12.855469 10.507812 C 12.253906 10.429688 11.675781 10.320312 11.128906 10.175781 C 11.28125 9.875 11.449219 9.585938 11.636719 9.316406 C 12.203125 8.488281 12.878906 7.894531 13.613281 7.5625 Z M 12.734375 11.46875 C 12.648438 12.277344 12.597656 13.140625 12.585938 14.03125 L 10.171875 14.03125 C 10.21875 12.984375 10.414062 11.984375 10.742188 11.078125 C 11.371094 11.246094 12.039062 11.378906 12.734375 11.46875 Z M 10.171875 15 L 12.585938 15 C 12.597656 15.890625 12.648438 16.753906 12.734375 17.5625 C 12.039062 17.652344 11.371094 17.785156 10.742188 17.957031 C 10.414062 17.050781 10.21875 16.046875 10.171875 15 Z M 12.855469 18.523438 C 12.9375 19.09375 13.042969 19.625 13.160156 20.109375 C 13.296875 20.644531 13.445312 21.097656 13.613281 21.46875 C 12.878906 21.136719 12.203125 20.542969 11.636719 19.714844 C 11.449219 19.445312 11.28125 19.15625 11.128906 18.855469 C 11.675781 18.710938 12.253906 18.601562 12.855469 18.523438 Z M 16.386719 21.46875 C 16.554688 21.097656 16.703125 20.644531 16.839844 20.109375 C 16.957031 19.625 17.0625 19.09375 17.144531 18.523438 C 17.746094 18.601562 18.324219 18.710938 18.871094 18.855469 C 18.71875 19.15625 18.550781 19.445312 18.363281 19.714844 C 17.796875 20.542969 17.121094 21.136719 16.386719 21.46875 Z M 17.265625 17.5625 C 17.351562 16.753906 17.402344 15.890625 17.414062 15 L 19.828125 15 C 19.78125 16.046875 19.585938 17.050781 19.257812 17.957031 C 18.628906 17.785156 17.960938 17.652344 17.265625 17.5625 Z M 20.796875 15 L 22.242188 15 C 22.15625 16.316406 21.714844 17.542969 21.015625 18.574219 C 20.746094 18.457031 20.46875 18.34375 20.179688 18.242188 C 20.539062 17.242188 20.75 16.144531 20.796875 15 Z M 20.398438 9.667969 C 20.207031 9.75 20.011719 9.824219 19.808594 9.894531 C 19.617188 9.496094 19.402344 9.117188 19.164062 8.769531 C 19.070312 8.636719 18.976562 8.507812 18.882812 8.386719 C 19.445312 8.742188 19.953125 9.175781 20.398438 9.667969 Z M 11.117188 8.386719 C 11.023438 8.507812 10.929688 8.636719 10.835938 8.769531 C 10.597656 9.117188 10.382812 9.496094 10.191406 9.894531 C 9.988281 9.824219 9.792969 9.746094 9.601562 9.667969 C 10.046875 9.175781 10.558594 8.742188 11.117188 8.386719 Z M 9.601562 19.363281 C 9.792969 19.28125 9.988281 19.207031 10.191406 19.136719 C 10.382812 19.535156 10.597656 19.914062 10.835938 20.265625 C 10.929688 20.398438 11.023438 20.523438 11.117188 20.644531 C 10.554688 20.289062 10.046875 19.855469 9.601562 19.363281 Z M 18.882812 20.644531 C 18.976562 20.523438 19.070312 20.398438 19.164062 20.265625 C 19.402344 19.914062 19.617188 19.535156 19.808594 19.136719 C 20.011719 19.207031 20.207031 19.28125 20.398438 19.363281 C 19.953125 19.855469 19.445312 20.289062 18.882812 20.644531 Z M 23.710938 27.738281 L 23.710938 27.097656 C 23.710938 26.296875 24.359375 25.644531 25.160156 25.644531 C 25.960938 25.644531 26.613281 26.296875 26.613281 27.097656 L 26.613281 27.738281 C 26.171875 27.945312 25.679688 28.066406 25.160156 28.066406 C 24.640625 28.066406 24.148438 27.945312 23.710938 27.738281 Z M 24.195312 23.710938 C 24.195312 23.175781 24.628906 22.742188 25.160156 22.742188 C 25.695312 22.742188 26.128906 23.175781 26.128906 23.710938 C 26.128906 24.242188 25.695312 24.675781 25.160156 24.675781 C 24.628906 24.675781 24.195312 24.242188 24.195312 23.710938 Z M 27.578125 27.046875 C 27.5625 26.234375 27.144531 25.519531 26.515625 25.09375 C 26.875 24.742188 27.097656 24.25 27.097656 23.710938 C 27.097656 22.640625 26.230469 21.773438 25.160156 21.773438 C 24.09375 21.773438 23.226562 22.640625 23.226562 23.710938 C 23.226562 24.25 23.449219 24.742188 23.808594 25.09375 C 23.179688 25.519531 22.761719 26.234375 22.742188 27.046875 C 22.144531 26.433594 21.773438 25.597656 21.773438 24.675781 C 21.773438 22.808594 23.292969 21.289062 25.160156 21.289062 C 27.027344 21.289062 28.546875 22.808594 28.546875 24.675781 C 28.546875 25.597656 28.179688 26.433594 27.578125 27.046875 Z M 9.730469 3.171875 L 10.695312 1.234375 C 10.816406 0.996094 11.105469 0.898438 11.34375 1.019531 C 11.585938 1.136719 11.679688 1.429688 11.5625 1.667969 L 11.125 2.546875 C 12.371094 2.140625 13.671875 1.933594 15 1.933594 C 16.5625 1.933594 18.085938 2.21875 19.527344 2.777344 C 19.777344 2.871094 19.902344 3.152344 19.804688 3.402344 C 19.730469 3.59375 19.550781 3.710938 19.355469 3.710938 C 19.296875 3.710938 19.238281 3.699219 19.179688 3.679688 C 17.847656 3.164062 16.441406 2.902344 15 2.902344 C 13.769531 2.902344 12.5625 3.09375 11.410156 3.46875 L 12.3125 3.921875 C 12.550781 4.042969 12.648438 4.332031 12.53125 4.570312 C 12.445312 4.742188 12.273438 4.839844 12.097656 4.839844 C 12.023438 4.839844 11.949219 4.824219 11.878906 4.789062 L 9.945312 3.820312 C 9.707031 3.699219 9.609375 3.410156 9.730469 3.171875 Z M 20.269531 25.863281 L 19.304688 27.796875 C 19.21875 27.964844 19.046875 28.066406 18.871094 28.066406 C 18.796875 28.066406 18.722656 28.046875 18.65625 28.011719 C 18.414062 27.894531 18.320312 27.601562 18.4375 27.363281 L 18.875 26.488281 C 17.628906 26.890625 16.328125 27.097656 15 27.097656 C 13.4375 27.097656 11.914062 26.8125 10.472656 26.257812 C 10.222656 26.160156 10.097656 25.878906 10.195312 25.632812 C 10.289062 25.382812 10.570312 25.257812 10.820312 25.355469 C 12.152344 25.867188 13.558594 26.128906 15 26.128906 C 16.230469 26.128906 17.4375 25.9375 18.589844 25.5625 L 17.6875 25.109375 C 17.449219 24.992188 17.351562 24.699219 17.46875 24.460938 C 17.589844 24.222656 17.878906 24.125 18.121094 24.246094 L 20.054688 25.210938 C 20.292969 25.332031 20.390625 25.621094 20.269531 25.863281 Z M 27.847656 11.078125 L 26.972656 10.640625 C 27.375 11.886719 27.582031 13.1875 27.582031 14.515625 C 27.582031 16.078125 27.296875 17.601562 26.742188 19.046875 C 26.667969 19.238281 26.484375 19.355469 26.289062 19.355469 C 26.230469 19.355469 26.171875 19.34375 26.113281 19.324219 C 25.867188 19.226562 25.742188 18.945312 25.835938 18.695312 C 26.351562 17.363281 26.613281 15.957031 26.613281 14.515625 C 26.613281 13.285156 26.421875 12.082031 26.046875 10.925781 L 25.59375 11.828125 C 25.507812 12 25.339844 12.097656 25.160156 12.097656 C 25.089844 12.097656 25.015625 12.082031 24.945312 12.046875 C 24.707031 11.925781 24.609375 11.636719 24.730469 11.398438 L 25.695312 9.460938 C 25.816406 9.222656 26.105469 9.125 26.34375 9.246094 L 28.28125 10.210938 C 28.519531 10.332031 28.617188 10.621094 28.496094 10.863281 C 28.378906 11.101562 28.085938 11.199219 27.847656 11.078125 Z M 2.152344 17.953125 L 3.027344 18.394531 C 2.625 17.144531 2.417969 15.84375 2.417969 14.515625 C 2.417969 12.953125 2.703125 11.429688 3.257812 9.988281 C 3.355469 9.738281 3.636719 9.613281 3.886719 9.710938 C 4.132812 9.804688 4.257812 10.085938 4.164062 10.335938 C 3.648438 11.667969 3.386719 13.074219 3.386719 14.515625 C 3.386719 15.746094 3.578125 16.953125 3.953125 18.109375 L 4.40625 17.203125 C 4.527344 16.964844 4.816406 16.867188 5.054688 16.988281 C 5.292969 17.105469 5.390625 17.398438 5.269531 17.636719 L 4.304688 19.570312 C 4.21875 19.742188 4.046875 19.839844 3.871094 19.839844 C 3.796875 19.839844 3.722656 19.824219 3.65625 19.789062 L 1.71875 18.820312 C 1.480469 18.699219 1.382812 18.410156 1.503906 18.171875 C 1.621094 17.933594 1.914062 17.835938 2.152344 17.953125 Z M 2.152344 17.953125 " clip-rule="nonzero"/></clipPath></defs><g clip-path="url(#65a901a068)"><g clip-path="url(#385406ca18)"><path fill="#000000" d="M 0.484375 0 L 0.484375 29.03125 L 29.515625 29.03125 L 29.515625 0 Z M 0.484375 0 " fill-opacity="1" fill-rule="nonzero"/></g></g></svg>