<svg xmlns="http://www.w3.org/2000/svg" xmlns:xlink="http://www.w3.org/1999/xlink" width="40" zoomAndPan="magnify" viewBox="0 0 30 30.000001" height="40" preserveAspectRatio="xMidYMid meet" version="1.0"><defs><clipPath id="a9bc43892b"><path d="M 0.933594 0 L 29.238281 0 L 29.238281 29.03125 L 0.933594 29.03125 Z M 0.933594 0 " clip-rule="nonzero"/></clipPath><clipPath id="6c54d66c67"><path d="M 3.925781 3.902344 L 4.101562 4.074219 C 2.375 5.789062 1.425781 8.066406 1.425781 10.488281 C 1.425781 12.910156 2.375 15.1875 4.101562 16.898438 C 5.824219 18.613281 8.117188 19.554688 10.554688 19.554688 C 12.992188 19.554688 15.28125 18.613281 17.007812 16.898438 C 20.566406 13.363281 20.566406 7.613281 17.007812 4.074219 C 13.449219 0.539062 7.65625 0.539062 4.101562 4.074219 Z M 6.59375 13.09375 C 6.457031 13.09375 6.34375 12.984375 6.34375 12.847656 L 6.34375 11.222656 L 5.832031 11.222656 L 5.832031 12.847656 C 5.832031 12.984375 5.722656 13.09375 5.585938 13.09375 C 5.449219 13.09375 5.335938 12.984375 5.335938 12.847656 L 5.335938 11.222656 L 4.976562 11.222656 C 4.578125 11.222656 4.253906 10.902344 4.253906 10.503906 C 4.253906 10.109375 4.578125 9.785156 4.976562 9.785156 L 11.445312 9.785156 C 11.757812 8.621094 12.832031 7.757812 14.101562 7.757812 C 15.617188 7.757812 16.851562 8.980469 16.851562 10.488281 C 16.851562 11.992188 15.617188 13.21875 14.101562 13.21875 C 12.84375 13.21875 11.777344 12.371094 11.457031 11.222656 L 7.847656 11.222656 L 7.847656 12.917969 C 7.847656 13.054688 7.738281 13.164062 7.601562 13.164062 C 7.464844 13.164062 7.351562 13.054688 7.351562 12.917969 L 7.351562 11.222656 L 6.839844 11.222656 L 6.839844 12.847656 C 6.839844 12.984375 6.730469 13.09375 6.59375 13.09375 Z M 14.101562 9.054688 C 13.308594 9.054688 12.660156 9.695312 12.660156 10.488281 C 12.660156 11.277344 13.308594 11.921875 14.101562 11.921875 C 14.898438 11.921875 15.546875 11.277344 15.546875 10.488281 C 15.546875 9.695312 14.898438 9.054688 14.101562 9.054688 Z M 14.101562 12.414062 C 13.03125 12.414062 12.164062 11.550781 12.164062 10.488281 C 12.164062 9.425781 13.03125 8.558594 14.101562 8.558594 C 15.171875 8.558594 16.042969 9.425781 16.042969 10.488281 C 16.042969 11.550781 15.171875 12.414062 14.101562 12.414062 Z M 14.101562 8.25 C 12.859375 8.25 11.851562 9.253906 11.851562 10.488281 C 11.851562 11.722656 12.859375 12.726562 14.101562 12.726562 C 15.34375 12.726562 16.355469 11.722656 16.355469 10.488281 C 16.355469 9.253906 15.34375 8.25 14.101562 8.25 Z M 11.363281 10.730469 C 11.359375 10.648438 11.355469 10.570312 11.355469 10.488281 C 11.355469 10.417969 11.355469 10.347656 11.363281 10.28125 L 4.976562 10.28125 C 4.851562 10.28125 4.75 10.378906 4.75 10.503906 C 4.75 10.628906 4.851562 10.730469 4.976562 10.730469 Z M 17.996094 18.234375 L 17.179688 17.421875 C 15.382812 19.117188 13.039062 20.050781 10.554688 20.050781 C 7.984375 20.050781 5.566406 19.054688 3.75 17.25 C 1.929688 15.441406 0.929688 13.042969 0.929688 10.488281 C 0.929688 7.933594 1.929688 5.53125 3.75 3.726562 C 7.5 0 13.605469 0 17.359375 3.726562 C 21.050781 7.394531 21.109375 13.332031 17.53125 17.070312 L 18.347656 17.882812 C 18.664062 17.648438 19.046875 17.519531 19.449219 17.519531 C 19.9375 17.519531 20.394531 17.707031 20.734375 18.046875 L 28.691406 25.949219 C 29.03125 26.292969 29.222656 26.746094 29.222656 27.230469 C 29.222656 27.714844 29.03125 28.167969 28.691406 28.507812 C 28.347656 28.847656 27.890625 29.035156 27.402344 29.035156 C 26.914062 29.035156 26.457031 28.847656 26.117188 28.507812 L 18.160156 20.605469 C 17.816406 20.265625 17.628906 19.8125 17.628906 19.324219 C 17.628906 18.925781 17.757812 18.546875 17.996094 18.234375 Z M 19.449219 18.011719 C 19.109375 18.011719 18.769531 18.140625 18.511719 18.394531 C 18.261719 18.644531 18.125 18.972656 18.125 19.324219 C 18.125 19.679688 18.261719 20.007812 18.511719 20.257812 L 26.464844 28.160156 C 26.714844 28.40625 27.046875 28.542969 27.402344 28.542969 C 27.757812 28.542969 28.089844 28.40625 28.339844 28.160156 C 28.589844 27.914062 28.726562 27.582031 28.726562 27.230469 C 28.726562 26.878906 28.589844 26.546875 28.339844 26.300781 L 20.386719 18.394531 C 20.125 18.140625 19.789062 18.011719 19.449219 18.011719 Z M 18.511719 18.394531 Z M 5.121094 5.089844 L 5.296875 5.265625 C 2.398438 8.144531 2.398438 12.832031 5.296875 15.710938 C 8.195312 18.589844 12.910156 18.589844 15.808594 15.710938 C 18.707031 12.832031 18.707031 8.144531 15.808594 5.265625 C 12.910156 2.386719 8.195312 2.386719 5.296875 5.265625 Z M 10.554688 18.363281 C 8.523438 18.363281 6.492188 17.59375 4.945312 16.058594 C 1.855469 12.988281 1.855469 7.988281 4.945312 4.917969 C 8.039062 1.84375 13.070312 1.84375 16.160156 4.917969 C 19.25 7.988281 19.25 12.988281 16.160156 16.058594 C 14.613281 17.59375 12.582031 18.363281 10.554688 18.363281 Z M 10.554688 18.363281 " clip-rule="evenodd"/></clipPath></defs><g clip-path="url(#a9bc43892b)"><g clip-path="url(#6c54d66c67)"><path fill="#000000" d="M 0.933594 0 L 0.933594 29.03125 L 29.222656 29.03125 L 29.222656 0 Z M 0.933594 0 " fill-opacity="1" fill-rule="nonzero"/></g></g></svg>