<svg xmlns="http://www.w3.org/2000/svg" xmlns:xlink="http://www.w3.org/1999/xlink" width="40" zoomAndPan="magnify" viewBox="0 0 30 30.000001" height="40" preserveAspectRatio="xMidYMid meet" version="1.0"><defs><clipPath id="90661a6e6c"><path d="M 4 1 L 26.335938 1 L 26.335938 29.03125 L 4 29.03125 Z M 4 1 " clip-rule="nonzero"/></clipPath><clipPath id="3a832dbe22"><path d="M 22.496094 11.957031 C 22.011719 10.054688 21.558594 8.257812 20.773438 6.84375 C 18.542969 2.816406 13.820312 0.03125 8.304688 2.898438 C 5.550781 4.324219 3.847656 8.226562 4.15625 12.386719 C 4.519531 17.265625 6.890625 24.175781 12.457031 28.953125 C 12.496094 28.988281 12.546875 29.007812 12.601562 29.007812 L 26.121094 29.007812 C 26.238281 29.007812 26.335938 28.910156 26.335938 28.789062 L 26.335938 20.789062 C 26.335938 20.734375 26.316406 20.683594 26.28125 20.644531 C 24.066406 18.148438 23.234375 14.859375 22.496094 11.957031 Z M 25.902344 28.574219 L 12.679688 28.574219 C 7.257812 23.882812 4.945312 17.128906 4.589844 12.355469 C 4.242188 7.695312 6.375 4.382812 8.503906 3.28125 C 13.761719 0.550781 18.265625 3.210938 20.394531 7.054688 C 21.148438 8.417969 21.597656 10.1875 22.074219 12.0625 C 22.816406 14.988281 23.65625 18.304688 25.902344 20.867188 Z M 8.832031 20.890625 C 8.894531 20.996094 8.859375 21.128906 8.753906 21.1875 C 8.71875 21.207031 8.683594 21.21875 8.644531 21.21875 C 8.570312 21.21875 8.496094 21.179688 8.457031 21.109375 C 6.019531 16.960938 5.292969 12.542969 6.296875 7.980469 C 6.324219 7.863281 6.441406 7.789062 6.558594 7.816406 C 6.675781 7.839844 6.75 7.957031 6.722656 8.070312 C 5.742188 12.527344 6.453125 16.839844 8.832031 20.890625 Z M 7.585938 11.054688 C 7.589844 14.910156 8.742188 18.382812 11.011719 21.375 C 11.082031 21.472656 11.0625 21.605469 10.96875 21.679688 C 10.925781 21.707031 10.882812 21.722656 10.835938 21.722656 C 10.769531 21.722656 10.703125 21.691406 10.660156 21.636719 C 8.335938 18.566406 7.15625 15.003906 7.148438 11.054688 C 7.148438 10.933594 7.246094 10.839844 7.367188 10.835938 C 7.488281 10.835938 7.585938 10.933594 7.585938 11.054688 Z M 7.144531 10.1875 C 7.144531 10.136719 7.152344 9 7.769531 7.699219 C 7.820312 7.59375 7.949219 7.546875 8.058594 7.597656 C 8.167969 7.648438 8.214844 7.777344 8.164062 7.882812 C 7.589844 9.09375 7.582031 10.175781 7.582031 10.1875 C 7.582031 10.304688 7.484375 10.402344 7.363281 10.402344 C 7.242188 10.402344 7.144531 10.304688 7.144531 10.1875 Z M 8.652344 6.675781 C 8.558594 6.597656 8.546875 6.460938 8.625 6.367188 C 8.84375 6.109375 9.089844 5.871094 9.347656 5.652344 C 11.488281 3.871094 14 4.9375 14.109375 4.980469 C 14.21875 5.03125 14.269531 5.15625 14.21875 5.265625 C 14.171875 5.375 14.042969 5.425781 13.933594 5.378906 C 13.910156 5.367188 11.558594 4.378906 9.628906 5.984375 C 9.386719 6.1875 9.164062 6.410156 8.960938 6.648438 C 8.917969 6.699219 8.855469 6.726562 8.792969 6.726562 C 8.742188 6.726562 8.691406 6.707031 8.652344 6.675781 Z M 19.980469 15.289062 C 19.972656 15.289062 19.96875 15.289062 19.964844 15.289062 C 19.847656 15.289062 19.753906 15.203125 19.746094 15.089844 C 19.546875 12.320312 19.007812 10.191406 18.101562 8.589844 C 18.042969 8.484375 18.078125 8.351562 18.183594 8.292969 C 18.289062 8.234375 18.421875 8.273438 18.480469 8.375 C 19.421875 10.035156 19.976562 12.222656 20.179688 15.058594 C 20.191406 15.175781 20.097656 15.28125 19.980469 15.289062 Z M 15.679688 6.0625 C 15.574219 6 15.539062 5.867188 15.601562 5.765625 C 15.660156 5.664062 15.796875 5.628906 15.898438 5.6875 C 16.609375 6.101562 17.242188 6.652344 17.777344 7.324219 C 17.851562 7.417969 17.835938 7.554688 17.738281 7.628906 C 17.699219 7.660156 17.652344 7.675781 17.605469 7.675781 C 17.539062 7.675781 17.476562 7.648438 17.433594 7.59375 C 16.933594 6.960938 16.34375 6.449219 15.679688 6.0625 Z M 14.019531 3.785156 C 14.03125 3.664062 14.136719 3.578125 14.257812 3.589844 C 16.394531 3.796875 18.027344 4.832031 19.113281 6.664062 C 19.171875 6.765625 19.136719 6.898438 19.035156 6.960938 C 19 6.980469 18.960938 6.988281 18.921875 6.988281 C 18.847656 6.988281 18.777344 6.953125 18.734375 6.882812 C 17.722656 5.175781 16.203125 4.214844 14.21875 4.023438 C 14.097656 4.011719 14.007812 3.902344 14.019531 3.785156 Z M 18.796875 25.5 C 18.839844 25.613281 18.785156 25.738281 18.671875 25.78125 C 17.648438 26.171875 16.652344 26.363281 15.695312 26.363281 C 13.40625 26.363281 11.332031 25.261719 9.59375 23.085938 C 9.519531 22.992188 9.535156 22.855469 9.628906 22.78125 C 9.722656 22.707031 9.859375 22.722656 9.9375 22.816406 C 12.273438 25.738281 15.242188 26.625 18.515625 25.378906 C 18.628906 25.335938 18.753906 25.390625 18.796875 25.5 Z M 22.90625 19.816406 C 22.902344 19.695312 23 19.597656 23.121094 19.597656 C 23.238281 19.589844 23.339844 19.6875 23.34375 19.808594 C 23.375 21.835938 22.59375 23.515625 21.027344 24.804688 C 20.984375 24.835938 20.9375 24.851562 20.886719 24.851562 C 20.824219 24.851562 20.761719 24.828125 20.71875 24.773438 C 20.640625 24.683594 20.65625 24.546875 20.746094 24.46875 C 22.207031 23.269531 22.933594 21.707031 22.90625 19.816406 Z M 19.890625 8.246094 C 22.429688 13.328125 22.996094 18.050781 21.527344 21.898438 C 21.492188 21.984375 21.410156 22.039062 21.320312 22.039062 C 21.296875 22.039062 21.269531 22.035156 21.246094 22.027344 C 21.132812 21.984375 21.074219 21.859375 21.117188 21.746094 C 22.542969 18.011719 21.984375 13.410156 19.5 8.4375 C 19.445312 8.332031 19.488281 8.203125 19.597656 8.148438 C 19.707031 8.097656 19.835938 8.140625 19.890625 8.246094 Z M 20.738281 16.171875 C 20.824219 15.25 20.738281 14.3125 20.476562 13.390625 C 20.445312 13.277344 20.511719 13.15625 20.628906 13.125 C 20.742188 13.09375 20.863281 13.160156 20.898438 13.273438 C 21.171875 14.246094 21.265625 15.234375 21.171875 16.210938 C 21.164062 16.324219 21.066406 16.40625 20.957031 16.40625 C 20.949219 16.40625 20.941406 16.40625 20.9375 16.40625 C 20.816406 16.394531 20.726562 16.289062 20.738281 16.171875 Z M 20.894531 23.019531 C 20.625 23.808594 20.136719 24.335938 19.441406 24.585938 C 19.417969 24.597656 19.390625 24.601562 19.367188 24.601562 C 19.277344 24.601562 19.195312 24.546875 19.164062 24.460938 C 19.121094 24.347656 19.179688 24.222656 19.292969 24.179688 C 19.863281 23.972656 20.25 23.546875 20.480469 22.882812 C 20.519531 22.769531 20.644531 22.707031 20.757812 22.746094 C 20.871094 22.785156 20.933594 22.90625 20.894531 23.019531 Z M 18.015625 23.742188 C 18.121094 23.789062 18.171875 23.917969 18.125 24.023438 C 18.105469 24.066406 17.632812 25.085938 15.636719 25.085938 C 13.675781 25.085938 12.476562 23.582031 12.425781 23.515625 C 12.355469 23.421875 12.371094 23.285156 12.464844 23.214844 C 12.5625 23.140625 12.699219 23.15625 12.773438 23.25 C 12.78125 23.265625 13.894531 24.652344 15.636719 24.652344 C 17.324219 24.652344 17.710938 23.878906 17.726562 23.847656 C 17.777344 23.742188 17.90625 23.691406 18.015625 23.742188 Z M 10.851562 6.417969 C 9.207031 7.515625 8.71875 9.851562 8.609375 10.539062 C 8.585938 10.660156 8.664062 10.773438 8.785156 10.804688 C 8.90625 10.835938 9.027344 10.773438 9.070312 10.65625 C 9.410156 9.703125 10.765625 6.640625 13.722656 7.25 C 16.832031 7.894531 18.472656 13.4375 18.773438 14.542969 C 18.800781 14.648438 18.898438 14.71875 19.003906 14.71875 C 19.019531 14.71875 19.035156 14.71875 19.050781 14.714844 C 19.171875 14.691406 19.253906 14.578125 19.238281 14.453125 C 19.089844 13.207031 18.128906 6.945312 13.957031 5.972656 C 12.757812 5.695312 11.714844 5.84375 10.851562 6.417969 Z M 18.125 11.410156 C 17.242188 9.421875 15.832031 7.246094 13.808594 6.828125 C 13.523438 6.769531 13.25 6.738281 12.984375 6.738281 C 11.539062 6.738281 10.40625 7.566406 9.605469 8.679688 C 9.921875 7.972656 10.394531 7.246094 11.09375 6.78125 C 11.851562 6.273438 12.78125 6.144531 13.859375 6.394531 C 16.195312 6.9375 17.460938 9.332031 18.125 11.410156 Z M 19.824219 16.90625 C 19.792969 16.761719 19.660156 16.667969 19.515625 16.683594 C 19.367188 16.699219 19.257812 16.816406 19.257812 16.964844 C 19.242188 18.105469 18.980469 20.863281 16.855469 21.855469 C 14.785156 22.820312 12.289062 20.164062 11.3125 18.980469 C 11.214844 18.863281 11.050781 18.839844 10.925781 18.925781 C 10.800781 19.015625 10.765625 19.175781 10.84375 19.304688 C 11.695312 20.710938 13.75 23.601562 16.292969 23.601562 C 16.726562 23.601562 17.171875 23.515625 17.628906 23.328125 C 20.617188 22.09375 20.160156 18.425781 19.824219 16.90625 Z M 17.460938 22.929688 C 15.464844 23.75 13.648438 22.269531 12.417969 20.785156 C 13.746094 21.988281 15.453125 22.988281 17.039062 22.246094 C 18.769531 21.441406 19.382812 19.621094 19.59375 18.230469 C 19.746094 19.847656 19.535156 22.074219 17.460938 22.929688 Z M 9.726562 16.996094 C 8.832031 15.179688 8.417969 13.339844 8.5 11.519531 C 8.503906 11.402344 8.609375 11.308594 8.726562 11.3125 C 8.847656 11.320312 8.941406 11.421875 8.9375 11.539062 C 8.855469 13.285156 9.253906 15.054688 10.117188 16.804688 C 10.171875 16.910156 10.125 17.042969 10.019531 17.09375 C 9.988281 17.109375 9.953125 17.117188 9.921875 17.117188 C 9.84375 17.117188 9.765625 17.070312 9.726562 16.996094 Z M 14.105469 11.035156 C 14.042969 11.132812 13.90625 11.164062 13.804688 11.097656 C 13.792969 11.089844 13.257812 10.761719 12.742188 10.898438 C 12.457031 10.976562 12.222656 11.191406 12.042969 11.535156 C 11.496094 12.597656 12.566406 15.417969 13.027344 16.414062 C 13.078125 16.523438 13.03125 16.652344 12.917969 16.703125 C 12.890625 16.714844 12.859375 16.722656 12.828125 16.722656 C 12.746094 16.722656 12.667969 16.675781 12.628906 16.59375 C 12.558594 16.441406 10.898438 12.804688 11.65625 11.339844 C 11.890625 10.878906 12.222656 10.589844 12.632812 10.480469 C 13.339844 10.292969 14.011719 10.714844 14.042969 10.734375 C 14.140625 10.800781 14.171875 10.933594 14.105469 11.035156 Z M 14.238281 13.066406 C 14.246094 13.1875 14.160156 13.292969 14.039062 13.300781 C 13.914062 13.308594 13.8125 13.222656 13.804688 13.105469 C 13.777344 12.816406 13.664062 12.347656 13.492188 12.25 C 13.476562 12.238281 13.441406 12.21875 13.359375 12.257812 C 13.050781 12.398438 13.242188 13.296875 13.46875 13.855469 C 13.515625 13.964844 13.460938 14.09375 13.347656 14.136719 C 13.320312 14.148438 13.292969 14.152344 13.265625 14.152344 C 13.179688 14.152344 13.097656 14.101562 13.0625 14.015625 C 12.945312 13.722656 12.382812 12.230469 13.175781 11.867188 C 13.414062 11.753906 13.601562 11.808594 13.714844 11.875 C 14.136719 12.117188 14.222656 12.910156 14.238281 13.066406 Z M 15.242188 12.015625 C 15.257812 13.332031 14.804688 14.4375 13.886719 15.296875 C 13.84375 15.339844 13.792969 15.359375 13.738281 15.359375 C 13.679688 15.359375 13.621094 15.335938 13.578125 15.289062 C 13.496094 15.203125 13.5 15.066406 13.585938 14.984375 C 14.421875 14.199219 14.820312 13.230469 14.804688 12.019531 C 14.804688 11.902344 14.902344 11.804688 15.019531 11.800781 C 15.023438 11.800781 15.023438 11.800781 15.023438 11.800781 C 15.144531 11.800781 15.242188 11.898438 15.242188 12.015625 Z M 12.378906 19.164062 C 12.40625 19.164062 12.4375 19.160156 12.464844 19.144531 C 12.570312 19.101562 12.621094 18.984375 12.582031 18.878906 C 12.566406 18.824219 10.753906 13.589844 10.8125 11.683594 C 10.867188 9.8125 11.777344 8.625 11.785156 8.613281 C 11.839844 8.542969 11.847656 8.441406 11.796875 8.367188 C 11.746094 8.289062 11.652344 8.25 11.5625 8.269531 C 11.488281 8.289062 9.710938 8.722656 9.546875 11.398438 C 9.386719 13.960938 12.070312 18.84375 12.1875 19.050781 C 12.226562 19.125 12.300781 19.164062 12.378906 19.164062 Z M 9.984375 11.425781 C 10.066406 10.082031 10.589844 9.382812 11.03125 9.03125 C 10.746094 9.601562 10.410156 10.507812 10.375 11.667969 C 10.34375 12.695312 10.804688 14.570312 11.269531 16.167969 C 10.585938 14.597656 9.90625 12.683594 9.984375 11.425781 Z M 15.566406 20.261719 C 15.65625 20.261719 15.75 20.253906 15.84375 20.242188 C 16.304688 20.175781 16.652344 19.96875 16.875 19.621094 C 17.410156 18.796875 17.023438 17.480469 17.007812 17.425781 C 16.976562 17.328125 16.886719 17.265625 16.785156 17.269531 C 16.683594 17.277344 16.601562 17.347656 16.582031 17.449219 C 16.515625 17.820312 16.207031 18.832031 15.621094 19.042969 C 15.105469 19.222656 13.945312 18.402344 13.335938 17.84375 C 13.261719 17.773438 13.148438 17.765625 13.0625 17.824219 C 12.980469 17.882812 12.945312 17.992188 12.988281 18.085938 C 13.027344 18.179688 13.921875 20.261719 15.566406 20.261719 Z M 15.769531 19.449219 C 16.222656 19.285156 16.527344 18.84375 16.71875 18.425781 C 16.730469 18.753906 16.683594 19.117188 16.507812 19.390625 C 16.351562 19.628906 16.117188 19.765625 15.785156 19.8125 C 15.019531 19.921875 14.410156 19.421875 13.996094 18.910156 C 14.566406 19.289062 15.265625 19.628906 15.769531 19.449219 Z M 17.792969 16.742188 C 17.808594 16.742188 17.820312 16.738281 17.835938 16.738281 C 17.992188 16.71875 18.105469 16.582031 18.101562 16.425781 C 18.019531 14.234375 17.566406 10.359375 15.429688 9.015625 C 13.796875 7.992188 12.328125 9.035156 11.597656 9.75 C 11.484375 9.859375 11.472656 10.027344 11.570312 10.148438 C 11.664062 10.273438 11.832031 10.304688 11.964844 10.226562 C 12.617188 9.847656 13.644531 9.554688 14.855469 10.3125 C 16.152344 11.125 17.136719 14.914062 17.496094 16.503906 C 17.527344 16.644531 17.652344 16.742188 17.792969 16.742188 Z M 15.085938 9.945312 C 14.453125 9.546875 13.859375 9.402344 13.332031 9.402344 C 13.066406 9.402344 12.816406 9.4375 12.589844 9.5 C 13.3125 9.019531 14.226562 8.773438 15.195312 9.382812 C 16.761719 10.363281 17.339844 12.996094 17.554688 14.933594 C 17.015625 12.972656 16.175781 10.628906 15.085938 9.945312 Z M 14.988281 17.496094 C 15.703125 16.4375 16.011719 15.167969 15.902344 13.730469 C 15.894531 13.613281 15.984375 13.507812 16.105469 13.5 C 16.222656 13.492188 16.328125 13.578125 16.339844 13.699219 C 16.453125 15.234375 16.121094 16.59375 15.351562 17.738281 C 15.3125 17.800781 15.242188 17.835938 15.171875 17.835938 C 15.128906 17.835938 15.089844 17.824219 15.050781 17.796875 C 14.949219 17.730469 14.921875 17.597656 14.988281 17.496094 Z M 15.652344 14.132812 C 15.515625 15.226562 15.011719 16.167969 14.144531 16.933594 C 14.105469 16.96875 14.050781 16.988281 14 16.988281 C 13.941406 16.988281 13.882812 16.960938 13.839844 16.914062 C 13.757812 16.824219 13.765625 16.6875 13.855469 16.609375 C 14.636719 15.917969 15.097656 15.066406 15.21875 14.082031 C 15.234375 13.960938 15.339844 13.875 15.460938 13.894531 C 15.582031 13.90625 15.667969 14.015625 15.652344 14.132812 Z M 15.652344 14.132812 " clip-rule="nonzero"/></clipPath><linearGradient x1="50.903999" gradientTransform="matrix(0.218235, 0, 0, 0.216475, 4.119482, 1.722478)" y1="-7.803997" x2="50.903999" gradientUnits="userSpaceOnUse" y2="126.042014" id="ea0acd9aa4"><stop stop-opacity="1" stop-color="rgb(0%, 7.099915%, 71.398926%)" offset="0"/><stop stop-opacity="1" stop-color="rgb(0%, 7.249451%, 71.276855%)" offset="0.0625"/><stop stop-opacity="1" stop-color="rgb(0%, 7.681274%, 70.925903%)" offset="0.0664062"/><stop stop-opacity="1" stop-color="rgb(0%, 7.963562%, 70.698547%)" offset="0.0703125"/><stop stop-opacity="1" stop-color="rgb(0%, 8.244324%, 70.471191%)" offset="0.0742188"/><stop stop-opacity="1" stop-color="rgb(0%, 8.526611%, 70.243835%)" offset="0.078125"/><stop stop-opacity="1" stop-color="rgb(0%, 8.807373%, 70.014954%)" offset="0.0820312"/><stop stop-opacity="1" stop-color="rgb(0%, 9.088135%, 69.787598%)" offset="0.0859375"/><stop stop-opacity="1" stop-color="rgb(0%, 9.368896%, 69.560242%)" offset="0.0898438"/><stop stop-opacity="1" stop-color="rgb(0%, 9.651184%, 69.332886%)" offset="0.09375"/><stop stop-opacity="1" stop-color="rgb(0%, 9.931946%, 69.104004%)" offset="0.0976562"/><stop stop-opacity="1" stop-color="rgb(0%, 10.214233%, 68.876648%)" offset="0.101562"/><stop stop-opacity="1" stop-color="rgb(0%, 10.494995%, 68.649292%)" offset="0.105469"/><stop stop-opacity="1" stop-color="rgb(0%, 10.775757%, 68.421936%)" offset="0.109375"/><stop stop-opacity="1" stop-color="rgb(0%, 11.056519%, 68.19458%)" offset="0.113281"/><stop stop-opacity="1" stop-color="rgb(0%, 11.338806%, 67.967224%)" offset="0.117187"/><stop stop-opacity="1" stop-color="rgb(0%, 11.619568%, 67.738342%)" offset="0.121094"/><stop stop-opacity="1" stop-color="rgb(0%, 11.90033%, 67.510986%)" offset="0.125"/><stop stop-opacity="1" stop-color="rgb(0%, 12.181091%, 67.28363%)" offset="0.128906"/><stop stop-opacity="1" stop-color="rgb(0%, 12.463379%, 67.056274%)" offset="0.132812"/><stop stop-opacity="1" stop-color="rgb(0%, 12.744141%, 66.827393%)" offset="0.136719"/><stop stop-opacity="1" stop-color="rgb(0%, 13.026428%, 66.600037%)" offset="0.140625"/><stop stop-opacity="1" stop-color="rgb(0%, 13.30719%, 66.372681%)" offset="0.144531"/><stop stop-opacity="1" stop-color="rgb(0%, 13.587952%, 66.145325%)" offset="0.148438"/><stop stop-opacity="1" stop-color="rgb(0%, 13.868713%, 65.916443%)" offset="0.152344"/><stop stop-opacity="1" stop-color="rgb(0%, 14.151001%, 65.689087%)" offset="0.15625"/><stop stop-opacity="1" stop-color="rgb(0%, 14.431763%, 65.461731%)" offset="0.160156"/><stop stop-opacity="1" stop-color="rgb(0%, 14.71405%, 65.234375%)" offset="0.164062"/><stop stop-opacity="1" stop-color="rgb(0%, 14.994812%, 65.005493%)" offset="0.167969"/><stop stop-opacity="1" stop-color="rgb(0%, 15.275574%, 64.778137%)" offset="0.171875"/><stop stop-opacity="1" stop-color="rgb(0%, 15.556335%, 64.550781%)" offset="0.175781"/><stop stop-opacity="1" stop-color="rgb(0%, 15.838623%, 64.323425%)" offset="0.179688"/><stop stop-opacity="1" stop-color="rgb(0%, 16.119385%, 64.094543%)" offset="0.183594"/><stop stop-opacity="1" stop-color="rgb(0%, 16.401672%, 63.867188%)" offset="0.1875"/><stop stop-opacity="1" stop-color="rgb(0%, 16.682434%, 63.639832%)" offset="0.191406"/><stop stop-opacity="1" stop-color="rgb(0%, 16.963196%, 63.412476%)" offset="0.195312"/><stop stop-opacity="1" stop-color="rgb(0%, 17.243958%, 63.183594%)" offset="0.199219"/><stop stop-opacity="1" stop-color="rgb(0%, 17.526245%, 62.956238%)" offset="0.203125"/><stop stop-opacity="1" stop-color="rgb(0%, 17.807007%, 62.728882%)" offset="0.207031"/><stop stop-opacity="1" stop-color="rgb(0%, 18.087769%, 62.501526%)" offset="0.210937"/><stop stop-opacity="1" stop-color="rgb(0%, 18.36853%, 62.272644%)" offset="0.214844"/><stop stop-opacity="1" stop-color="rgb(0%, 18.650818%, 62.045288%)" offset="0.21875"/><stop stop-opacity="1" stop-color="rgb(0%, 18.93158%, 61.817932%)" offset="0.222656"/><stop stop-opacity="1" stop-color="rgb(0%, 19.213867%, 61.590576%)" offset="0.226562"/><stop stop-opacity="1" stop-color="rgb(0%, 19.494629%, 61.361694%)" offset="0.230469"/><stop stop-opacity="1" stop-color="rgb(0%, 19.775391%, 61.134338%)" offset="0.234375"/><stop stop-opacity="1" stop-color="rgb(0%, 20.056152%, 60.906982%)" offset="0.238281"/><stop stop-opacity="1" stop-color="rgb(0%, 20.33844%, 60.679626%)" offset="0.242187"/><stop stop-opacity="1" stop-color="rgb(0%, 20.619202%, 60.450745%)" offset="0.246094"/><stop stop-opacity="1" stop-color="rgb(0%, 20.901489%, 60.223389%)" offset="0.25"/><stop stop-opacity="1" stop-color="rgb(0%, 21.182251%, 59.996033%)" offset="0.253906"/><stop stop-opacity="1" stop-color="rgb(0%, 21.463013%, 59.768677%)" offset="0.257812"/><stop stop-opacity="1" stop-color="rgb(0%, 21.743774%, 59.539795%)" offset="0.261719"/><stop stop-opacity="1" stop-color="rgb(0%, 22.026062%, 59.312439%)" offset="0.265625"/><stop stop-opacity="1" stop-color="rgb(0%, 22.306824%, 59.085083%)" offset="0.269531"/><stop stop-opacity="1" stop-color="rgb(0%, 22.587585%, 58.857727%)" offset="0.273438"/><stop stop-opacity="1" stop-color="rgb(0%, 22.868347%, 58.628845%)" offset="0.277344"/><stop stop-opacity="1" stop-color="rgb(0%, 23.150635%, 58.401489%)" offset="0.28125"/><stop stop-opacity="1" stop-color="rgb(0%, 23.431396%, 58.174133%)" offset="0.285156"/><stop stop-opacity="1" stop-color="rgb(0%, 23.713684%, 57.946777%)" offset="0.289062"/><stop stop-opacity="1" stop-color="rgb(0%, 23.994446%, 57.717896%)" offset="0.292969"/><stop stop-opacity="1" stop-color="rgb(0%, 24.275208%, 57.49054%)" offset="0.296875"/><stop stop-opacity="1" stop-color="rgb(0%, 24.555969%, 57.263184%)" offset="0.300781"/><stop stop-opacity="1" stop-color="rgb(0%, 24.838257%, 57.035828%)" offset="0.304687"/><stop stop-opacity="1" stop-color="rgb(0%, 25.119019%, 56.806946%)" offset="0.308594"/><stop stop-opacity="1" stop-color="rgb(0%, 25.401306%, 56.57959%)" offset="0.3125"/><stop stop-opacity="1" stop-color="rgb(0%, 25.682068%, 56.352234%)" offset="0.316406"/><stop stop-opacity="1" stop-color="rgb(0%, 25.96283%, 56.124878%)" offset="0.320312"/><stop stop-opacity="1" stop-color="rgb(0%, 26.243591%, 55.895996%)" offset="0.324219"/><stop stop-opacity="1" stop-color="rgb(0%, 26.525879%, 55.66864%)" offset="0.328125"/><stop stop-opacity="1" stop-color="rgb(0%, 26.806641%, 55.441284%)" offset="0.332031"/><stop stop-opacity="1" stop-color="rgb(0%, 27.087402%, 55.213928%)" offset="0.335937"/><stop stop-opacity="1" stop-color="rgb(0%, 27.368164%, 54.985046%)" offset="0.339844"/><stop stop-opacity="1" stop-color="rgb(0%, 27.650452%, 54.75769%)" offset="0.34375"/><stop stop-opacity="1" stop-color="rgb(0%, 27.931213%, 54.530334%)" offset="0.347656"/><stop stop-opacity="1" stop-color="rgb(0%, 28.213501%, 54.302979%)" offset="0.351562"/><stop stop-opacity="1" stop-color="rgb(0%, 28.494263%, 54.074097%)" offset="0.355469"/><stop stop-opacity="1" stop-color="rgb(0%, 28.775024%, 53.846741%)" offset="0.359375"/><stop stop-opacity="1" stop-color="rgb(0%, 29.055786%, 53.619385%)" offset="0.363281"/><stop stop-opacity="1" stop-color="rgb(0%, 29.338074%, 53.392029%)" offset="0.367187"/><stop stop-opacity="1" stop-color="rgb(0%, 29.618835%, 53.163147%)" offset="0.371094"/><stop stop-opacity="1" stop-color="rgb(0%, 29.901123%, 52.935791%)" offset="0.375"/><stop stop-opacity="1" stop-color="rgb(0%, 30.181885%, 52.708435%)" offset="0.378906"/><stop stop-opacity="1" stop-color="rgb(0%, 30.462646%, 52.481079%)" offset="0.382812"/><stop stop-opacity="1" stop-color="rgb(0%, 30.743408%, 52.252197%)" offset="0.386719"/><stop stop-opacity="1" stop-color="rgb(0%, 31.025696%, 52.024841%)" offset="0.390625"/><stop stop-opacity="1" stop-color="rgb(0%, 31.306458%, 51.797485%)" offset="0.394531"/><stop stop-opacity="1" stop-color="rgb(0%, 31.588745%, 51.570129%)" offset="0.398437"/><stop stop-opacity="1" stop-color="rgb(0%, 31.869507%, 51.341248%)" offset="0.402344"/><stop stop-opacity="1" stop-color="rgb(0%, 32.150269%, 51.113892%)" offset="0.40625"/><stop stop-opacity="1" stop-color="rgb(0%, 32.43103%, 50.886536%)" offset="0.410156"/><stop stop-opacity="1" stop-color="rgb(0%, 32.713318%, 50.65918%)" offset="0.414062"/><stop stop-opacity="1" stop-color="rgb(0%, 32.99408%, 50.430298%)" offset="0.417969"/><stop stop-opacity="1" stop-color="rgb(0%, 33.274841%, 50.202942%)" offset="0.421875"/><stop stop-opacity="1" stop-color="rgb(0%, 33.555603%, 49.975586%)" offset="0.425781"/><stop stop-opacity="1" stop-color="rgb(0%, 33.837891%, 49.74823%)" offset="0.429687"/><stop stop-opacity="1" stop-color="rgb(0%, 34.118652%, 49.519348%)" offset="0.433594"/><stop stop-opacity="1" stop-color="rgb(0%, 34.40094%, 49.291992%)" offset="0.4375"/><stop stop-opacity="1" stop-color="rgb(0%, 34.681702%, 49.064636%)" offset="0.441406"/><stop stop-opacity="1" stop-color="rgb(0%, 34.962463%, 48.83728%)" offset="0.445312"/><stop stop-opacity="1" stop-color="rgb(0%, 35.243225%, 48.608398%)" offset="0.449219"/><stop stop-opacity="1" stop-color="rgb(0%, 35.525513%, 48.381042%)" offset="0.453125"/><stop stop-opacity="1" stop-color="rgb(0%, 35.806274%, 48.153687%)" offset="0.457031"/><stop stop-opacity="1" stop-color="rgb(0%, 36.088562%, 47.926331%)" offset="0.460937"/><stop stop-opacity="1" stop-color="rgb(0%, 36.369324%, 47.697449%)" offset="0.464844"/><stop stop-opacity="1" stop-color="rgb(0%, 36.650085%, 47.470093%)" offset="0.46875"/><stop stop-opacity="1" stop-color="rgb(0%, 36.930847%, 47.242737%)" offset="0.472656"/><stop stop-opacity="1" stop-color="rgb(0%, 37.213135%, 47.015381%)" offset="0.476563"/><stop stop-opacity="1" stop-color="rgb(0%, 37.493896%, 46.786499%)" offset="0.480469"/><stop stop-opacity="1" stop-color="rgb(0%, 37.774658%, 46.559143%)" offset="0.484375"/><stop stop-opacity="1" stop-color="rgb(0%, 38.05542%, 46.331787%)" offset="0.488281"/><stop stop-opacity="1" stop-color="rgb(0%, 38.337708%, 46.104431%)" offset="0.492188"/><stop stop-opacity="1" stop-color="rgb(0%, 38.618469%, 45.875549%)" offset="0.496094"/><stop stop-opacity="1" stop-color="rgb(0%, 38.900757%, 45.648193%)" offset="0.5"/><stop stop-opacity="1" stop-color="rgb(0%, 39.181519%, 45.420837%)" offset="0.503906"/><stop stop-opacity="1" stop-color="rgb(0%, 39.46228%, 45.193481%)" offset="0.507812"/><stop stop-opacity="1" stop-color="rgb(0%, 39.743042%, 44.9646%)" offset="0.511719"/><stop stop-opacity="1" stop-color="rgb(0%, 40.02533%, 44.737244%)" offset="0.515625"/><stop stop-opacity="1" stop-color="rgb(0%, 40.306091%, 44.509888%)" offset="0.519531"/><stop stop-opacity="1" stop-color="rgb(0%, 40.588379%, 44.282532%)" offset="0.523438"/><stop stop-opacity="1" stop-color="rgb(0%, 40.869141%, 44.05365%)" offset="0.527344"/><stop stop-opacity="1" stop-color="rgb(0%, 41.149902%, 43.826294%)" offset="0.53125"/><stop stop-opacity="1" stop-color="rgb(0%, 41.430664%, 43.598938%)" offset="0.535156"/><stop stop-opacity="1" stop-color="rgb(0%, 41.712952%, 43.371582%)" offset="0.539062"/><stop stop-opacity="1" stop-color="rgb(0%, 41.993713%, 43.1427%)" offset="0.542969"/><stop stop-opacity="1" stop-color="rgb(0%, 42.274475%, 42.915344%)" offset="0.546875"/><stop stop-opacity="1" stop-color="rgb(0%, 42.555237%, 42.687988%)" offset="0.550781"/><stop stop-opacity="1" stop-color="rgb(0%, 42.837524%, 42.460632%)" offset="0.554688"/><stop stop-opacity="1" stop-color="rgb(0%, 43.118286%, 42.23175%)" offset="0.558594"/><stop stop-opacity="1" stop-color="rgb(0%, 43.400574%, 42.004395%)" offset="0.5625"/><stop stop-opacity="1" stop-color="rgb(0%, 43.681335%, 41.777039%)" offset="0.566406"/><stop stop-opacity="1" stop-color="rgb(0%, 43.962097%, 41.549683%)" offset="0.570313"/><stop stop-opacity="1" stop-color="rgb(0%, 44.242859%, 41.320801%)" offset="0.574219"/><stop stop-opacity="1" stop-color="rgb(0%, 44.525146%, 41.093445%)" offset="0.578125"/><stop stop-opacity="1" stop-color="rgb(0%, 44.805908%, 40.866089%)" offset="0.582031"/><stop stop-opacity="1" stop-color="rgb(0%, 45.088196%, 40.638733%)" offset="0.585938"/><stop stop-opacity="1" stop-color="rgb(0%, 45.368958%, 40.411377%)" offset="0.589844"/><stop stop-opacity="1" stop-color="rgb(0%, 45.649719%, 40.184021%)" offset="0.59375"/><stop stop-opacity="1" stop-color="rgb(0%, 45.930481%, 39.955139%)" offset="0.597656"/><stop stop-opacity="1" stop-color="rgb(0%, 46.212769%, 39.727783%)" offset="0.601563"/><stop stop-opacity="1" stop-color="rgb(0%, 46.49353%, 39.500427%)" offset="0.605469"/><stop stop-opacity="1" stop-color="rgb(0%, 46.775818%, 39.273071%)" offset="0.609375"/><stop stop-opacity="1" stop-color="rgb(0%, 47.05658%, 39.044189%)" offset="0.613281"/><stop stop-opacity="1" stop-color="rgb(0%, 47.337341%, 38.816833%)" offset="0.617188"/><stop stop-opacity="1" stop-color="rgb(0%, 47.618103%, 38.589478%)" offset="0.621094"/><stop stop-opacity="1" stop-color="rgb(0%, 47.900391%, 38.362122%)" offset="0.625"/><stop stop-opacity="1" stop-color="rgb(0%, 48.181152%, 38.13324%)" offset="0.628906"/><stop stop-opacity="1" stop-color="rgb(0%, 48.461914%, 37.905884%)" offset="0.632813"/><stop stop-opacity="1" stop-color="rgb(0%, 48.742676%, 37.678528%)" offset="0.636719"/><stop stop-opacity="1" stop-color="rgb(0%, 49.024963%, 37.451172%)" offset="0.640625"/><stop stop-opacity="1" stop-color="rgb(0%, 49.305725%, 37.22229%)" offset="0.644531"/><stop stop-opacity="1" stop-color="rgb(0%, 49.588013%, 36.994934%)" offset="0.648438"/><stop stop-opacity="1" stop-color="rgb(0%, 49.868774%, 36.767578%)" offset="0.652344"/><stop stop-opacity="1" stop-color="rgb(0%, 50.149536%, 36.540222%)" offset="0.65625"/><stop stop-opacity="1" stop-color="rgb(0%, 50.430298%, 36.31134%)" offset="0.660156"/><stop stop-opacity="1" stop-color="rgb(0%, 50.712585%, 36.083984%)" offset="0.664063"/><stop stop-opacity="1" stop-color="rgb(0%, 50.993347%, 35.856628%)" offset="0.667969"/><stop stop-opacity="1" stop-color="rgb(0%, 51.275635%, 35.629272%)" offset="0.671875"/><stop stop-opacity="1" stop-color="rgb(0%, 51.556396%, 35.400391%)" offset="0.675781"/><stop stop-opacity="1" stop-color="rgb(0%, 51.837158%, 35.173035%)" offset="0.679688"/><stop stop-opacity="1" stop-color="rgb(0%, 52.11792%, 34.945679%)" offset="0.683594"/><stop stop-opacity="1" stop-color="rgb(0%, 52.400208%, 34.718323%)" offset="0.6875"/><stop stop-opacity="1" stop-color="rgb(0%, 52.680969%, 34.489441%)" offset="0.691406"/><stop stop-opacity="1" stop-color="rgb(0%, 52.961731%, 34.262085%)" offset="0.695313"/><stop stop-opacity="1" stop-color="rgb(0%, 53.242493%, 34.034729%)" offset="0.699219"/><stop stop-opacity="1" stop-color="rgb(0%, 53.52478%, 33.807373%)" offset="0.703125"/><stop stop-opacity="1" stop-color="rgb(0%, 53.805542%, 33.578491%)" offset="0.707031"/><stop stop-opacity="1" stop-color="rgb(0%, 54.08783%, 33.351135%)" offset="0.710938"/><stop stop-opacity="1" stop-color="rgb(0%, 54.368591%, 33.123779%)" offset="0.714844"/><stop stop-opacity="1" stop-color="rgb(0%, 54.649353%, 32.896423%)" offset="0.71875"/><stop stop-opacity="1" stop-color="rgb(0%, 54.930115%, 32.667542%)" offset="0.722656"/><stop stop-opacity="1" stop-color="rgb(0%, 55.212402%, 32.440186%)" offset="0.726563"/><stop stop-opacity="1" stop-color="rgb(0%, 55.493164%, 32.21283%)" offset="0.730469"/><stop stop-opacity="1" stop-color="rgb(0%, 55.775452%, 31.985474%)" offset="0.734375"/><stop stop-opacity="1" stop-color="rgb(0%, 56.056213%, 31.756592%)" offset="0.738281"/><stop stop-opacity="1" stop-color="rgb(0%, 56.336975%, 31.529236%)" offset="0.742188"/><stop stop-opacity="1" stop-color="rgb(0%, 56.617737%, 31.30188%)" offset="0.746094"/><stop stop-opacity="1" stop-color="rgb(0%, 56.900024%, 31.074524%)" offset="0.75"/><stop stop-opacity="1" stop-color="rgb(0%, 57.180786%, 30.845642%)" offset="0.753906"/><stop stop-opacity="1" stop-color="rgb(0%, 57.461548%, 30.618286%)" offset="0.757813"/><stop stop-opacity="1" stop-color="rgb(0%, 57.74231%, 30.39093%)" offset="0.761719"/><stop stop-opacity="1" stop-color="rgb(0%, 58.024597%, 30.163574%)" offset="0.765625"/><stop stop-opacity="1" stop-color="rgb(0%, 58.305359%, 29.934692%)" offset="0.769531"/><stop stop-opacity="1" stop-color="rgb(0%, 58.587646%, 29.707336%)" offset="0.773438"/><stop stop-opacity="1" stop-color="rgb(0%, 58.868408%, 29.47998%)" offset="0.777344"/><stop stop-opacity="1" stop-color="rgb(0%, 59.14917%, 29.252625%)" offset="0.78125"/><stop stop-opacity="1" stop-color="rgb(0%, 59.429932%, 29.023743%)" offset="0.785156"/><stop stop-opacity="1" stop-color="rgb(0%, 59.712219%, 28.796387%)" offset="0.789063"/><stop stop-opacity="1" stop-color="rgb(0%, 59.992981%, 28.569031%)" offset="0.792969"/><stop stop-opacity="1" stop-color="rgb(0%, 60.275269%, 28.341675%)" offset="0.796875"/><stop stop-opacity="1" stop-color="rgb(0%, 60.55603%, 28.112793%)" offset="0.800781"/><stop stop-opacity="1" stop-color="rgb(0%, 60.836792%, 27.885437%)" offset="0.804688"/><stop stop-opacity="1" stop-color="rgb(0%, 61.117554%, 27.658081%)" offset="0.808594"/><stop stop-opacity="1" stop-color="rgb(0%, 61.399841%, 27.430725%)" offset="0.8125"/><stop stop-opacity="1" stop-color="rgb(0%, 61.680603%, 27.201843%)" offset="0.816406"/><stop stop-opacity="1" stop-color="rgb(0%, 61.961365%, 26.974487%)" offset="0.820313"/><stop stop-opacity="1" stop-color="rgb(0%, 62.242126%, 26.747131%)" offset="0.824219"/><stop stop-opacity="1" stop-color="rgb(0%, 62.524414%, 26.519775%)" offset="0.828125"/><stop stop-opacity="1" stop-color="rgb(0%, 62.805176%, 26.290894%)" offset="0.832031"/><stop stop-opacity="1" stop-color="rgb(0%, 63.087463%, 26.063538%)" offset="0.835938"/><stop stop-opacity="1" stop-color="rgb(0%, 63.368225%, 25.836182%)" offset="0.839844"/><stop stop-opacity="1" stop-color="rgb(0%, 63.648987%, 25.608826%)" offset="0.84375"/><stop stop-opacity="1" stop-color="rgb(0%, 63.929749%, 25.379944%)" offset="0.847656"/><stop stop-opacity="1" stop-color="rgb(0%, 64.212036%, 25.152588%)" offset="0.851563"/><stop stop-opacity="1" stop-color="rgb(0%, 64.492798%, 24.925232%)" offset="0.855469"/><stop stop-opacity="1" stop-color="rgb(0%, 64.775085%, 24.697876%)" offset="0.859375"/><stop stop-opacity="1" stop-color="rgb(0%, 65.055847%, 24.468994%)" offset="0.863281"/><stop stop-opacity="1" stop-color="rgb(0%, 65.336609%, 24.241638%)" offset="0.867188"/><stop stop-opacity="1" stop-color="rgb(0%, 65.617371%, 24.014282%)" offset="0.871094"/><stop stop-opacity="1" stop-color="rgb(0%, 65.899658%, 23.786926%)" offset="0.875"/><stop stop-opacity="1" stop-color="rgb(0%, 66.18042%, 23.558044%)" offset="0.878906"/><stop stop-opacity="1" stop-color="rgb(0%, 66.462708%, 23.330688%)" offset="0.882812"/><stop stop-opacity="1" stop-color="rgb(0%, 66.743469%, 23.103333%)" offset="0.886719"/><stop stop-opacity="1" stop-color="rgb(0%, 67.024231%, 22.875977%)" offset="0.890625"/><stop stop-opacity="1" stop-color="rgb(0%, 67.304993%, 22.647095%)" offset="0.894531"/><stop stop-opacity="1" stop-color="rgb(0%, 67.58728%, 22.419739%)" offset="0.898438"/><stop stop-opacity="1" stop-color="rgb(0%, 67.868042%, 22.192383%)" offset="0.902344"/><stop stop-opacity="1" stop-color="rgb(0%, 68.148804%, 21.965027%)" offset="0.90625"/><stop stop-opacity="1" stop-color="rgb(0%, 68.429565%, 21.736145%)" offset="0.910156"/><stop stop-opacity="1" stop-color="rgb(0%, 68.711853%, 21.508789%)" offset="0.914062"/><stop stop-opacity="1" stop-color="rgb(0%, 68.992615%, 21.281433%)" offset="0.917969"/><stop stop-opacity="1" stop-color="rgb(0%, 69.274902%, 21.054077%)" offset="0.921875"/><stop stop-opacity="1" stop-color="rgb(0%, 69.555664%, 20.825195%)" offset="0.925781"/><stop stop-opacity="1" stop-color="rgb(0%, 69.836426%, 20.597839%)" offset="0.929688"/><stop stop-opacity="1" stop-color="rgb(0%, 70.117188%, 20.370483%)" offset="0.933594"/><stop stop-opacity="1" stop-color="rgb(0%, 70.399475%, 20.143127%)" offset="0.9375"/><stop stop-opacity="1" stop-color="rgb(0%, 70.680237%, 19.914246%)" offset="0.941406"/><stop stop-opacity="1" stop-color="rgb(0%, 70.962524%, 19.68689%)" offset="0.945312"/><stop stop-opacity="1" stop-color="rgb(0%, 71.243286%, 19.459534%)" offset="0.949219"/><stop stop-opacity="1" stop-color="rgb(0%, 71.524048%, 19.232178%)" offset="0.953125"/><stop stop-opacity="1" stop-color="rgb(0%, 71.80481%, 19.003296%)" offset="0.957031"/><stop stop-opacity="1" stop-color="rgb(0%, 72.087097%, 18.77594%)" offset="0.960938"/><stop stop-opacity="1" stop-color="rgb(0%, 72.367859%, 18.548584%)" offset="0.964844"/><stop stop-opacity="1" stop-color="rgb(0%, 72.648621%, 18.321228%)" offset="0.96875"/><stop stop-opacity="1" stop-color="rgb(0%, 72.929382%, 18.092346%)" offset="0.972656"/><stop stop-opacity="1" stop-color="rgb(0%, 73.21167%, 17.86499%)" offset="0.976562"/><stop stop-opacity="1" stop-color="rgb(0%, 73.492432%, 17.637634%)" offset="0.980469"/><stop stop-opacity="1" stop-color="rgb(0%, 73.774719%, 17.410278%)" offset="0.984375"/><stop stop-opacity="1" stop-color="rgb(0%, 74.055481%, 17.181396%)" offset="0.988281"/><stop stop-opacity="1" stop-color="rgb(0%, 74.336243%, 16.954041%)" offset="0.992187"/><stop stop-opacity="1" stop-color="rgb(0%, 74.617004%, 16.726685%)" offset="0.996094"/><stop stop-opacity="1" stop-color="rgb(0%, 74.899292%, 16.499329%)" offset="1"/></linearGradient></defs><g clip-path="url(#90661a6e6c)"><g clip-path="url(#3a832dbe22)"><path fill="url(#ea0acd9aa4)" d="M 3.847656 0.03125 L 3.847656 29.007812 L 26.335938 29.007812 L 26.335938 0.03125 Z M 3.847656 0.03125 " fill-rule="nonzero"/></g></g></svg>