<svg width="1105" height="248" viewBox="0 0 1105 248" fill="none" xmlns="http://www.w3.org/2000/svg">
<path d="M249.22 52.1727V78.259L221.513 91.3043L138.464 52.1787L83.0856 78.2594L138.464 104.34L138.446 234.763L110.756 247.812L0 195.66V169.573L27.6891 156.524L83.0673 182.599V130.424L0.0182732 91.314V65.2277L138.464 0L249.202 52.1727H249.22Z" fill="url(#paint0_linear_216_74695)"/>
<path d="M110.764 91.2994L138.456 104.342V130.428L193.838 104.342V52.1712L221.529 39.1284L249.22 52.1712V182.599L221.529 195.641L193.838 182.599V156.513L138.456 182.599V234.77L110.764 247.812L83.0732 234.77V104.342L110.764 91.2994Z" fill="url(#paint1_linear_216_74695)"/>
<path d="M285.751 143.2L293.551 143.6C296.084 143.6 297.351 142.133 297.351 139.2V39.4C297.351 36.4667 296.084 35.0667 293.551 35.2L285.751 35.6V29.6H329.751V35.6L319.951 35.2H319.551C318.351 35.2 317.417 35.6 316.751 36.4C316.217 37.2 315.951 38.2 315.951 39.4V84.6H374.751V39.4C374.751 36.4667 373.484 35.0667 370.951 35.2L361.151 35.6V29.6H404.951V35.6L397.151 35.2H396.751C395.684 35.2 394.817 35.6 394.151 36.4C393.617 37.2 393.351 38.2 393.351 39.4V139.2C393.351 142.133 394.617 143.6 397.151 143.6L404.951 143.2V149H361.151V143.2L370.951 143.6C373.484 143.6 374.751 142.133 374.751 139.2V90.2H315.951V139.2C315.951 142.133 317.284 143.6 319.951 143.6L329.751 143.2V149H285.751V143.2ZM424.008 89.2C424.008 69.3333 429.075 54.1333 439.208 43.6C449.475 32.9333 463.742 27.6 482.008 27.6C500.542 27.6 514.808 33 524.808 43.8C534.942 54.6 540.008 69.7333 540.008 89.2C540.008 108.8 534.875 124 524.608 134.8C514.475 145.6 500.275 151 482.008 151C463.742 151 449.475 145.6 439.208 134.8C429.075 124 424.008 108.8 424.008 89.2ZM444.408 89.2C444.408 109.2 447.408 123.6 453.408 132.4C459.542 141.2 469.075 145.6 482.008 145.6C494.942 145.6 504.408 141.2 510.408 132.4C516.542 123.6 519.608 109.2 519.608 89.2C519.608 69.3333 516.542 55 510.408 46.2C504.408 37.4 494.942 33 482.008 33C469.075 33 459.542 37.4 453.408 46.2C447.408 55 444.408 69.3333 444.408 89.2ZM558.993 143.2L567.593 143.6C569.593 143.6 570.593 142.133 570.593 139.2V39.4C570.593 38.2 570.259 37.2 569.593 36.4C568.926 35.6 567.993 35.2 566.793 35.2L558.993 35.6V29.6H603.993C625.326 29.6 641.059 34.2667 651.193 43.6C661.459 52.8 666.593 68 666.593 89.2C666.593 129.067 646.526 149 606.393 149H558.993V143.2ZM589.193 140.8C589.193 142.533 589.993 143.4 591.593 143.4H600.593C611.793 143.4 620.659 141.667 627.193 138.2C633.859 134.6 638.659 128.867 641.593 121C644.659 113.133 646.193 102.6 646.193 89.4C646.193 76.2 644.659 65.6667 641.593 57.8C638.659 49.9333 633.859 44.2 627.193 40.6C620.526 37 611.659 35.2 600.593 35.2H591.593C589.993 35.2 589.193 36.0667 589.193 37.8V140.8ZM683.602 143L692.202 143.6C694.202 143.6 695.202 142.133 695.202 139.2V39.4C695.202 38.2 694.802 37.2 694.002 36.4C693.335 35.4667 692.469 35.0667 691.402 35.2L683.602 35.6V29.6H727.602V35.6L717.802 35.2H717.402C716.335 35.2 715.469 35.6 714.802 36.4C714.135 37.2 713.802 38.2 713.802 39.4V140.8C713.802 142.533 714.602 143.4 716.202 143.4H738.802C748.002 143.4 754.935 141 759.602 136.2C764.402 131.267 766.802 124.133 766.802 114.8H772.002V149.6C769.602 149.2 761.335 149 747.202 149H683.602V143ZM786.336 143L794.336 143.6C796.736 143.6 797.936 142.133 797.936 139.2V39.4C797.936 38.2 797.536 37.2 796.736 36.4C796.07 35.4667 795.136 35.0667 793.936 35.2L786.336 35.6V29.6H870.736C872.603 29.6 873.736 29.5333 874.136 29.4V60.4H868.736C868.736 51.4667 866.47 45.0667 861.936 41.2C857.536 37.2 850.336 35.2 840.336 35.2H818.936C817.336 35.2 816.536 36.1333 816.536 38V84H835.336C839.87 84 843.536 82.2 846.336 78.6C849.136 75 850.536 70.0667 850.536 63.8H855.936V110H850.536C850.536 104.133 849.003 99.2667 845.936 95.4C843.003 91.5333 839.47 89.6 835.336 89.6H816.536V140.8C816.536 142.533 817.336 143.4 818.936 143.4H846.936C856.003 143.4 862.87 140.8 867.536 135.6C872.336 130.4 874.736 122.933 874.736 113.2H880.136V149.6C877.203 149.2 871.336 149 862.536 149H786.336V143ZM899.032 143.2L906.832 143.6C909.365 143.6 910.632 142.133 910.632 139.2V39.4C910.632 38.2 910.232 37.2 909.432 36.4C908.765 35.4667 907.698 35.0667 906.232 35.2L899.032 35.6V29.6H944.032C958.832 29.6 969.565 32.1333 976.232 37.2C982.898 42.1333 986.232 50.2 986.232 61.4C986.232 68.2 983.965 74.1333 979.432 79.2C975.032 84.1333 969.165 87.6 961.832 89.6C965.965 89.6 970.098 91 974.232 93.8C978.498 96.6 982.032 100.667 984.832 106C987.632 111.333 989.032 117.533 989.032 124.6C989.032 128.6 989.498 132.667 990.432 136.8C991.498 140.933 992.965 143.133 994.832 143.4C995.632 143.667 996.565 143.8 997.632 143.8C999.232 143.8 1000.5 143.533 1001.43 143V149H974.232C972.632 145.667 971.698 141.267 971.432 135.8C971.165 132.333 971.032 129.8 971.032 128.2V121.6C971.032 111.6 967.765 104.133 961.232 99.2C954.832 94.2667 946.965 91.8 937.632 91.8H929.232V139.2C929.232 142.133 930.565 143.6 933.232 143.6L943.032 143.2V149H899.032V143.2ZM947.832 86.4C953.965 86.4 958.765 84.2 962.232 79.8C965.698 75.4 967.432 69.2667 967.432 61.4C967.432 52.2 965.498 45.5333 961.632 41.4C957.898 37.2667 952.032 35.2 944.032 35.2H931.632C930.032 35.2 929.232 35.8667 929.232 37.2V86.4H947.832ZM1019.84 108.4C1022.91 133.067 1035.18 145.4 1056.64 145.4C1063.31 145.4 1068.58 143.2 1072.44 138.8C1076.44 134.4 1078.51 128.6 1078.64 121.4C1078.64 116.2 1076.84 111.667 1073.24 107.8C1069.78 103.8 1064.98 100.6 1058.84 98.2L1038.44 90C1031.24 87.0667 1025.78 83.1333 1022.04 78.2C1018.31 73.2667 1016.44 67.4667 1016.44 60.8C1016.44 54.8 1017.84 49.2667 1020.64 44.2C1023.44 39.1333 1027.64 35.1333 1033.24 32.2C1038.84 29.1333 1045.58 27.6 1053.44 27.6C1057.71 27.6 1061.31 28 1064.24 28.8C1067.31 29.4667 1070.31 30.3333 1073.24 31.4C1076.18 32.3333 1078.18 33 1079.24 33.4C1081.38 34.2 1083.18 34.6 1084.64 34.6C1087.04 34.6 1088.98 34.3333 1090.44 33.8C1090.04 37 1089.84 42 1089.84 48.8C1089.84 52.8 1089.91 55.6667 1090.04 57.4C1090.18 59.1333 1090.51 60.7333 1091.04 62.2H1085.84C1085.84 53.5333 1082.98 46.5333 1077.24 41.2C1071.64 35.7333 1064.58 33 1056.04 33C1049.11 33 1043.51 34.9333 1039.24 38.8C1034.98 42.5333 1032.84 47.8 1032.84 54.6C1032.84 59 1034.38 63 1037.44 66.6C1040.51 70.0667 1044.71 72.8667 1050.04 75L1068.44 82.4C1078.58 86.5333 1085.78 91.1333 1090.04 96.2C1094.44 101.133 1096.64 107.533 1096.64 115.4C1096.64 122.333 1094.91 128.533 1091.44 134C1088.11 139.333 1083.51 143.533 1077.64 146.6C1071.91 149.533 1065.64 151 1058.84 151C1054.71 151 1051.11 150.8 1048.04 150.4C1044.98 150.133 1041.71 149.467 1038.24 148.4C1031.18 146.4 1025.91 145.4 1022.44 145.4C1021.24 145.4 1019.98 145.533 1018.64 145.8C1017.31 146.067 1016.31 146.267 1015.64 146.4C1016.18 143.6 1016.44 138.067 1016.44 129.8C1016.44 119 1015.91 111.867 1014.84 108.4H1019.84Z" fill="url(#paint2_linear_216_74695)"/>
<path d="M295.971 212.141C296.891 219.541 300.571 223.241 307.011 223.241C309.011 223.241 310.591 222.581 311.751 221.261C312.951 219.941 313.571 218.201 313.611 216.041C313.611 214.481 313.071 213.121 311.991 211.961C310.951 210.761 309.511 209.801 307.671 209.081L301.551 206.621C299.391 205.741 297.751 204.561 296.631 203.081C295.511 201.601 294.951 199.861 294.951 197.861C294.951 196.061 295.371 194.401 296.211 192.881C297.051 191.361 298.311 190.161 299.991 189.281C301.671 188.361 303.691 187.901 306.051 187.901C307.331 187.901 308.411 188.021 309.291 188.261C310.211 188.461 311.111 188.721 311.991 189.041C312.871 189.321 313.471 189.521 313.791 189.641C314.431 189.881 314.971 190.001 315.411 190.001C316.131 190.001 316.711 189.921 317.151 189.761C317.031 190.721 316.971 192.221 316.971 194.261C316.971 195.461 316.991 196.321 317.031 196.841C317.071 197.361 317.171 197.841 317.331 198.281H315.771C315.771 195.681 314.911 193.581 313.191 191.981C311.511 190.341 309.391 189.521 306.831 189.521C304.751 189.521 303.071 190.101 301.791 191.261C300.511 192.381 299.871 193.961 299.871 196.001C299.871 197.321 300.331 198.521 301.251 199.601C302.171 200.641 303.431 201.481 305.031 202.121L310.551 204.341C313.591 205.581 315.751 206.961 317.031 208.481C318.351 209.961 319.011 211.881 319.011 214.241C319.011 216.321 318.491 218.181 317.451 219.821C316.451 221.421 315.071 222.681 313.311 223.601C311.591 224.481 309.711 224.921 307.671 224.921C306.431 224.921 305.351 224.861 304.431 224.741C303.511 224.661 302.531 224.461 301.491 224.141C299.371 223.541 297.791 223.241 296.751 223.241C296.391 223.241 296.011 223.281 295.611 223.361C295.211 223.441 294.911 223.501 294.711 223.541C294.871 222.701 294.951 221.041 294.951 218.561C294.951 215.321 294.791 213.181 294.471 212.141H295.971ZM442.139 188.321C442.699 188.401 443.499 188.441 444.539 188.441H469.679C470.959 188.441 471.759 188.401 472.079 188.321V197.681H470.519C470.519 195.081 469.939 193.181 468.779 191.981C467.659 190.741 465.779 190.121 463.139 190.121H460.619C460.219 190.121 459.979 190.341 459.899 190.781V221.381C459.899 222.261 460.299 222.701 461.099 222.701L464.279 222.581V224.321H449.939V222.581L453.179 222.701C453.539 222.701 453.819 222.561 454.019 222.281C454.219 221.961 454.319 221.601 454.319 221.201V190.841C454.319 190.361 454.079 190.121 453.599 190.121H451.139C448.499 190.121 446.599 190.741 445.439 191.981C444.279 193.181 443.699 195.081 443.699 197.681H442.139V188.321ZM595.097 188.501H608.237V190.301L605.297 190.181H605.177C604.857 190.181 604.597 190.301 604.397 190.541C604.197 190.781 604.097 191.061 604.097 191.381V212.381C604.097 215.741 605.017 218.361 606.857 220.241C608.737 222.121 611.357 223.061 614.717 223.061C616.637 223.061 618.377 222.601 619.937 221.681C621.497 220.761 622.717 219.501 623.597 217.901C624.477 216.261 624.917 214.441 624.917 212.441V191.441C624.917 191.041 624.817 190.721 624.617 190.481C624.417 190.241 624.157 190.141 623.837 190.181L620.897 190.301V188.501H630.557V190.301L628.217 190.181H628.097C627.777 190.181 627.517 190.301 627.317 190.541C627.117 190.781 627.017 191.061 627.017 191.381V212.981C627.017 215.261 626.437 217.321 625.277 219.161C624.117 220.961 622.517 222.381 620.477 223.421C618.477 224.421 616.197 224.921 613.637 224.921C608.757 224.921 605.017 223.861 602.417 221.741C599.817 219.581 598.517 216.461 598.517 212.381V191.441C598.517 191.081 598.397 190.781 598.157 190.541C597.957 190.261 597.697 190.141 597.377 190.181L595.097 190.301V188.501ZM755.079 222.581L757.659 222.701C758.259 222.701 758.559 222.261 758.559 221.381V191.441C758.559 191.081 758.459 190.781 758.259 190.541C758.059 190.301 757.779 190.181 757.419 190.181L755.079 190.301V188.501H768.579C774.979 188.501 779.699 189.901 782.739 192.701C785.819 195.461 787.359 200.021 787.359 206.381C787.359 218.341 781.339 224.321 769.299 224.321H755.079V222.581ZM764.139 221.861C764.139 222.381 764.379 222.641 764.859 222.641H767.559C770.919 222.641 773.579 222.121 775.539 221.081C777.539 220.001 778.979 218.281 779.859 215.921C780.779 213.561 781.239 210.401 781.239 206.441C781.239 202.481 780.779 199.321 779.859 196.961C778.979 194.601 777.539 192.881 775.539 191.801C773.539 190.721 770.879 190.181 767.559 190.181H764.859C764.379 190.181 764.139 190.441 764.139 190.961V221.861ZM912.462 222.581L914.802 222.701C915.562 222.701 915.942 222.261 915.942 221.381V191.441C915.942 191.081 915.842 190.781 915.642 190.541C915.442 190.261 915.162 190.141 914.802 190.181L912.462 190.301V188.501H925.062V190.301L922.722 190.181H922.602C922.282 190.181 922.022 190.301 921.822 190.541C921.622 190.781 921.522 191.081 921.522 191.441V221.381C921.522 222.261 921.922 222.701 922.722 222.701L925.062 222.581V224.321H912.462V222.581ZM1050.74 206.381C1050.74 200.421 1052.26 195.861 1055.3 192.701C1058.38 189.501 1062.66 187.901 1068.14 187.901C1073.7 187.901 1077.98 189.521 1080.98 192.761C1084.02 196.001 1085.54 200.541 1085.54 206.381C1085.54 212.261 1084 216.821 1080.92 220.061C1077.88 223.301 1073.62 224.921 1068.14 224.921C1062.66 224.921 1058.38 223.301 1055.3 220.061C1052.26 216.821 1050.74 212.261 1050.74 206.381ZM1056.86 206.381C1056.86 212.381 1057.76 216.701 1059.56 219.341C1061.4 221.981 1064.26 223.301 1068.14 223.301C1072.02 223.301 1074.86 221.981 1076.66 219.341C1078.5 216.701 1079.42 212.381 1079.42 206.381C1079.42 200.421 1078.5 196.121 1076.66 193.481C1074.86 190.841 1072.02 189.521 1068.14 189.521C1064.26 189.521 1061.4 190.841 1059.56 193.481C1057.76 196.121 1056.86 200.421 1056.86 206.381Z" fill="url(#paint3_linear_216_74695)"/>
<defs>
<linearGradient id="paint0_linear_216_74695" x1="-4.55134e-07" y1="146.585" x2="224.748" y2="40.7043" gradientUnits="userSpaceOnUse">
<stop stop-color="#FF0000"/>
<stop offset="1" stop-color="#FAFF00"/>
</linearGradient>
<linearGradient id="paint1_linear_216_74695" x1="84.655" y1="182.046" x2="249.22" y2="107.379" gradientUnits="userSpaceOnUse">
<stop stop-color="#3301FE"/>
<stop offset="1" stop-color="#C902FF"/>
</linearGradient>
<linearGradient id="paint2_linear_216_74695" x1="315.624" y1="87.1607" x2="1071.5" y2="85.9201" gradientUnits="userSpaceOnUse">
<stop stop-color="#3301FE"/>
<stop offset="1" stop-color="#C902FF"/>
</linearGradient>
<linearGradient id="paint3_linear_216_74695" x1="315.624" y1="205.837" x2="1071.49" y2="203.045" gradientUnits="userSpaceOnUse">
<stop stop-color="#FF0000"/>
<stop offset="1" stop-color="#FAFF00"/>
</linearGradient>
</defs>
</svg>
