<svg width="1147" height="299" viewBox="0 0 1147 299" fill="none" xmlns="http://www.w3.org/2000/svg">
<path d="M281.55 203.6L288.55 204H288.95C291.217 204 292.35 202.533 292.35 199.6V102.8C292.35 99.8667 291.083 98.4667 288.55 98.6L281.55 99V91.6H333.75V99L323.95 98.6H323.55C322.35 98.6 321.417 99 320.75 99.8C320.217 100.6 319.95 101.6 319.95 102.8V146.6H366.75V102.8C366.75 99.8667 365.483 98.4667 362.95 98.6L353.15 99V91.6H405.15V99L398.15 98.6H397.75C396.683 98.6 395.817 99 395.15 99.8C394.617 100.6 394.35 101.6 394.35 102.8V199.6C394.35 202.667 395.617 204.133 398.15 204L405.15 203.6V211H353.15V203.6L362.95 204C365.483 204 366.75 202.533 366.75 199.6V153.6H319.95V199.6C319.95 202.533 321.283 204 323.95 204L333.75 203.6V211H281.55V203.6ZM419.008 151.2C419.008 131.333 424.408 116.133 435.208 105.6C446.008 94.9333 461.208 89.6 480.808 89.6C500.674 89.6 515.941 95 526.608 105.8C537.274 116.6 542.608 131.733 542.608 151.2C542.608 170.8 537.208 186 526.408 196.8C515.608 207.6 500.408 213 480.808 213C461.208 213 446.008 207.6 435.208 196.8C424.408 186 419.008 170.8 419.008 151.2ZM449.208 151.2C449.208 165.2 450.341 176.2 452.608 184.2C454.874 192.067 458.274 197.667 462.808 201C467.341 204.333 473.341 206 480.808 206C488.274 206 494.274 204.333 498.808 201C503.341 197.667 506.741 192.067 509.008 184.2C511.274 176.2 512.408 165.2 512.408 151.2C512.408 137.333 511.274 126.4 509.008 118.4C506.741 110.4 503.341 104.733 498.808 101.4C494.274 98.0667 488.274 96.4 480.808 96.4C473.341 96.4 467.341 98.0667 462.808 101.4C458.274 104.733 454.874 110.4 452.608 118.4C450.341 126.4 449.208 137.333 449.208 151.2ZM556.355 203.6L564.155 204H564.355C565.288 204 565.955 203.6 566.355 202.8C566.888 201.867 567.155 200.8 567.155 199.6V102.8C567.155 101.6 566.821 100.6 566.155 99.8C565.488 99 564.555 98.6 563.355 98.6L556.355 99V91.6H605.155C627.421 91.6 643.755 96.2 654.155 105.4C664.688 114.6 669.955 129.867 669.955 151.2C669.955 170.933 664.821 185.867 654.555 196C644.421 206 628.755 211 607.555 211H556.355V203.6ZM594.755 201.2C594.755 202.933 595.555 203.8 597.155 203.8H601.755C611.355 203.8 618.821 202.333 624.155 199.4C629.621 196.467 633.555 191.267 635.955 183.8C638.488 176.333 639.755 165.533 639.755 151.4C639.755 137.4 638.488 126.6 635.955 119C633.555 111.4 629.621 106.133 624.155 103.2C618.821 100.133 611.355 98.6 601.755 98.6H597.155C595.555 98.6 594.755 99.4667 594.755 101.2V201.2ZM683.113 203.4L690.913 204C692.913 204 693.913 202.533 693.913 199.6V102.8C693.913 101.6 693.513 100.6 692.713 99.8C692.046 98.8667 691.179 98.4667 690.113 98.6L683.113 99V91.6H735.313V99L725.513 98.6H725.113C724.046 98.6 723.179 99 722.513 99.8C721.846 100.6 721.513 101.6 721.513 102.8V201.2C721.513 202.933 722.313 203.8 723.913 203.8H740.513C749.179 203.8 755.779 201.533 760.313 197C764.846 192.333 767.113 185.6 767.113 176.8H773.713V211.6C771.313 211.2 763.046 211 748.913 211H683.113V203.4ZM785.847 203.4L793.047 204C795.447 204 796.647 202.533 796.647 199.6V102.8C796.647 101.6 796.247 100.6 795.447 99.8C794.78 98.8667 793.847 98.4667 792.647 98.6L785.847 99V91.6H874.047C875.914 91.6 877.047 91.5333 877.447 91.4V122.4H870.447C870.447 114 868.18 107.933 863.647 104.2C859.114 100.467 851.914 98.6 842.047 98.6H826.647C825.047 98.6 824.247 99.5333 824.247 101.4V146H838.647C843.18 146 846.847 144.2 849.647 140.6C852.447 137 853.847 132.067 853.847 125.8H860.647V172.8H853.847C853.847 167.2 852.314 162.533 849.247 158.8C846.314 154.933 842.78 153 838.647 153H824.247V201.2C824.247 202.933 825.047 203.8 826.647 203.8H848.647C857.714 203.8 864.58 201.333 869.247 196.4C874.047 191.467 876.447 184.4 876.447 175.2H883.447V211.6C880.514 211.2 874.114 211 864.247 211H785.847V203.4ZM900.105 203.6L907.105 204H907.505C909.771 204 910.905 202.533 910.905 199.6V102.8C910.905 101.6 910.505 100.6 909.705 99.8C909.038 98.8667 907.971 98.4667 906.505 98.6L900.105 99V91.6H951.905C966.305 91.6 976.905 94.0667 983.705 99C990.638 103.8 994.105 111.333 994.105 121.6C994.105 129.733 991.505 136.533 986.305 142C981.238 147.467 974.171 151.133 965.105 153C969.905 153 974.771 154.333 979.705 157C984.638 159.667 988.705 163.6 991.905 168.8C995.238 173.867 996.905 179.8 996.905 186.6C996.905 190.333 997.438 194.333 998.505 198.6C999.705 202.733 1001.1 205 1002.7 205.4C1003.5 205.667 1004.37 205.8 1005.3 205.8C1006.5 205.8 1007.57 205.533 1008.5 205V211H973.105C971.505 207.667 970.571 203.267 970.305 197.8C970.038 194.333 969.905 191.8 969.905 190.2V183.6C969.905 174.533 967.371 167.8 962.305 163.4C957.238 159 951.105 156.8 943.905 156.8H938.505V199.6C938.505 202.533 939.838 204 942.505 204L952.305 203.6V211H900.105V203.6ZM951.105 149.8C955.905 149.8 959.705 147.533 962.505 143C965.438 138.333 966.905 132.067 966.905 124.2C966.905 115.267 965.305 108.8 962.105 104.8C958.905 100.667 953.971 98.6 947.305 98.6H940.905C939.305 98.6 938.505 99.2667 938.505 100.6V149.8H951.105ZM1026.24 170.4C1027.57 182 1031.31 190.8 1037.44 196.8C1043.71 202.8 1051.44 205.8 1060.64 205.8C1067.44 205.8 1072.77 203.933 1076.64 200.2C1080.64 196.467 1082.64 191.533 1082.64 185.4C1082.64 176.067 1076.31 168.933 1063.64 164L1044.04 155.8C1028.84 149.533 1021.24 139.2 1021.24 124.8C1021.24 118.4 1022.77 112.533 1025.84 107.2C1028.91 101.867 1033.51 97.6 1039.64 94.4C1045.77 91.2 1053.24 89.6 1062.04 89.6C1066.44 89.6 1070.17 89.9333 1073.24 90.6C1076.31 91.2667 1079.37 92.1333 1082.44 93.2C1085.51 94.2667 1087.71 95 1089.04 95.4C1091.31 96.2 1093.31 96.6 1095.04 96.6C1097.31 96.6 1099.17 96.3333 1100.64 95.8C1100.24 99 1100.04 104.067 1100.04 111C1100.04 114.867 1100.11 117.667 1100.24 119.4C1100.37 121.133 1100.71 122.733 1101.24 124.2H1094.44C1094.44 115.933 1091.57 109.267 1085.84 104.2C1080.24 99 1073.37 96.4 1065.24 96.4C1058.84 96.4 1053.57 98.0667 1049.44 101.4C1045.31 104.733 1043.24 109.067 1043.24 114.4C1043.24 118.133 1044.57 121.533 1047.24 124.6C1050.04 127.533 1054.44 130.2 1060.44 132.6L1077.44 139.8C1087.84 144.333 1095.24 149.2 1099.64 154.4C1104.17 159.467 1106.44 166.2 1106.44 174.6C1106.44 181.8 1104.77 188.333 1101.44 194.2C1098.11 199.933 1093.17 204.533 1086.64 208C1080.11 211.333 1072.17 213 1062.84 213C1056.97 213 1050.64 212.133 1043.84 210.4C1036.24 208.4 1031.04 207.4 1028.24 207.4C1027.04 207.4 1025.57 207.533 1023.84 207.8C1022.24 207.933 1021.17 208.133 1020.64 208.4C1021.17 205.6 1021.44 200.467 1021.44 193C1021.44 187.667 1021.31 182.733 1021.04 178.2C1020.77 173.667 1020.37 171.267 1019.84 171L1026.24 170.4Z" fill="white"/>
<path d="M201 282.25L172.429 297L143.857 282.25V171.863L58.1429 216.113V282.25L29.5714 297L1 282.25V16.75L29.5714 2L58.1429 16.75V127.613L143.857 83.3629V16.75L172.429 2L201 16.75V282.25Z" fill="white"/>
<path d="M172.429 297L201 282.25V16.75M172.429 297L143.857 282.25V171.863M172.429 297V31.5M143.857 112.863V83.3629M143.857 112.863L172.429 127.613L58.1429 186.613M143.857 112.863L29.5714 171.863M143.857 83.3629V16.75M143.857 83.3629L29.5714 142.363V171.863M143.857 16.75L172.429 1.99999L201 16.75M143.857 16.75L172.429 31.5M201 16.75L172.429 31.5M172.429 157.113L58.1429 216.113M58.1429 282.25L29.5714 297L1 282.25M58.1429 282.25L29.5714 267.5M58.1429 282.25V216.113M1 282.25L29.5714 267.5M1 282.25V16.75L29.5714 1.99999M29.5714 267.5V1.99999M29.5714 1.99999L58.1429 16.75V128.252M58.1429 186.613V216.113M58.1429 186.613L29.5714 171.863" stroke="black" stroke-width="2"/>
</svg>
