<svg width="202" height="299" viewBox="0 0 202 299" fill="none" xmlns="http://www.w3.org/2000/svg">
<path d="M201 282.25L172.429 297L143.857 282.25V171.863L58.1429 216.113V282.25L29.5714 297L1 282.25V16.75L29.5714 2L58.1429 16.75V127.613L143.857 83.3629V16.75L172.429 2L201 16.75V282.25Z" fill="url(#paint0_linear_0_11784)"/>
<path d="M172.429 297L201 282.25V16.75M172.429 297L143.857 282.25V171.863M172.429 297V31.5M143.857 112.863V83.3629M143.857 112.863L172.429 127.613L58.1429 186.613M143.857 112.863L29.5714 171.863M143.857 83.3629V16.75M143.857 83.3629L29.5714 142.363V171.863M143.857 16.75L172.429 1.99999L201 16.75M143.857 16.75L172.429 31.5M201 16.75L172.429 31.5M172.429 157.113L58.1429 216.113M58.1429 282.25L29.5714 297L1 282.25M58.1429 282.25L29.5714 267.5M58.1429 282.25V216.113M1 282.25L29.5714 267.5M1 282.25V16.75L29.5714 1.99999M29.5714 267.5V1.99999M29.5714 1.99999L58.1429 16.75V128.252M58.1429 186.613V216.113M58.1429 186.613L29.5714 171.863" stroke="black" stroke-width="2"/>
<defs>
<linearGradient id="paint0_linear_0_11784" x1="201.777" y1="154.452" x2="2.03507" y2="154.515" gradientUnits="userSpaceOnUse">
<stop stop-color="#AC1500"/>
<stop offset="0.505208" stop-color="#AC0090"/>
<stop offset="1" stop-color="#6E00AD"/>
</linearGradient>
</defs>
</svg>
