<svg width="32" height="32" viewBox="0 0 32 32" fill="none" xmlns="http://www.w3.org/2000/svg">
<circle cx="16.0005" cy="16" r="10.9321" stroke="white" stroke-width="2"/>
<path d="M19.6106 16C19.6106 19.2009 19.0928 22.0528 18.2914 24.0677C17.8896 25.078 17.4361 25.8282 16.9836 26.3094C16.5329 26.7887 16.1544 26.9321 15.8649 26.9321C15.5754 26.9321 15.1968 26.7887 14.7461 26.3094C14.2937 25.8282 13.8402 25.078 13.4383 24.0677C12.637 22.0528 12.1191 19.2009 12.1191 16C12.1191 12.7991 12.637 9.94713 13.4383 7.93228C13.8402 6.92199 14.2937 6.17176 14.7461 5.69059C15.1968 5.21131 15.5754 5.06787 15.8649 5.06787C16.1544 5.06787 16.5329 5.21131 16.9836 5.69059C17.4361 6.17176 17.8896 6.92199 18.2914 7.93228C19.0928 9.94713 19.6106 12.7991 19.6106 16Z" stroke="white" stroke-width="2"/>
<path d="M6 13H26" stroke="white" stroke-width="2"/>
<path d="M6 19H26" stroke="white" stroke-width="2"/>
<circle cx="2.16948" cy="2.16948" r="2.16948" fill="white"/>
<circle cx="29.8296" cy="29.8304" r="2.16948" fill="white"/>
</svg>
