<svg width="28" height="31" viewBox="0 0 28 31" fill="none" xmlns="http://www.w3.org/2000/svg">
<path d="M8.56833 7.61739L8.69944 6.62602L8.20266 6.56032L7.85267 6.91894L8.56833 7.61739ZM18.5382 8.93592L18.4071 9.92729L18.8795 9.98976L19.2255 9.66223L18.5382 8.93592ZM25.7577 2.10352L26.7112 2.40504L27.2277 0.771644L25.5514 1.12502L25.7577 2.10352ZM22.1945 2.85468L21.9882 1.87619L20.2378 2.24519L21.469 3.54294L22.1945 2.85468ZM24.6888 5.48376L23.9633 6.17202L25.1308 7.40259L25.6422 5.78528L24.6888 5.48376ZM3.66879 14.0694L9.28399 8.31583L7.85267 6.91894L2.23746 12.6725L3.66879 14.0694ZM8.43722 8.60875L18.4071 9.92729L18.6693 7.94455L8.69944 6.62602L8.43722 8.60875ZM19.2255 9.66223L26.4451 2.82983L25.0704 1.3772L17.8508 8.20961L19.2255 9.66223ZM21.469 3.54294L23.9633 6.17202L25.4142 4.7955L22.92 2.16642L21.469 3.54294ZM25.5514 1.12502L21.9882 1.87619L22.4008 3.83317L25.964 3.08201L25.5514 1.12502ZM25.6422 5.78528L26.7112 2.40504L24.8043 1.80199L23.7353 5.18224L25.6422 5.78528Z" fill="white"/>
<rect x="0.103516" y="22.385" width="7.12644" height="4.50699" fill="white"/>
<rect x="10.0801" y="14.1221" width="7.12644" height="12.7698" fill="white"/>
<rect x="20.0566" y="16.3755" width="7.83908" height="10.5163" fill="white"/>
<path d="M0.103516 29.8967H27.8966" stroke="white" stroke-width="2"/>
</svg>
