<svg width="20" height="20" viewBox="0 0 20 20" fill="none" xmlns="http://www.w3.org/2000/svg">
<path d="M10.0005 0C7.28478 0 6.94396 0.0118752 5.87732 0.0604169C4.81277 0.109167 4.08613 0.277708 3.45031 0.525C2.79262 0.780417 2.23472 1.12208 1.67891 1.67813C1.12267 2.23396 0.781018 2.79187 0.524776 3.44937C0.276866 4.08542 0.108122 4.81229 0.0602064 5.87646C0.0124995 6.94312 0 7.28417 0 10C0 12.7158 0.0120832 13.0556 0.060415 14.1223C0.109372 15.1869 0.277908 15.9135 0.524984 16.5494C0.780601 17.2071 1.12226 17.765 1.67828 18.3208C2.23389 18.8771 2.79179 19.2196 3.44906 19.475C4.08529 19.7223 4.81215 19.8908 5.87649 19.9396C6.94312 19.9881 7.28374 20 9.99928 20C12.7152 20 13.055 19.9881 14.1217 19.9396C15.1862 19.8908 15.9137 19.7223 16.5499 19.475C17.2074 19.2196 17.7645 18.8771 18.3201 18.3208C18.8763 17.765 19.218 17.2071 19.4742 16.5496C19.72 15.9135 19.8888 15.1867 19.9388 14.1225C19.9867 13.0558 19.9992 12.7158 19.9992 10C19.9992 7.28417 19.9867 6.94333 19.9388 5.87667C19.8888 4.81208 19.72 4.08542 19.4742 3.44958C19.218 2.79187 18.8763 2.23396 18.3201 1.67813C17.7638 1.12188 17.2076 0.780208 16.5493 0.525C15.9118 0.277708 15.1847 0.109167 14.1202 0.0604169C13.0536 0.0118752 12.714 0 9.99741 0H10.0005ZM9.10347 1.80208C9.36972 1.80167 9.66679 1.80208 10.0005 1.80208C12.6704 1.80208 12.9869 1.81167 14.0412 1.85958C15.0162 1.90417 15.5454 2.06708 15.8979 2.20396C16.3645 2.38521 16.6972 2.60187 17.047 2.95187C17.397 3.30187 17.6136 3.63521 17.7953 4.10187C17.9322 4.45396 18.0953 4.98312 18.1397 5.95812C18.1876 7.01229 18.198 7.32896 18.198 9.99771C18.198 12.6665 18.1876 12.9831 18.1397 14.0373C18.0951 15.0123 17.9322 15.5415 17.7953 15.8935C17.614 16.3602 17.397 16.6925 17.047 17.0423C16.697 17.3923 16.3647 17.609 15.8979 17.7902C15.5458 17.9277 15.0162 18.0902 14.0412 18.1348C12.9871 18.1827 12.6704 18.1931 10.0005 18.1931C7.3304 18.1931 7.01395 18.1827 5.95982 18.1348C4.98485 18.0898 4.4557 17.9269 4.103 17.79C3.63635 17.6087 3.30302 17.3921 2.95304 17.0421C2.60305 16.6921 2.38639 16.3596 2.20473 15.8927C2.06785 15.5406 1.90473 15.0115 1.86036 14.0365C1.81245 12.9823 1.80286 12.6656 1.80286 9.99521C1.80286 7.32479 1.81245 7.00979 1.86036 5.95563C1.90494 4.98063 2.06785 4.45146 2.20473 4.09896C2.38597 3.63229 2.60305 3.29896 2.95304 2.94896C3.30302 2.59896 3.63635 2.38229 4.103 2.20062C4.45549 2.06312 4.98485 1.90063 5.95982 1.85583C6.88229 1.81417 7.23978 1.80167 9.10347 1.79958V1.80208ZM15.3383 3.4625C14.6758 3.4625 14.1383 3.99937 14.1383 4.66208C14.1383 5.32458 14.6758 5.86208 15.3383 5.86208C16.0008 5.86208 16.5382 5.32458 16.5382 4.66208C16.5382 3.99958 16.0008 3.46208 15.3383 3.46208V3.4625ZM10.0005 4.86458C7.16457 4.86458 4.86527 7.16396 4.86527 10C4.86527 12.836 7.16457 15.1344 10.0005 15.1344C12.8365 15.1344 15.135 12.836 15.135 10C15.135 7.16396 12.8363 4.86458 10.0003 4.86458H10.0005ZM10.0005 6.66667C11.8413 6.66667 13.3338 8.15896 13.3338 10C13.3338 11.8408 11.8413 13.3333 10.0005 13.3333C8.15954 13.3333 6.6673 11.8408 6.6673 10C6.6673 8.15896 8.15954 6.66667 10.0005 6.66667Z" fill="white"/>
</svg>
