<svg width="25" height="20" viewBox="0 0 25 20" fill="none" xmlns="http://www.w3.org/2000/svg">
<path d="M7.74529 20C17.0394 20 22.122 12.3062 22.122 5.63445C22.122 5.41592 22.1176 5.19838 22.1078 4.98182C23.0944 4.26915 23.9519 3.37978 24.6282 2.36735C23.7229 2.76947 22.7486 3.04016 21.7265 3.16222C22.7697 2.53715 23.5706 1.54837 23.9485 0.369628C22.9722 0.947941 21.8911 1.36826 20.7399 1.59519C19.8179 0.613816 18.5051 0 17.0516 0C14.2612 0 11.9984 2.26111 11.9984 5.04826C11.9984 5.44446 12.0428 5.82984 12.1294 6.1995C7.92989 5.98835 4.20604 3.97926 1.71383 0.924313C1.27989 1.67045 1.02966 2.53718 1.02966 3.46199C1.02966 5.21367 1.92172 6.76005 3.27824 7.66471C2.44924 7.63912 1.67049 7.41173 0.98983 7.03324C0.989087 7.05442 0.989084 7.07508 0.989084 7.09772C0.989084 9.5429 2.73081 11.5844 5.04285 12.047C4.61826 12.1627 4.17154 12.2247 3.71047 12.2247C3.38538 12.2247 3.06865 12.1928 2.7608 12.1337C3.40409 14.1398 5.26946 15.5996 7.48101 15.6404C5.7516 16.9949 3.57303 17.8016 1.20528 17.8016C0.797931 17.8016 0.395509 17.7785 0 17.7317C2.23626 19.164 4.89161 19.9997 7.74556 19.9997" fill="white"/>
</svg>
