<svg width="1600" height="841" viewBox="0 0 1600 841" fill="none" xmlns="http://www.w3.org/2000/svg">
<rect width="1600" height="840.267" fill="white"/>
<path d="M529.55 432.6L536.55 433H536.95C539.217 433 540.35 431.533 540.35 428.6V331.8C540.35 328.867 539.083 327.467 536.55 327.6L529.55 328V320.6H581.75V328L571.95 327.6H571.55C570.35 327.6 569.417 328 568.75 328.8C568.217 329.6 567.95 330.6 567.95 331.8V375.6H614.75V331.8C614.75 328.867 613.483 327.467 610.95 327.6L601.15 328V320.6H653.15V328L646.15 327.6H645.75C644.683 327.6 643.817 328 643.15 328.8C642.617 329.6 642.35 330.6 642.35 331.8V428.6C642.35 431.667 643.617 433.133 646.15 433L653.15 432.6V440H601.15V432.6L610.95 433C613.483 433 614.75 431.533 614.75 428.6V382.6H567.95V428.6C567.95 431.533 569.283 433 571.95 433L581.75 432.6V440H529.55V432.6ZM667.008 380.2C667.008 360.333 672.408 345.133 683.208 334.6C694.008 323.933 709.208 318.6 728.808 318.6C748.674 318.6 763.941 324 774.608 334.8C785.274 345.6 790.608 360.733 790.608 380.2C790.608 399.8 785.208 415 774.408 425.8C763.608 436.6 748.408 442 728.808 442C709.208 442 694.008 436.6 683.208 425.8C672.408 415 667.008 399.8 667.008 380.2ZM697.208 380.2C697.208 394.2 698.341 405.2 700.608 413.2C702.874 421.067 706.274 426.667 710.808 430C715.341 433.333 721.341 435 728.808 435C736.274 435 742.274 433.333 746.808 430C751.341 426.667 754.741 421.067 757.008 413.2C759.274 405.2 760.408 394.2 760.408 380.2C760.408 366.333 759.274 355.4 757.008 347.4C754.741 339.4 751.341 333.733 746.808 330.4C742.274 327.067 736.274 325.4 728.808 325.4C721.341 325.4 715.341 327.067 710.808 330.4C706.274 333.733 702.874 339.4 700.608 347.4C698.341 355.4 697.208 366.333 697.208 380.2ZM804.355 432.6L812.155 433H812.355C813.288 433 813.955 432.6 814.355 431.8C814.888 430.867 815.155 429.8 815.155 428.6V331.8C815.155 330.6 814.821 329.6 814.155 328.8C813.488 328 812.555 327.6 811.355 327.6L804.355 328V320.6H853.155C875.421 320.6 891.755 325.2 902.155 334.4C912.688 343.6 917.955 358.867 917.955 380.2C917.955 399.933 912.821 414.867 902.555 425C892.421 435 876.755 440 855.555 440H804.355V432.6ZM842.755 430.2C842.755 431.933 843.555 432.8 845.155 432.8H849.755C859.355 432.8 866.821 431.333 872.155 428.4C877.621 425.467 881.555 420.267 883.955 412.8C886.488 405.333 887.755 394.533 887.755 380.4C887.755 366.4 886.488 355.6 883.955 348C881.555 340.4 877.621 335.133 872.155 332.2C866.821 329.133 859.355 327.6 849.755 327.6H845.155C843.555 327.6 842.755 328.467 842.755 330.2V430.2ZM931.113 432.4L938.913 433C940.913 433 941.913 431.533 941.913 428.6V331.8C941.913 330.6 941.513 329.6 940.713 328.8C940.046 327.867 939.179 327.467 938.113 327.6L931.113 328V320.6H983.313V328L973.513 327.6H973.113C972.046 327.6 971.179 328 970.513 328.8C969.846 329.6 969.513 330.6 969.513 331.8V430.2C969.513 431.933 970.313 432.8 971.913 432.8H988.513C997.179 432.8 1003.78 430.533 1008.31 426C1012.85 421.333 1015.11 414.6 1015.11 405.8H1021.71V440.6C1019.31 440.2 1011.05 440 996.913 440H931.113V432.4ZM1033.85 432.4L1041.05 433C1043.45 433 1044.65 431.533 1044.65 428.6V331.8C1044.65 330.6 1044.25 329.6 1043.45 328.8C1042.78 327.867 1041.85 327.467 1040.65 327.6L1033.85 328V320.6H1122.05C1123.91 320.6 1125.05 320.533 1125.45 320.4V351.4H1118.45C1118.45 343 1116.18 336.933 1111.65 333.2C1107.11 329.467 1099.91 327.6 1090.05 327.6H1074.65C1073.05 327.6 1072.25 328.533 1072.25 330.4V375H1086.65C1091.18 375 1094.85 373.2 1097.65 369.6C1100.45 366 1101.85 361.067 1101.85 354.8H1108.65V401.8H1101.85C1101.85 396.2 1100.31 391.533 1097.25 387.8C1094.31 383.933 1090.78 382 1086.65 382H1072.25V430.2C1072.25 431.933 1073.05 432.8 1074.65 432.8H1096.65C1105.71 432.8 1112.58 430.333 1117.25 425.4C1122.05 420.467 1124.45 413.4 1124.45 404.2H1131.45V440.6C1128.51 440.2 1122.11 440 1112.25 440H1033.85V432.4ZM1148.1 432.6L1155.1 433H1155.5C1157.77 433 1158.9 431.533 1158.9 428.6V331.8C1158.9 330.6 1158.5 329.6 1157.7 328.8C1157.04 327.867 1155.97 327.467 1154.5 327.6L1148.1 328V320.6H1199.9C1214.3 320.6 1224.9 323.067 1231.7 328C1238.64 332.8 1242.1 340.333 1242.1 350.6C1242.1 358.733 1239.5 365.533 1234.3 371C1229.24 376.467 1222.17 380.133 1213.1 382C1217.9 382 1222.77 383.333 1227.7 386C1232.64 388.667 1236.7 392.6 1239.9 397.8C1243.24 402.867 1244.9 408.8 1244.9 415.6C1244.9 419.333 1245.44 423.333 1246.5 427.6C1247.7 431.733 1249.1 434 1250.7 434.4C1251.5 434.667 1252.37 434.8 1253.3 434.8C1254.5 434.8 1255.57 434.533 1256.5 434V440H1221.1C1219.5 436.667 1218.57 432.267 1218.3 426.8C1218.04 423.333 1217.9 420.8 1217.9 419.2V412.6C1217.9 403.533 1215.37 396.8 1210.3 392.4C1205.24 388 1199.1 385.8 1191.9 385.8H1186.5V428.6C1186.5 431.533 1187.84 433 1190.5 433L1200.3 432.6V440H1148.1V432.6ZM1199.1 378.8C1203.9 378.8 1207.7 376.533 1210.5 372C1213.44 367.333 1214.9 361.067 1214.9 353.2C1214.9 344.267 1213.3 337.8 1210.1 333.8C1206.9 329.667 1201.97 327.6 1195.3 327.6H1188.9C1187.3 327.6 1186.5 328.267 1186.5 329.6V378.8H1199.1ZM1274.24 399.4C1275.57 411 1279.31 419.8 1285.44 425.8C1291.71 431.8 1299.44 434.8 1308.64 434.8C1315.44 434.8 1320.77 432.933 1324.64 429.2C1328.64 425.467 1330.64 420.533 1330.64 414.4C1330.64 405.067 1324.31 397.933 1311.64 393L1292.04 384.8C1276.84 378.533 1269.24 368.2 1269.24 353.8C1269.24 347.4 1270.77 341.533 1273.84 336.2C1276.91 330.867 1281.51 326.6 1287.64 323.4C1293.77 320.2 1301.24 318.6 1310.04 318.6C1314.44 318.6 1318.17 318.933 1321.24 319.6C1324.31 320.267 1327.37 321.133 1330.44 322.2C1333.51 323.267 1335.71 324 1337.04 324.4C1339.31 325.2 1341.31 325.6 1343.04 325.6C1345.31 325.6 1347.17 325.333 1348.64 324.8C1348.24 328 1348.04 333.067 1348.04 340C1348.04 343.867 1348.11 346.667 1348.24 348.4C1348.37 350.133 1348.71 351.733 1349.24 353.2H1342.44C1342.44 344.933 1339.57 338.267 1333.84 333.2C1328.24 328 1321.37 325.4 1313.24 325.4C1306.84 325.4 1301.57 327.067 1297.44 330.4C1293.31 333.733 1291.24 338.067 1291.24 343.4C1291.24 347.133 1292.57 350.533 1295.24 353.6C1298.04 356.533 1302.44 359.2 1308.44 361.6L1325.44 368.8C1335.84 373.333 1343.24 378.2 1347.64 383.4C1352.17 388.467 1354.44 395.2 1354.44 403.6C1354.44 410.8 1352.77 417.333 1349.44 423.2C1346.11 428.933 1341.17 433.533 1334.64 437C1328.11 440.333 1320.17 442 1310.84 442C1304.97 442 1298.64 441.133 1291.84 439.4C1284.24 437.4 1279.04 436.4 1276.24 436.4C1275.04 436.4 1273.57 436.533 1271.84 436.8C1270.24 436.933 1269.17 437.133 1268.64 437.4C1269.17 434.6 1269.44 429.467 1269.44 422C1269.44 416.667 1269.31 411.733 1269.04 407.2C1268.77 402.667 1268.37 400.267 1267.84 400L1274.24 399.4Z" fill="black"/>
<path d="M539.231 509.3C539.231 503.38 540.871 498.78 544.151 495.5C547.471 492.22 552.051 490.58 557.891 490.58C559.491 490.58 560.811 490.7 561.851 490.94C562.891 491.18 564.151 491.54 565.631 492.02C566.671 492.42 567.571 492.72 568.331 492.92C569.091 493.08 569.931 493.16 570.851 493.16C570.691 494.4 570.611 495.9 570.611 497.66C570.611 498.5 570.631 499.26 570.671 499.94C570.711 500.58 570.771 500.94 570.851 501.02H568.931C568.451 498.66 567.231 496.66 565.271 495.02C563.311 493.34 561.131 492.5 558.731 492.5C555.411 492.5 552.831 493.96 550.991 496.88C549.191 499.76 548.291 503.9 548.291 509.3C548.291 514.46 549.251 518.46 551.171 521.3C553.091 524.1 555.691 525.5 558.971 525.5C561.491 525.5 563.691 524.7 565.571 523.1C567.491 521.46 568.711 519.42 569.231 516.98H571.391C571.151 518.94 571.031 520.64 571.031 522.08C571.031 523.24 571.091 524.18 571.211 524.9H570.851C570.131 524.9 569.371 525 568.571 525.2C567.811 525.36 566.811 525.64 565.571 526.04C563.771 526.56 562.311 526.94 561.191 527.18C560.111 527.46 558.911 527.6 557.591 527.6C553.831 527.6 550.571 526.86 547.811 525.38C545.051 523.9 542.931 521.8 541.451 519.08C539.971 516.32 539.231 513.06 539.231 509.3ZM627.774 509.06C627.774 503.1 629.394 498.54 632.634 495.38C635.874 492.18 640.434 490.58 646.314 490.58C652.274 490.58 656.854 492.2 660.054 495.44C663.254 498.68 664.854 503.22 664.854 509.06C664.854 514.94 663.234 519.5 659.994 522.74C656.754 525.98 652.194 527.6 646.314 527.6C640.434 527.6 635.874 525.98 632.634 522.74C629.394 519.5 627.774 514.94 627.774 509.06ZM636.834 509.06C636.834 513.26 637.174 516.56 637.854 518.96C638.534 521.32 639.554 523 640.914 524C642.274 525 644.074 525.5 646.314 525.5C648.554 525.5 650.354 525 651.714 524C653.074 523 654.094 521.32 654.774 518.96C655.454 516.56 655.794 513.26 655.794 509.06C655.794 504.9 655.454 501.62 654.774 499.22C654.094 496.82 653.074 495.12 651.714 494.12C650.354 493.12 648.554 492.62 646.314 492.62C644.074 492.62 642.274 493.12 640.914 494.12C639.554 495.12 638.534 496.82 637.854 499.22C637.174 501.62 636.834 504.9 636.834 509.06ZM721.778 524.72L724.118 524.9C724.718 524.9 725.018 524.46 725.018 523.58V494.54C725.018 494.18 724.898 493.88 724.658 493.64C724.458 493.36 724.198 493.24 723.878 493.28L721.778 493.4V491.18H737.438V493.4L734.498 493.28H734.378C734.058 493.28 733.798 493.4 733.598 493.64C733.398 493.88 733.298 494.18 733.298 494.54V524.06C733.298 524.58 733.538 524.84 734.018 524.84H738.998C741.598 524.84 743.578 524.16 744.938 522.8C746.298 521.4 746.978 519.38 746.978 516.74H748.958V527.18C748.238 527.06 745.758 527 741.518 527H721.778V524.72ZM805.398 524.72L807.738 524.9C808.338 524.9 808.638 524.46 808.638 523.58V494.54C808.638 494.18 808.518 493.88 808.278 493.64C808.078 493.36 807.818 493.24 807.498 493.28L805.398 493.4V491.18H821.058V493.4L818.118 493.28H817.998C817.678 493.28 817.418 493.4 817.218 493.64C817.018 493.88 816.918 494.18 816.918 494.54V524.06C816.918 524.58 817.158 524.84 817.638 524.84H822.618C825.218 524.84 827.198 524.16 828.558 522.8C829.918 521.4 830.598 519.38 830.598 516.74H832.578V527.18C831.858 527.06 829.378 527 825.138 527H805.398V524.72ZM889.018 524.72L891.178 524.9C891.898 524.9 892.258 524.46 892.258 523.58V494.54C892.258 494.18 892.138 493.88 891.898 493.64C891.698 493.36 891.418 493.24 891.058 493.28L889.018 493.4V491.18H915.478C916.038 491.18 916.378 491.16 916.498 491.12V500.42H914.398C914.398 497.9 913.718 496.08 912.358 494.96C910.998 493.84 908.838 493.28 905.878 493.28H901.258C900.778 493.28 900.538 493.56 900.538 494.12V507.5H904.858C906.218 507.5 907.318 506.96 908.158 505.88C908.998 504.8 909.418 503.32 909.418 501.44H911.458V515.54H909.418C909.418 513.86 908.958 512.46 908.038 511.34C907.158 510.18 906.098 509.6 904.858 509.6H900.538V524.06C900.538 524.58 900.778 524.84 901.258 524.84H907.858C910.578 524.84 912.638 524.1 914.038 522.62C915.478 521.14 916.198 519.02 916.198 516.26H918.298V527.18C917.418 527.06 915.498 527 912.538 527H889.018V524.72ZM975.556 509.3C975.556 503.38 977.196 498.78 980.476 495.5C983.796 492.22 988.376 490.58 994.216 490.58C995.816 490.58 997.136 490.7 998.176 490.94C999.216 491.18 1000.48 491.54 1001.96 492.02C1003 492.42 1003.9 492.72 1004.66 492.92C1005.42 493.08 1006.26 493.16 1007.18 493.16C1007.02 494.4 1006.94 495.9 1006.94 497.66C1006.94 498.5 1006.96 499.26 1007 499.94C1007.04 500.58 1007.1 500.94 1007.18 501.02H1005.26C1004.78 498.66 1003.56 496.66 1001.6 495.02C999.636 493.34 997.456 492.5 995.056 492.5C991.736 492.5 989.156 493.96 987.316 496.88C985.516 499.76 984.616 503.9 984.616 509.3C984.616 514.46 985.576 518.46 987.496 521.3C989.416 524.1 992.016 525.5 995.296 525.5C997.816 525.5 1000.02 524.7 1001.9 523.1C1003.82 521.46 1005.04 519.42 1005.56 516.98H1007.72C1007.48 518.94 1007.36 520.64 1007.36 522.08C1007.36 523.24 1007.42 524.18 1007.54 524.9H1007.18C1006.46 524.9 1005.7 525 1004.9 525.2C1004.14 525.36 1003.14 525.64 1001.9 526.04C1000.1 526.56 998.636 526.94 997.516 527.18C996.436 527.46 995.236 527.6 993.916 527.6C990.156 527.6 986.896 526.86 984.136 525.38C981.376 523.9 979.256 521.8 977.776 519.08C976.296 516.32 975.556 513.06 975.556 509.3ZM1063.2 491C1063.92 491.08 1064.88 491.12 1066.08 491.12H1091.22C1092.7 491.12 1093.64 491.08 1094.04 491V500.36H1092.06C1092.06 497.92 1091.48 496.12 1090.32 494.96C1089.2 493.8 1087.32 493.22 1084.68 493.22H1083.48C1083.08 493.22 1082.84 493.44 1082.76 493.88V523.58C1082.76 524.46 1083.16 524.9 1083.96 524.9L1087.14 524.78V527H1070.1V524.78L1073.34 524.9C1073.7 524.9 1073.98 524.76 1074.18 524.48C1074.38 524.16 1074.48 523.8 1074.48 523.4V493.94C1074.48 493.46 1074.24 493.22 1073.76 493.22H1072.68C1070.04 493.22 1068.14 493.8 1066.98 494.96C1065.82 496.12 1065.24 497.92 1065.24 500.36H1063.2V491ZM1150.07 524.78L1152.17 524.9H1152.29C1152.97 524.9 1153.31 524.46 1153.31 523.58V494.54C1153.31 494.18 1153.21 493.88 1153.01 493.64C1152.81 493.36 1152.53 493.24 1152.17 493.28L1150.07 493.4V491.18H1164.89V493.4L1162.79 493.28H1162.67C1162.35 493.28 1162.09 493.4 1161.89 493.64C1161.69 493.88 1161.59 494.18 1161.59 494.54V523.58C1161.59 524.54 1161.99 524.98 1162.79 524.9L1164.89 524.78V527H1150.07V524.78ZM1257.67 491.18V493.4L1255.51 493.28C1255.19 493.24 1254.95 493.32 1254.79 493.52C1254.67 493.72 1254.49 494.1 1254.25 494.66L1240.15 527.24H1237.03L1222.99 494.66C1222.55 493.74 1222.09 493.28 1221.61 493.28L1219.93 493.4V491.18H1235.29V493.4L1232.29 493.28C1232.09 493.28 1231.93 493.38 1231.81 493.58C1231.69 493.74 1231.63 493.94 1231.63 494.18C1231.63 494.3 1231.67 494.48 1231.75 494.72L1241.59 517.46L1251.19 495.38C1251.47 494.78 1251.61 494.3 1251.61 493.94C1251.61 493.5 1251.37 493.28 1250.89 493.28L1248.01 493.4V491.18H1257.67ZM1311.63 524.72L1313.79 524.9C1314.51 524.9 1314.87 524.46 1314.87 523.58V494.54C1314.87 494.18 1314.75 493.88 1314.51 493.64C1314.31 493.36 1314.03 493.24 1313.67 493.28L1311.63 493.4V491.18H1338.09C1338.65 491.18 1338.99 491.16 1339.11 491.12V500.42H1337.01C1337.01 497.9 1336.33 496.08 1334.97 494.96C1333.61 493.84 1331.45 493.28 1328.49 493.28H1323.87C1323.39 493.28 1323.15 493.56 1323.15 494.12V507.5H1327.47C1328.83 507.5 1329.93 506.96 1330.77 505.88C1331.61 504.8 1332.03 503.32 1332.03 501.44H1334.07V515.54H1332.03C1332.03 513.86 1331.57 512.46 1330.65 511.34C1329.77 510.18 1328.71 509.6 1327.47 509.6H1323.15V524.06C1323.15 524.58 1323.39 524.84 1323.87 524.84H1330.47C1333.19 524.84 1335.25 524.1 1336.65 522.62C1338.09 521.14 1338.81 519.02 1338.81 516.26H1340.91V527.18C1340.03 527.06 1338.11 527 1335.15 527H1311.63V524.72Z" fill="black"/>
<path d="M449 552.25L420.429 567L391.857 552.25V441.863L306.143 486.113V552.25L277.571 567L249 552.25V286.75L277.571 272L306.143 286.75V397.613L391.857 353.363V286.75L420.429 272L449 286.75V552.25Z" fill="url(#paint0_linear_0_11860)"/>
<path d="M420.429 567L449 552.25V286.75M420.429 567L391.857 552.25V441.863M420.429 567V301.5M391.857 382.863V353.363M391.857 382.863L420.429 397.613L306.143 456.613M391.857 382.863L277.571 441.863M391.857 353.363V286.75M391.857 353.363L277.571 412.363V441.863M391.857 286.75L420.429 272L449 286.75M391.857 286.75L420.429 301.5M449 286.75L420.429 301.5M420.429 427.113L306.143 486.113M306.143 552.25L277.571 567L249 552.25M306.143 552.25L277.571 537.5M306.143 552.25V486.113M249 552.25L277.571 537.5M249 552.25V286.75L277.571 272M277.571 537.5V272M277.571 272L306.143 286.75V398.252M306.143 456.613V486.113M306.143 456.613L277.571 441.863" stroke="black" stroke-width="2"/>
<defs>
<linearGradient id="paint0_linear_0_11860" x1="449.777" y1="424.452" x2="250.035" y2="424.515" gradientUnits="userSpaceOnUse">
<stop stop-color="#AC1500"/>
<stop offset="0.505208" stop-color="#AC0090"/>
<stop offset="1" stop-color="#6E00AD"/>
</linearGradient>
</defs>
</svg>
