<svg width="1600" height="841" viewBox="0 0 1600 841" fill="none" xmlns="http://www.w3.org/2000/svg">
<rect width="1600" height="840.267" fill="black"/>
<path d="M440.22 348.173V374.259L412.513 387.304L329.464 348.179L274.086 374.259L329.464 400.34L329.446 530.763L301.756 543.812L191 491.66V465.573L218.689 452.524L274.067 478.599V426.424L191.018 387.314V361.228L329.464 296L440.202 348.173H440.22Z" fill="url(#paint0_linear_0_11847)"/>
<path d="M301.764 387.299L329.456 400.342V426.428L384.838 400.342V348.171L412.529 335.128L440.22 348.171V478.599L412.529 491.641L384.838 478.599V452.513L329.456 478.599V530.77L301.764 543.812L274.073 530.77V400.342L301.764 387.299Z" fill="url(#paint1_linear_0_11847)"/>
<path d="M542.55 433.6L549.55 434H549.95C552.217 434 553.35 432.533 553.35 429.6V332.8C553.35 329.867 552.083 328.467 549.55 328.6L542.55 329V321.6H594.75V329L584.95 328.6H584.55C583.35 328.6 582.417 329 581.75 329.8C581.217 330.6 580.95 331.6 580.95 332.8V376.6H627.75V332.8C627.75 329.867 626.483 328.467 623.95 328.6L614.15 329V321.6H666.15V329L659.15 328.6H658.75C657.683 328.6 656.817 329 656.15 329.8C655.617 330.6 655.35 331.6 655.35 332.8V429.6C655.35 432.667 656.617 434.133 659.15 434L666.15 433.6V441H614.15V433.6L623.95 434C626.483 434 627.75 432.533 627.75 429.6V383.6H580.95V429.6C580.95 432.533 582.283 434 584.95 434L594.75 433.6V441H542.55V433.6ZM680.008 381.2C680.008 361.333 685.408 346.133 696.208 335.6C707.008 324.933 722.208 319.6 741.808 319.6C761.674 319.6 776.941 325 787.608 335.8C798.274 346.6 803.608 361.733 803.608 381.2C803.608 400.8 798.208 416 787.408 426.8C776.608 437.6 761.408 443 741.808 443C722.208 443 707.008 437.6 696.208 426.8C685.408 416 680.008 400.8 680.008 381.2ZM710.208 381.2C710.208 395.2 711.341 406.2 713.608 414.2C715.874 422.067 719.274 427.667 723.808 431C728.341 434.333 734.341 436 741.808 436C749.274 436 755.274 434.333 759.808 431C764.341 427.667 767.741 422.067 770.008 414.2C772.274 406.2 773.408 395.2 773.408 381.2C773.408 367.333 772.274 356.4 770.008 348.4C767.741 340.4 764.341 334.733 759.808 331.4C755.274 328.067 749.274 326.4 741.808 326.4C734.341 326.4 728.341 328.067 723.808 331.4C719.274 334.733 715.874 340.4 713.608 348.4C711.341 356.4 710.208 367.333 710.208 381.2ZM817.355 433.6L825.155 434H825.355C826.288 434 826.955 433.6 827.355 432.8C827.888 431.867 828.155 430.8 828.155 429.6V332.8C828.155 331.6 827.821 330.6 827.155 329.8C826.488 329 825.555 328.6 824.355 328.6L817.355 329V321.6H866.155C888.421 321.6 904.755 326.2 915.155 335.4C925.688 344.6 930.955 359.867 930.955 381.2C930.955 400.933 925.821 415.867 915.555 426C905.421 436 889.755 441 868.555 441H817.355V433.6ZM855.755 431.2C855.755 432.933 856.555 433.8 858.155 433.8H862.755C872.355 433.8 879.821 432.333 885.155 429.4C890.621 426.467 894.555 421.267 896.955 413.8C899.488 406.333 900.755 395.533 900.755 381.4C900.755 367.4 899.488 356.6 896.955 349C894.555 341.4 890.621 336.133 885.155 333.2C879.821 330.133 872.355 328.6 862.755 328.6H858.155C856.555 328.6 855.755 329.467 855.755 331.2V431.2ZM944.113 433.4L951.913 434C953.913 434 954.913 432.533 954.913 429.6V332.8C954.913 331.6 954.513 330.6 953.713 329.8C953.046 328.867 952.179 328.467 951.113 328.6L944.113 329V321.6H996.313V329L986.513 328.6H986.113C985.046 328.6 984.179 329 983.513 329.8C982.846 330.6 982.513 331.6 982.513 332.8V431.2C982.513 432.933 983.313 433.8 984.913 433.8H1001.51C1010.18 433.8 1016.78 431.533 1021.31 427C1025.85 422.333 1028.11 415.6 1028.11 406.8H1034.71V441.6C1032.31 441.2 1024.05 441 1009.91 441H944.113V433.4ZM1046.85 433.4L1054.05 434C1056.45 434 1057.65 432.533 1057.65 429.6V332.8C1057.65 331.6 1057.25 330.6 1056.45 329.8C1055.78 328.867 1054.85 328.467 1053.65 328.6L1046.85 329V321.6H1135.05C1136.91 321.6 1138.05 321.533 1138.45 321.4V352.4H1131.45C1131.45 344 1129.18 337.933 1124.65 334.2C1120.11 330.467 1112.91 328.6 1103.05 328.6H1087.65C1086.05 328.6 1085.25 329.533 1085.25 331.4V376H1099.65C1104.18 376 1107.85 374.2 1110.65 370.6C1113.45 367 1114.85 362.067 1114.85 355.8H1121.65V402.8H1114.85C1114.85 397.2 1113.31 392.533 1110.25 388.8C1107.31 384.933 1103.78 383 1099.65 383H1085.25V431.2C1085.25 432.933 1086.05 433.8 1087.65 433.8H1109.65C1118.71 433.8 1125.58 431.333 1130.25 426.4C1135.05 421.467 1137.45 414.4 1137.45 405.2H1144.45V441.6C1141.51 441.2 1135.11 441 1125.25 441H1046.85V433.4ZM1161.1 433.6L1168.1 434H1168.5C1170.77 434 1171.9 432.533 1171.9 429.6V332.8C1171.9 331.6 1171.5 330.6 1170.7 329.8C1170.04 328.867 1168.97 328.467 1167.5 328.6L1161.1 329V321.6H1212.9C1227.3 321.6 1237.9 324.067 1244.7 329C1251.64 333.8 1255.1 341.333 1255.1 351.6C1255.1 359.733 1252.5 366.533 1247.3 372C1242.24 377.467 1235.17 381.133 1226.1 383C1230.9 383 1235.77 384.333 1240.7 387C1245.64 389.667 1249.7 393.6 1252.9 398.8C1256.24 403.867 1257.9 409.8 1257.9 416.6C1257.9 420.333 1258.44 424.333 1259.5 428.6C1260.7 432.733 1262.1 435 1263.7 435.4C1264.5 435.667 1265.37 435.8 1266.3 435.8C1267.5 435.8 1268.57 435.533 1269.5 435V441H1234.1C1232.5 437.667 1231.57 433.267 1231.3 427.8C1231.04 424.333 1230.9 421.8 1230.9 420.2V413.6C1230.9 404.533 1228.37 397.8 1223.3 393.4C1218.24 389 1212.1 386.8 1204.9 386.8H1199.5V429.6C1199.5 432.533 1200.84 434 1203.5 434L1213.3 433.6V441H1161.1V433.6ZM1212.1 379.8C1216.9 379.8 1220.7 377.533 1223.5 373C1226.44 368.333 1227.9 362.067 1227.9 354.2C1227.9 345.267 1226.3 338.8 1223.1 334.8C1219.9 330.667 1214.97 328.6 1208.3 328.6H1201.9C1200.3 328.6 1199.5 329.267 1199.5 330.6V379.8H1212.1ZM1287.24 400.4C1288.57 412 1292.31 420.8 1298.44 426.8C1304.71 432.8 1312.44 435.8 1321.64 435.8C1328.44 435.8 1333.77 433.933 1337.64 430.2C1341.64 426.467 1343.64 421.533 1343.64 415.4C1343.64 406.067 1337.31 398.933 1324.64 394L1305.04 385.8C1289.84 379.533 1282.24 369.2 1282.24 354.8C1282.24 348.4 1283.77 342.533 1286.84 337.2C1289.91 331.867 1294.51 327.6 1300.64 324.4C1306.77 321.2 1314.24 319.6 1323.04 319.6C1327.44 319.6 1331.17 319.933 1334.24 320.6C1337.31 321.267 1340.37 322.133 1343.44 323.2C1346.51 324.267 1348.71 325 1350.04 325.4C1352.31 326.2 1354.31 326.6 1356.04 326.6C1358.31 326.6 1360.17 326.333 1361.64 325.8C1361.24 329 1361.04 334.067 1361.04 341C1361.04 344.867 1361.11 347.667 1361.24 349.4C1361.37 351.133 1361.71 352.733 1362.24 354.2H1355.44C1355.44 345.933 1352.57 339.267 1346.84 334.2C1341.24 329 1334.37 326.4 1326.24 326.4C1319.84 326.4 1314.57 328.067 1310.44 331.4C1306.31 334.733 1304.24 339.067 1304.24 344.4C1304.24 348.133 1305.57 351.533 1308.24 354.6C1311.04 357.533 1315.44 360.2 1321.44 362.6L1338.44 369.8C1348.84 374.333 1356.24 379.2 1360.64 384.4C1365.17 389.467 1367.44 396.2 1367.44 404.6C1367.44 411.8 1365.77 418.333 1362.44 424.2C1359.11 429.933 1354.17 434.533 1347.64 438C1341.11 441.333 1333.17 443 1323.84 443C1317.97 443 1311.64 442.133 1304.84 440.4C1297.24 438.4 1292.04 437.4 1289.24 437.4C1288.04 437.4 1286.57 437.533 1284.84 437.8C1283.24 437.933 1282.17 438.133 1281.64 438.4C1282.17 435.6 1282.44 430.467 1282.44 423C1282.44 417.667 1282.31 412.733 1282.04 408.2C1281.77 403.667 1281.37 401.267 1280.84 401L1287.24 400.4Z" fill="white"/>
<path d="M557.744 515.82C558.144 519.3 559.264 521.94 561.104 523.74C562.984 525.54 565.304 526.44 568.064 526.44C570.104 526.44 571.704 525.88 572.864 524.76C574.064 523.64 574.664 522.16 574.664 520.32C574.664 517.52 572.764 515.38 568.964 513.9L563.084 511.44C558.524 509.56 556.244 506.46 556.244 502.14C556.244 500.22 556.704 498.46 557.624 496.86C558.544 495.26 559.924 493.98 561.764 493.02C563.604 492.06 565.844 491.58 568.484 491.58C569.804 491.58 570.924 491.68 571.844 491.88C572.764 492.08 573.684 492.34 574.604 492.66C575.524 492.98 576.184 493.2 576.584 493.32C577.264 493.56 577.864 493.68 578.384 493.68C579.064 493.68 579.624 493.6 580.064 493.44C579.944 494.4 579.884 495.92 579.884 498C579.884 499.16 579.904 500 579.944 500.52C579.984 501.04 580.084 501.52 580.244 501.96H578.204C578.204 499.48 577.344 497.48 575.624 495.96C573.944 494.4 571.884 493.62 569.444 493.62C567.524 493.62 565.944 494.12 564.704 495.12C563.464 496.12 562.844 497.42 562.844 499.02C562.844 500.14 563.244 501.16 564.044 502.08C564.884 502.96 566.204 503.76 568.004 504.48L573.104 506.64C576.224 508 578.444 509.46 579.764 511.02C581.124 512.54 581.804 514.56 581.804 517.08C581.804 519.24 581.304 521.2 580.304 522.96C579.304 524.68 577.824 526.06 575.864 527.1C573.904 528.1 571.524 528.6 568.724 528.6C566.964 528.6 565.064 528.34 563.024 527.82C560.744 527.22 559.184 526.92 558.344 526.92C557.984 526.92 557.544 526.96 557.024 527.04C556.544 527.08 556.224 527.14 556.064 527.22C556.224 526.38 556.304 524.84 556.304 522.6C556.304 521 556.264 519.52 556.184 518.16C556.104 516.8 555.984 516.08 555.824 516L557.744 515.82ZM704.146 492C704.866 492.08 705.826 492.12 707.026 492.12H732.166C733.646 492.12 734.586 492.08 734.986 492V501.36H733.006C733.006 498.92 732.426 497.12 731.266 495.96C730.146 494.8 728.266 494.22 725.626 494.22H724.426C724.026 494.22 723.786 494.44 723.706 494.88V524.58C723.706 525.46 724.106 525.9 724.906 525.9L728.086 525.78V528H711.046V525.78L714.286 525.9C714.646 525.9 714.926 525.76 715.126 525.48C715.326 525.16 715.426 524.8 715.426 524.4V494.94C715.426 494.46 715.186 494.22 714.706 494.22H713.626C710.986 494.22 709.086 494.8 707.926 495.96C706.766 497.12 706.186 498.92 706.186 501.36H704.146V492ZM857.983 492.18H873.823V494.4L870.883 494.28H870.763C870.443 494.28 870.183 494.4 869.983 494.64C869.783 494.88 869.683 495.16 869.683 495.48V516.06C869.683 519.46 870.463 522 872.023 523.68C873.623 525.32 875.923 526.14 878.923 526.14C882.003 526.14 884.243 525.22 885.643 523.38C887.083 521.54 887.803 519.02 887.803 515.82V495.54C887.803 495.14 887.703 494.82 887.503 494.58C887.303 494.34 887.043 494.24 886.723 494.28L883.783 494.4V492.18H893.923V494.4L891.583 494.28H891.463C891.143 494.28 890.883 494.4 890.683 494.64C890.483 494.88 890.383 495.16 890.383 495.48V515.82C890.383 519.86 889.303 523 887.143 525.24C884.983 527.48 881.723 528.6 877.363 528.6C866.723 528.6 861.403 524.42 861.403 516.06V495.54C861.403 495.18 861.283 494.88 861.043 494.64C860.843 494.36 860.583 494.24 860.263 494.28L857.983 494.4V492.18ZM1017.77 525.78L1020.11 525.9H1020.17C1020.45 525.9 1020.65 525.78 1020.77 525.54C1020.93 525.26 1021.01 524.94 1021.01 524.58V495.54C1021.01 495.18 1020.91 494.88 1020.71 494.64C1020.51 494.4 1020.23 494.28 1019.87 494.28L1017.77 494.4V492.18H1032.41C1039.09 492.18 1043.99 493.56 1047.11 496.32C1050.27 499.08 1051.85 503.66 1051.85 510.06C1051.85 515.98 1050.31 520.46 1047.23 523.5C1044.19 526.5 1039.49 528 1033.13 528H1017.77V525.78ZM1029.29 525.06C1029.29 525.58 1029.53 525.84 1030.01 525.84H1031.39C1034.27 525.84 1036.51 525.4 1038.11 524.52C1039.75 523.64 1040.93 522.08 1041.65 519.84C1042.41 517.6 1042.79 514.36 1042.79 510.12C1042.79 505.92 1042.41 502.68 1041.65 500.4C1040.93 498.12 1039.75 496.54 1038.11 495.66C1036.51 494.74 1034.27 494.28 1031.39 494.28H1030.01C1029.53 494.28 1029.29 494.54 1029.29 495.06V525.06ZM1175.8 525.78L1177.9 525.9H1178.02C1178.7 525.9 1179.04 525.46 1179.04 524.58V495.54C1179.04 495.18 1178.94 494.88 1178.74 494.64C1178.54 494.36 1178.26 494.24 1177.9 494.28L1175.8 494.4V492.18H1190.62V494.4L1188.52 494.28H1188.4C1188.08 494.28 1187.82 494.4 1187.62 494.64C1187.42 494.88 1187.32 495.18 1187.32 495.54V524.58C1187.32 525.54 1187.72 525.98 1188.52 525.9L1190.62 525.78V528H1175.8V525.78ZM1314.77 510.06C1314.77 504.1 1316.39 499.54 1319.63 496.38C1322.87 493.18 1327.43 491.58 1333.31 491.58C1339.27 491.58 1343.85 493.2 1347.05 496.44C1350.25 499.68 1351.85 504.22 1351.85 510.06C1351.85 515.94 1350.23 520.5 1346.99 523.74C1343.75 526.98 1339.19 528.6 1333.31 528.6C1327.43 528.6 1322.87 526.98 1319.63 523.74C1316.39 520.5 1314.77 515.94 1314.77 510.06ZM1323.83 510.06C1323.83 514.26 1324.17 517.56 1324.85 519.96C1325.53 522.32 1326.55 524 1327.91 525C1329.27 526 1331.07 526.5 1333.31 526.5C1335.55 526.5 1337.35 526 1338.71 525C1340.07 524 1341.09 522.32 1341.77 519.96C1342.45 517.56 1342.79 514.26 1342.79 510.06C1342.79 505.9 1342.45 502.62 1341.77 500.22C1341.09 497.82 1340.07 496.12 1338.71 495.12C1337.35 494.12 1335.55 493.62 1333.31 493.62C1331.07 493.62 1329.27 494.12 1327.91 495.12C1326.55 496.12 1325.53 497.82 1324.85 500.22C1324.17 502.62 1323.83 505.9 1323.83 510.06Z" fill="white"/>
<defs>
<linearGradient id="paint0_linear_0_11847" x1="191" y1="442.585" x2="415.748" y2="336.704" gradientUnits="userSpaceOnUse">
<stop stop-color="#FF0000"/>
<stop offset="1" stop-color="#FAFF00"/>
</linearGradient>
<linearGradient id="paint1_linear_0_11847" x1="275.655" y1="478.045" x2="440.22" y2="403.379" gradientUnits="userSpaceOnUse">
<stop stop-color="#3301FE"/>
<stop offset="1" stop-color="#C902FF"/>
</linearGradient>
</defs>
</svg>
